SplineFontDB: 3.0
FontName: TagatiBookG
FullName: Tagati Book G
FamilyName: Tagati Book G
Weight: Book
Copyright: Created by Carsten Becker 2012. CC-BY-NC-SA. http://benung.nfshost.com.
Version: 001.000
ItalicAngle: 0
UnderlinePosition: -128
UnderlineWidth: 30
Ascent: 854
Descent: 170
sfntRevision: 0x00010000
LayerCount: 2
Layer: 0 1 "Back"  1
Layer: 1 1 "Zeichenebene"  0
XUID: [1021 345 1819181974 668289]
FSType: 0
OS2Version: 4
OS2_WeightWidthSlopeOnly: 0
OS2_UseTypoMetrics: 1
CreationTime: 1328102061
ModificationTime: 1344930156
PfmFamily: 17
TTFWeight: 400
TTFWidth: 5
LineGap: 92
VLineGap: 0
Panose: 2 0 5 3 0 0 0 0 0 0
OS2TypoAscent: 0
OS2TypoAOffset: 1
OS2TypoDescent: 0
OS2TypoDOffset: 1
OS2TypoLinegap: 92
OS2WinAscent: 0
OS2WinAOffset: 1
OS2WinDescent: 0
OS2WinDOffset: 1
HheadAscent: 0
HheadAOffset: 1
HheadDescent: 0
HheadDOffset: 1
OS2SubXSize: 665
OS2SubYSize: 716
OS2SubXOff: 0
OS2SubYOff: 143
OS2SupXSize: 665
OS2SupYSize: 716
OS2SupXOff: 0
OS2SupYOff: 491
OS2StrikeYSize: 51
OS2StrikeYPos: 265
OS2Vendor: 'PfEd'
OS2CodePages: 00000001.00000000
OS2UnicodeRanges: a000001b.10000001.00000000.00000000
MarkAttachClasses: 1
DEI: 91125
ShortTable: cvt  2
  34
  648
EndShort
ShortTable: maxp 16
  1
  0
  115
  204
  19
  222
  19
  2
  0
  1
  1
  0
  64
  46
  2
  1
EndShort
LangName: 1033 "" "" "Regular" "" "" "" "" "" "" "" "" "" "" "" "" "" "" "" "" "ANF kmynF pr dgaasF vl, bhu tY!" 
GaspTable: 1 65535 2 0
Encoding: UnicodeBmp
UnicodeInterp: none
NameList: Adobe Glyph List
DisplaySize: -48
AntiAlias: 1
FitToEm: 1
WinInfo: 0 16 4
BeginPrivate: 0
EndPrivate
BeginChars: 65538 117

StartChar: .notdef
Encoding: 65536 -1 0
Width: 374
Flags: W
HStem: 0 34<68 272> 648 34<68 272>
VStem: 34 34<34 648> 272 34<34 648>
LayerCount: 2
Fore
SplineSet
34 0 m 1,0,-1
 34 682 l 1,1,-1
 306 682 l 1,2,-1
 306 0 l 1,3,-1
 34 0 l 1,0,-1
68 34 m 1,4,-1
 272 34 l 1,5,-1
 272 648 l 1,6,-1
 68 648 l 1,7,-1
 68 34 l 1,4,-1
EndSplineSet
EndChar

StartChar: uni0000
Encoding: 0 -1 1
AltUni2: 000000.ffffffff.0
Width: 425
GlyphClass: 2
Flags: W
HStem: -17 35<119 130.32 162 188 219.713 228> -11 33<221 232 238 238.087> 119 26<17.1171 24.3914 324 335.714> 170 27<-12 20 327 359> 183 164G<-14 38 42 62.2 90 104.273 241.727 257 284.538 305 308 361> 243 26G<-5 67 74.3333 109 237 271.667 279 351> 321 37<132.524 149 198 213.434>
VStem: -15 35<170 171 172 197.781> -4 34<116.681 138> 134 26<323.897 355> 186 26<323.897 356> 324 32<121.541 132 195.328 198.2>
LayerCount: 2
Fore
SplineSet
181 18 m 1,0,-1
 188 18 l 1,1,-1
 191 -16 l 1,2,-1
 190 -16 l 1,3,-1
 186 -17 l 1,4,-1
 182 -17 l 1,5,-1
 178 -17 l 1,6,-1
 174 -17 l 1,7,-1
 173 -17 l 1,8,-1
 169 -17 l 1,9,-1
 165 -17 l 1,10,-1
 161 -17 l 1,11,-1
 160 -17 l 1,12,-1
 162 18 l 1,13,-1
 166 18 l 1,14,-1
 170 18 l 1,15,-1
 173 18 l 1,16,-1
 174 18 l 1,17,-1
 177 18 l 1,18,-1
 181 18 l 1,0,-1
111 28 m 1,19,-1
 136 21 l 1,20,-1
 129 -13 l 1,21,-1
 119 -11 l 1,22,-1
 116 -10 l 1,23,-1
 112 -9 l 1,24,-1
 109 -8 l 1,25,-1
 102 -6 l 1,26,-1
 99 -5 l 1,27,-1
 111 28 l 1,19,-1
214 22 m 1,28,-1
 238 29 l 1,29,-1
 251 -3 l 1,30,-1
 245 -6 l 1,31,-1
 238 -8 l 1,32,-1
 235 -9 l 1,33,-1
 232 -10 l 1,34,-1
 228 -11 l 1,35,-1
 221 -12 l 1,36,-1
 214 22 l 1,28,-1
69 54 m 1,37,-1
 89 39 l 1,38,-1
 70 9 l 1,39,-1
 68 11 l 1,40,-1
 65 13 l 1,41,-1
 63 14 l 1,42,-1
 60 16 l 1,43,-1
 51 23 l 1,44,-1
 46 27 l 1,45,-1
 45 29 l 1,46,-1
 69 54 l 1,37,-1
261 40 m 1,47,-1
 277 53 l 1,48,-1
 280 56 l 1,49,-1
 304 31 l 1,50,-1
 301 27 l 1,51,-1
 290 18 l 1,52,-1
 287 16 l 1,53,-1
 285 14 l 1,54,-1
 282 13 l 1,55,-1
 280 11 l 1,56,-1
 261 40 l 1,47,-1
39 95 m 1,57,-1
 52 73 l 1,58,-1
 24 53 l 1,59,-1
 18 60 l 1,60,-1
 13 69 l 1,61,-1
 11 74 l 1,62,-1
 8 78 l 1,63,-1
 8 79 l 1,64,-1
 39 95 l 1,57,-1
297 75 m 1,65,-1
 308 94 l 1,66,-1
 309 98 l 1,67,-1
 341 82 l 1,68,-1
 339 78 l 1,69,-1
 337 74 l 1,70,-1
 334 70 l 1,71,-1
 329 61 l 1,72,-1
 326 56 l 1,73,-1
 325 55 l 1,74,-1
 297 75 l 1,65,-1
23 145 m 1,75,-1
 30 119 l 1,76,-1
 -4 108 l 1,77,-1
 -5 112 l 1,78,-1
 -6 116 l 1,79,-1
 -7 120 l 1,80,-1
 -8 124 l 1,81,-1
 -9 128 l 1,82,-1
 -11 135 l 1,83,-1
 -11 138 l 1,84,-1
 23 145 l 1,75,-1
318 122 m 1,85,-1
 324 142 l 1,86,-1
 324 147 l 1,87,-1
 359 141 l 1,88,-1
 357 132 l 1,89,-1
 356 128 l 1,90,-1
 356 124 l 1,91,-1
 355 120 l 1,92,-1
 353 117 l 1,93,-1
 352 113 l 1,94,-1
 352 111 l 1,95,-1
 318 122 l 1,85,-1
-14 184 m 1,96,-1
 -12 203 l 1,97,-1
 23 197 l 1,98,-1
 20 173 l 1,99,-1
 20 172 l 1,100,-1
 20 171 l 1,101,-1
 20 170 l 1,102,-1
 10 170 l 1,103,-1
 -15 169 l 1,104,-1
 -15 171 l 1,105,-1
 2 172 l 1,106,-1
 -15 172 l 1,107,-1
 -15 174 l 1,108,-1
 -15 176 l 1,109,-1
 -15 177 l 1,110,-1
 -15 180 l 1,111,-1
 -14 184 l 1,96,-1
327 173 m 1,112,-1
 324 198 l 1,113,-1
 359 204 l 1,114,-1
 361 184 l 1,115,-1
 362 180 l 1,116,-1
 362 177 l 1,117,-1
 362 176 l 1,118,-1
 362 174 l 1,119,-1
 362 173 l 1,120,-1
 327 172 l 1,121,-1
 327 173 l 1,112,-1
38 246 m 1,122,-1
 29 222 l 1,123,-1
 -5 233 l 1,124,-1
 -4 235 l 1,125,-1
 -1 243 l 1,126,-1
 0 247 l 1,127,-1
 2 252 l 1,128,-1
 4 256 l 1,129,-1
 7 262 l 1,130,-1
 38 246 l 1,122,-1
318 223 m 1,131,-1
 308 247 l 1,132,-1
 340 263 l 1,133,-1
 343 256 l 1,134,-1
 345 252 l 1,135,-1
 346 248 l 1,136,-1
 350 239 l 1,137,-1
 351 235 l 1,138,-1
 351 234 l 1,139,-1
 318 223 l 1,131,-1
67 288 m 1,140,-1
 51 269 l 1,141,-1
 22 289 l 1,142,-1
 27 295 l 1,143,-1
 34 304 l 1,144,-1
 38 308 l 1,145,-1
 42 312 l 1,146,-1
 43 313 l 1,147,-1
 67 288 l 1,140,-1
295 269 m 1,148,-1
 279 288 l 1,149,-1
 303 314 l 1,150,-1
 305 312 l 1,151,-1
 309 308 l 1,152,-1
 312 304 l 1,153,-1
 319 296 l 1,154,-1
 324 290 l 1,155,-1
 295 269 l 1,148,-1
109 314 m 1,156,-1
 87 303 l 1,157,-1
 68 333 l 1,158,-1
 70 334 l 1,159,-1
 78 338 l 1,160,-1
 81 340 l 1,161,-1
 87 343 l 1,162,-1
 90 344 l 1,163,-1
 96 347 l 1,164,-1
 97 347 l 1,165,-1
 109 314 l 1,156,-1
259 303 m 1,166,-1
 237 314 l 1,167,-1
 249 347 l 1,168,-1
 257 344 l 1,169,-1
 260 343 l 1,170,-1
 266 340 l 1,171,-1
 269 338 l 1,172,-1
 271 337 l 1,173,-1
 274 335 l 1,174,-1
 278 333 l 1,175,-1
 259 303 l 1,166,-1
157 359 m 1,176,-1
 158 360 l 1,177,-1
 160 325 l 1,178,-1
 134 321 l 1,179,-1
 127 355 l 1,180,-1
 137 357 l 1,181,-1
 141 358 l 1,182,-1
 149 359 l 1,183,-1
 153 359 l 1,184,-1
 157 359 l 1,176,-1
212 321 m 1,185,-1
 186 325 l 1,186,-1
 188 360 l 1,187,-1
 190 359 l 1,188,-1
 194 359 l 1,189,-1
 198 359 l 1,190,-1
 206 358 l 1,191,-1
 210 357 l 1,192,-1
 219 356 l 1,193,-1
 212 321 l 1,185,-1
EndSplineSet
EndChar

StartChar: exclam
Encoding: 33 33 4
Width: 316
GlyphClass: 2
Flags: W
VStem: -60 120
LayerCount: 2
Fore
SplineSet
60 32 m 0,0,1
 65 30 65 30 58 16 c 0,2,3
 50 2 50 2 38 -10 c 128,-1,4
 26 -22 26 -22 13 -29 c 0,5,6
 3 -35 3 -35 -3 -32 c 0,7,8
 -41 -13 -41 -13 -56 28 c 0,9,10
 -68 61 -68 61 -56 103 c 0,11,12
 -48 134 -48 134 -28 159 c 0,13,14
 -27 161 -27 161 -23.5 165.5 c 128,-1,15
 -20 170 -20 170 -18 172 c 0,16,17
 -18 173 -18 173 -17 174.5 c 128,-1,18
 -16 176 -16 176 -15 177 c 0,19,20
 -9 193 -9 193 -7 202 c 0,21,22
 -2 230 -2 230 -9 254 c 1,23,24
 -23 293 -23 293 -60 310 c 0,25,26
 -65 312 -65 312 -58 326 c 0,27,28
 -50 340 -50 340 -38 352 c 128,-1,29
 -26 364 -26 364 -13 371 c 0,30,31
 -3 377 -3 377 3 374 c 0,32,33
 41 355 41 355 56 314 c 0,34,35
 68 281 68 281 56 239 c 0,36,37
 48 208 48 208 28 183 c 0,38,39
 27 181 27 181 23.5 176.5 c 128,-1,40
 20 172 20 172 18 170 c 0,41,42
 18 169 18 169 17 167.5 c 128,-1,43
 16 166 16 166 15 165 c 0,44,45
 9 149 9 149 7 140 c 0,46,47
 2 112 2 112 9 88 c 1,48,49
 23 49 23 49 60 32 c 0,0,1
EndSplineSet
EndChar

StartChar: quotedbl
Encoding: 34 34 5
Width: 214
GlyphClass: 2
Flags: W
HStem: 65 209
VStem: -32 150
LayerCount: 2
Fore
SplineSet
-8 160 m 0,0,1
 -22 150 -22 150 -28 151 c 1,2,3
 -36 151 -36 151 -32 161 c 0,4,5
 -29 171 -29 171 -18 185 c 0,6,7
 -5 200 -5 200 8 208 c 2,8,9
 8 208 8 208 93 265 c 0,10,11
 107 275 107 275 114 274 c 0,12,13
 121 274 121 274 118 264 c 256,14,15
 115 254 115 254 103 240 c 0,16,17
 90 225 90 225 78 217 c 2,18,19
 78 217 78 217 -8 160 c 0,0,1
-8 74 m 0,20,21
 -22 65 -22 65 -28 65 c 0,22,23
 -36 66 -36 66 -32 76 c 0,24,25
 -29 86 -29 86 -18 99 c 0,26,27
 -5 114 -5 114 8 123 c 2,28,29
 8 123 8 123 93 180 c 0,30,31
 107 189 107 189 114 189 c 0,32,33
 121 188 121 188 118 178 c 256,34,35
 115 168 115 168 103 155 c 0,36,37
 90 140 90 140 78 131 c 0,38,39
 35 103 35 103 -8 74 c 0,20,21
EndSplineSet
EndChar

StartChar: ampersand
Encoding: 38 38 6
Width: 300
GlyphClass: 2
Flags: W
VStem: -33 66<-8.58984 350.59> 138 66<-350.59 350.59>
LayerCount: 2
Fore
SplineSet
138 314 m 0,0,1
 138 320 138 320 147 334 c 1,2,3
 163 355 163 355 170 360 c 0,4,5
 203 380 203 380 204 370 c 1,6,-1
 204 369 l 1,7,8
 204 369 204 369 204 285 c 2,9,10
 204 285 204 285 204 114 c 2,11,12
 204 114 204 114 204 -83 c 2,13,14
 204 -83 204 -83 204 -246 c 2,15,16
 204 -246 204 -246 204 -314 c 0,17,18
 204 -320 204 -320 195 -334 c 1,19,20
 179 -355 179 -355 172 -360 c 0,21,22
 139 -380 139 -380 138 -370 c 1,23,-1
 138 -369 l 1,24,25
 138 -369 138 -369 138 -285 c 2,26,27
 138 -285 138 -285 138 -114 c 2,28,29
 138 -114 138 -114 138 83 c 2,30,31
 138 83 138 83 138 246 c 2,32,33
 138 246 138 246 138 314 c 0,0,1
-33 314 m 0,34,35
 -33 320 -33 320 -24 334 c 1,36,37
 -8 355 -8 355 -1 360 c 0,38,39
 32 380 32 380 33 370 c 1,40,41
 33 370 33 370 33 328 c 2,42,43
 33 328 33 328 33 144 c 2,44,45
 33 144 33 144 33 28 c 0,46,47
 33 22 33 22 24 8 c 1,48,49
 8 -13 8 -13 1 -18 c 0,50,51
 -32 -38 -32 -38 -33 -28 c 1,52,53
 -33 -28 -33 -28 -33 14 c 2,54,55
 -33 14 -33 14 -33 198 c 2,56,57
 -33 198 -33 198 -33 314 c 0,34,35
EndSplineSet
EndChar

StartChar: quotesingle
Encoding: 39 39 7
Width: 156
GlyphClass: 2
Flags: W
HStem: 25 291
VStem: -32 92
LayerCount: 2
Fore
SplineSet
-32 253 m 2,0,1
 -37 258 -37 258 -29 269 c 1,2,3
 -22 282 -22 282 -10 294 c 128,-1,4
 2 306 2 306 16 314 c 0,5,6
 27 321 27 321 32 316 c 2,7,-1
 60 288 l 2,8,9
 65 283 65 283 58 272 c 0,10,11
 50 258 50 258 38 246 c 128,-1,12
 26 234 26 234 13 227 c 1,13,14
 2 219 2 219 -3 224 c 2,15,-1
 -32 253 l 2,0,1
-32 53 m 128,-1,17
 -37 58 -37 58 -29 69 c 1,18,19
 -20 85 -20 85 -10 95 c 128,-1,20
 0 105 0 105 16 114 c 1,21,22
 27 122 27 122 32 117 c 128,-1,23
 37 112 37 112 46 102.5 c 128,-1,24
 55 93 55 93 60 88 c 128,-1,25
 65 83 65 83 58 72 c 0,26,27
 52 61 52 61 38 47 c 128,-1,28
 24 33 24 33 13 27 c 0,29,30
 2 20 2 20 -3 25 c 128,-1,31
 -8 30 -8 30 -17.5 39 c 128,-1,16
 -27 48 -27 48 -32 53 c 128,-1,17
EndSplineSet
EndChar

StartChar: parenleft
Encoding: 40 40 8
Width: 243
GlyphClass: 2
Flags: W
HStem: -33 66<-8.58984 53.1381> 309 66<-8.58984 40.0522>
VStem: 81 66<64.1094 242.34>
LayerCount: 2
Fore
SplineSet
72 43 m 1,0,1
 81 61 81 61 81 107 c 2,2,-1
 81 186 l 2,3,4
 81 222 81 222 74 243 c 1,5,6
 59 282 59 282 18 299 c 1,7,8
 -10 309 -10 309 -28 309 c 0,9,10
 -42 309 -42 309 -18 343 c 0,11,12
 -13 350 -13 350 8 366 c 1,13,14
 22 375 22 375 28 375 c 0,15,16
 46 375 46 375 64 369 c 0,17,18
 108 355 108 355 128 326 c 0,19,20
 147 298 147 298 147 230 c 2,21,-1
 147 186 l 2,22,23
 147 119 147 119 138 94 c 0,24,25
 126 58 126 58 99.5 28 c 128,-1,26
 73 -2 73 -2 40 -18 c 0,27,28
 8 -33 8 -33 -28 -33 c 0,29,30
 -42 -33 -42 -33 -18 1 c 0,31,32
 -13 8 -13 8 8 24 c 1,33,34
 22 33 22 33 28 33 c 0,35,36
 53 33 53 33 69 40 c 1,37,-1
 70 41 l 2,38,39
 70 42 70 42 70.5 42 c 128,-1,40
 71 42 71 42 71 43 c 1,41,-1
 72 43 l 1,0,1
EndSplineSet
EndChar

StartChar: parenright
Encoding: 41 41 9
Width: 238
GlyphClass: 2
Flags: W
HStem: -33 66<71.6875 122.59> 309 66<64.0508 122.59>
VStem: -33.5 66.5<73.8936 278.438>
LayerCount: 2
Fore
SplineSet
142 375 m 0,0,1
 156 375 156 375 132 341 c 0,2,3
 127 334 127 334 106 318 c 1,4,5
 92 309 92 309 86 309 c 0,6,7
 63 309 63 309 41 298 c 1,8,9
 33 279 33 279 33 225 c 2,10,11
 33 225 33 225 33 181 c 0,12,13
 33 121 33 121 41 100 c 0,14,15
 67 33 67 33 142 33 c 0,16,17
 156 33 156 33 132 -1 c 0,18,19
 127 -8 127 -8 106 -24 c 1,20,21
 92 -33 92 -33 86 -33 c 0,22,23
 27 -33 27 -33 -4 4 c 0,24,25
 -33 39 -33 39 -33 114 c 0,26,27
 -33 124 -33 124 -33.5 147.5 c 128,-1,28
 -34 171 -34 171 -33.5 183 c 128,-1,29
 -33 195 -33 195 -32 212.5 c 128,-1,30
 -31 230 -31 230 -27 243.5 c 128,-1,31
 -23 257 -23 257 -17 269 c 0,32,33
 3 307 3 307 47 341 c 0,34,35
 92 375 92 375 142 375 c 0,0,1
EndSplineSet
EndChar

StartChar: comma
Encoding: 44 44 11
Width: 256
GlyphClass: 2
Flags: W
LayerCount: 2
Fore
SplineSet
0 0 m 0,0,-1
EndSplineSet
EndChar

StartChar: period
Encoding: 46 46 13
Width: 417
GlyphClass: 2
Flags: W
VStem: -33 66<-8.58984 350.59> 95 66<-8.58984 350.59>
LayerCount: 2
Fore
SplineSet
-33 314 m 0,0,1
 -33 320 -33 320 -24 334 c 1,2,3
 -8 355 -8 355 -1 360 c 0,4,5
 32 380 32 380 33 370 c 1,6,7
 33 370 33 370 33 328 c 2,8,9
 33 328 33 328 33 144 c 2,10,11
 33 144 33 144 33 28 c 0,12,13
 33 22 33 22 24 8 c 1,14,15
 8 -13 8 -13 1 -18 c 0,16,17
 -32 -38 -32 -38 -33 -28 c 1,18,19
 -33 -28 -33 -28 -33 14 c 2,20,21
 -33 14 -33 14 -33 198 c 2,22,23
 -33 198 -33 198 -33 314 c 0,0,1
95 314 m 0,24,25
 95 320 95 320 104 334 c 1,26,27
 120 355 120 355 127 360 c 0,28,29
 160 380 160 380 161 370 c 1,30,31
 161 370 161 370 161 328 c 2,32,33
 161 328 161 328 161 144 c 2,34,35
 161 144 161 144 161 28 c 0,36,37
 161 22 161 22 152 8 c 1,38,39
 136 -13 136 -13 129 -18 c 0,40,41
 96 -38 96 -38 95 -28 c 1,42,43
 95 -28 95 -28 95 14 c 2,44,45
 95 14 95 14 95 198 c 2,46,47
 95 198 95 198 95 314 c 0,24,25
EndSplineSet
EndChar

StartChar: zero
Encoding: 48 48 15
Width: 357
GlyphClass: 2
Flags: W
VStem: -33 66<92.7366 142.375 204 252.848> 195 66<64.3749 122.59>
LayerCount: 2
Fore
SplineSet
186 43 m 1,0,1
 195 61 195 61 195 86 c 0,2,3
 195 92 195 92 204 106 c 1,4,5
 220 127 220 127 227 132 c 0,6,7
 260 152 260 152 261 142 c 1,8,9
 261 117 261 117 251 90 c 0,10,11
 237 53 237 53 208 23.5 c 128,-1,12
 179 -6 179 -6 143 -22 c 0,13,14
 80 -49 80 -49 32 -18 c 0,15,16
 1 3 1 3 -16 46 c 128,-1,17
 -33 89 -33 89 -33 141 c 2,18,-1
 -33 152 l 1,19,20
 -28 267 -28 267 51 337 c 0,21,22
 109 388 109 388 174 372 c 0,23,24
 212 362 212 362 235.5 332.5 c 128,-1,25
 259 303 259 303 261 258 c 1,26,-1
 261 256 l 2,27,28
 261 250 261 250 252 236 c 0,29,30
 239 217 239 217 206 193 c 1,31,32
 141 151 141 151 40 141 c 1,33,34
 54 63 54 63 108 39 c 1,35,36
 148 25 148 25 183 40 c 1,37,-1
 184 41 l 2,38,39
 184 42 184 42 184.5 42 c 128,-1,40
 185 42 185 42 185 43 c 1,41,-1
 186 43 l 1,0,1
57 303 m 1,42,43
 56 301 56 301 54.5 298 c 128,-1,44
 53 295 53 295 52 294 c 1,45,-1
 52 293 l 1,46,47
 51 290 51 290 48.5 284 c 128,-1,48
 46 278 46 278 45 275 c 0,49,50
 36 245 36 245 33 205 c 1,51,-1
 33 204 l 1,52,53
 82 204 82 204 124 211 c 0,54,55
 125 211 125 211 126.5 211.5 c 128,-1,56
 128 212 128 212 129 212 c 0,57,58
 156 216 156 216 185 226 c 0,59,60
 186 226 186 226 188 227 c 128,-1,61
 190 228 190 228 191 228 c 1,62,63
 182 271 182 271 143.5 295 c 128,-1,64
 105 319 105 319 57 303 c 1,42,43
EndSplineSet
EndChar

StartChar: one
Encoding: 49 49 16
Width: 471
GlyphClass: 2
Flags: W
HStem: -33 66<145 183.959 205 350.59> 306 69<88.6562 248.641>
VStem: -33 66<-8.58984 281.969 282 283>
LayerCount: 2
Fore
SplineSet
33 28 m 2,0,1
 33 22 33 22 24 8 c 1,2,3
 8 -13 8 -13 1 -18 c 0,4,5
 -32 -38 -32 -38 -33 -28 c 1,6,7
 -33 -28 -33 -28 -33 283 c 1,8,-1
 -60 310 l 2,9,10
 -65 315 -65 315 -58 326 c 0,11,12
 -42 355 -42 355 -13 371 c 1,13,14
 -2 379 -2 379 3 374 c 2,15,-1
 30 347 l 2,16,17
 33 344 33 344 33 342 c 2,18,19
 33 342 33 342 33 316 c 1,20,21
 52 332 52 332 75 346 c 0,22,23
 128 377 128 377 207 375 c 0,24,25
 278 373 278 373 321 342 c 0,26,27
 371 305 371 305 375 243 c 0,28,29
 375 229 375 229 370 214 c 0,30,31
 359 186 359 186 342 163 c 0,32,33
 304 112 304 112 245 65 c 1,34,35
 219 43 219 43 205 33 c 1,36,-1
 370 33 l 2,37,38
 384 33 384 33 360 -1 c 0,39,40
 355 -8 355 -8 334 -24 c 1,41,42
 320 -33 320 -33 314 -33 c 2,43,-1
 100 -33 l 2,44,45
 96 -33 96 -33 95 -30 c 128,-1,46
 94 -27 94 -27 96.5 -21.5 c 128,-1,47
 99 -16 99 -16 100.5 -13.5 c 128,-1,48
 102 -11 102 -11 104 -8 c 0,49,50
 122 17 122 17 144 29 c 1,51,-1
 145 30 l 1,52,-1
 146 30 l 1,53,54
 148 31 148 31 160 39 c 0,55,56
 181 52 181 52 226 86 c 0,57,58
 230 90 230 90 238.5 96.5 c 128,-1,59
 247 103 247 103 250 105 c 0,60,61
 260 113 260 113 273 126 c 2,62,-1
 284 137 l 2,63,64
 290 143 290 143 300 158 c 1,65,-1
 302 160 l 1,66,67
 315 185 315 185 302 221 c 0,68,69
 283 272 283 272 227 295 c 1,70,71
 170 316 170 316 98 306 c 1,72,73
 73 301 73 301 57 295 c 0,74,75
 56 295 56 295 56 294 c 2,76,-1
 54 293 l 1,77,-1
 44 288 l 2,78,79
 43 287 43 287 42 285.5 c 128,-1,80
 41 284 41 284 40 283 c 0,81,82
 40 282 40 282 40 282 c 1,83,-1
 39 280 l 2,84,85
 35 270 35 270 34 265 c 0,86,87
 34 264 34 264 33.5 261 c 128,-1,88
 33 258 33 258 33 256 c 2,89,-1
 33 28 l 2,0,1
EndSplineSet
EndChar

StartChar: two
Encoding: 50 50 17
Width: 471
GlyphClass: 2
Flags: W
HStem: -33 65<99.9817 239.55> 309 66<168.927 309>
VStem: -33 66<91.9722 255> 309 66<103.727 309>
LayerCount: 2
Fore
SplineSet
-60 310 m 2,0,1
 -65 315 -65 315 -58 326 c 0,2,3
 -42 355 -42 355 -13 371 c 1,4,5
 -2 379 -2 379 3 374 c 2,6,-1
 31 346 l 2,7,8
 33 344 33 344 33 329 c 2,9,-1
 33 293 l 1,10,11
 54 310 54 310 79 322 c 0,12,13
 147 356 147 356 267 369 c 0,14,15
 318 375 318 375 370 375 c 0,16,17
 375 375 375 375 375 370 c 2,18,-1
 375 204 l 2,19,20
 375 84 375 84 266 5 c 0,21,22
 212 -33 212 -33 141 -33 c 128,-1,23
 70 -33 70 -33 24 -2 c 0,24,25
 -29 33 -29 33 -33 98 c 1,26,-1
 -33 136 l 1,27,-1
 -33 283 l 1,28,-1
 -60 310 l 2,0,1
283 55 m 1,29,30
 285 57 285 57 288 63 c 128,-1,31
 291 69 291 69 292 71 c 0,32,33
 292 72 292 72 292.5 72 c 128,-1,34
 293 72 293 72 293 73 c 0,35,36
 304 106 304 106 306 115 c 0,37,38
 309 131 309 131 309 164 c 2,39,-1
 309 309 l 1,40,-1
 302 309 l 1,41,42
 193 307 193 307 103 283 c 0,43,44
 67 273 67 273 54 267 c 1,45,46
 42 263 42 263 36 257 c 2,47,48
 36 257 36 257 35 256 c 2,49,50
 35 256 35 256 34 255 c 0,51,52
 34 254 34 254 34 253 c 0,53,54
 33 249 33 249 33 242 c 2,55,-1
 33 196 l 1,56,-1
 33 155 l 2,57,58
 33 140 33 140 40 121 c 0,59,60
 59 70 59 70 115 47 c 0,61,62
 151 33 151 33 192.5 32 c 128,-1,63
 234 31 234 31 266 45 c 1,64,-1
 267 46 l 2,65,66
 268 46 268 46 269 46 c 0,67,68
 281 52 281 52 283 54 c 1,69,-1
 283 55 l 1,29,30
EndSplineSet
EndChar

StartChar: three
Encoding: 51 51 18
Width: 471
GlyphClass: 2
Flags: W
HStem: -33 66<203.1 284.2> 309.5 65.5<74.7764 260.142>
VStem: -33 66<-8.58984 283> 309 66<46.7969 94.0205>
LayerCount: 2
Fore
SplineSet
264 33 m 0,0,1
 289 33 289 33 307 42 c 1,2,-1
 308 42 l 1,3,4
 309 47 309 47 309 57 c 0,5,6
 309 64 309 64 318 78 c 1,7,8
 332 96 332 96 341 103 c 0,9,10
 368 121 368 121 372 119 c 0,11,12
 375 118 375 118 375 114 c 0,13,14
 375 61 375 61 329 20 c 0,15,16
 274 -29 274 -29 207 -33 c 1,17,-1
 201 -33 l 1,18,19
 170 -30 170 -30 143 -11 c 0,20,21
 113 11 113 11 100.5 51.5 c 128,-1,22
 88 92 88 92 101 137 c 1,23,24
 111 166 111 166 136 195 c 0,25,26
 167 230 167 230 200 248 c 0,27,28
 213 256 213 256 248 269 c 0,29,30
 251 270 251 270 260.5 273.5 c 128,-1,31
 270 277 270 277 276 278 c 1,32,33
 260 288 260 288 249 293 c 0,34,35
 209 308 209 308 154 309.5 c 128,-1,36
 99 311 99 311 55 298 c 0,37,38
 45 296 45 296 42 294 c 1,39,-1
 41 294 l 1,40,-1
 40 293 l 1,41,-1
 39 292 l 1,42,-1
 38 292 l 1,43,-1
 36 291 l 1,44,-1
 34 290 l 1,45,-1
 34 289 l 2,46,47
 34 288 34 288 33.5 287 c 128,-1,48
 33 286 33 286 33 285 c 2,49,-1
 33 28 l 2,50,51
 33 22 33 22 24 8 c 1,52,53
 8 -13 8 -13 1 -18 c 0,54,55
 -2 -21 -2 -21 -12.5 -27 c 128,-1,56
 -23 -33 -23 -33 -29 -33 c 0,57,58
 -33 -33 -33 -33 -33 -28 c 2,59,-1
 -33 283 l 1,60,-1
 -60 310 l 2,61,62
 -65 315 -65 315 -58 326 c 0,63,64
 -42 355 -42 355 -13 371 c 1,65,66
 -2 379 -2 379 3 374 c 2,67,-1
 30 347 l 2,68,69
 33 344 33 344 33 342 c 2,70,-1
 33 328 l 1,71,72
 41 334 41 334 57 344 c 0,73,74
 103 371 103 371 180 375 c 0,75,76
 243 378 243 378 296 363.5 c 128,-1,77
 349 349 349 349 367 312 c 0,78,79
 375 296 375 296 375 285 c 0,80,81
 375 270 375 270 352 247 c 0,82,83
 340 234 340 234 326 227 c 0,84,85
 318 223 318 223 314 223 c 0,86,87
 288 223 288 223 256 218 c 0,88,89
 253 217 253 217 233.5 213 c 128,-1,90
 214 209 214 209 203 205 c 1,91,92
 186 201 186 201 170 191 c 1,93,-1
 169 190 l 1,94,-1
 168 189 l 1,95,96
 153 151 153 151 170 101 c 1,97,98
 188 57 188 57 228 41 c 0,99,100
 250 33 250 33 264 33 c 0,0,1
EndSplineSet
EndChar

StartChar: four
Encoding: 52 52 19
Width: 471
GlyphClass: 2
Flags: W
HStem: 309 66<-8.58984 277>
LayerCount: 2
Fore
SplineSet
-28 309 m 2,0,1
 -42 309 -42 309 -18 343 c 0,2,3
 -13 350 -13 350 8 366 c 1,4,5
 22 375 22 375 28 375 c 2,6,-1
 370 375 l 2,7,8
 374 375 374 375 375 372 c 128,-1,9
 376 369 376 369 373.5 363.5 c 128,-1,10
 371 358 371 358 369.5 355.5 c 128,-1,11
 368 353 368 353 366 350 c 0,12,13
 356 336 356 336 341.5 323 c 128,-1,14
 327 310 327 310 307.5 295.5 c 128,-1,15
 288 281 288 281 279 273 c 0,16,17
 145 147 145 147 203 32 c 0,18,19
 206 26 206 26 200 16 c 0,20,21
 184 -13 184 -13 155 -29 c 0,22,23
 141 -36 141 -36 139 -32 c 0,24,25
 74 98 74 98 239 271 c 0,26,27
 257 291 257 291 277 309 c 1,28,-1
 -28 309 l 2,0,1
EndSplineSet
EndChar

StartChar: five
Encoding: 53 53 20
Width: 470
GlyphClass: 2
Flags: W
VStem: -33 66<284.838 350.59> 138 66<-8.58984 138> 145 77<212.125 282.997> 308 66<229.438 285.951>
LayerCount: 2
Fore
SplineSet
-33 314 m 0,0,1
 -33 320 -33 320 -24 334 c 1,2,3
 -8 355 -8 355 -1 360 c 0,4,5
 32 380 32 380 33 370 c 1,6,7
 33 343 33 343 46 306 c 0,8,9
 70 241 70 241 130 216 c 0,10,11
 140 212 140 212 145 211 c 1,12,13
 157 296 157 296 218 346 c 0,14,15
 282 399 282 399 337 361 c 0,16,17
 369 339 369 339 374 294 c 0,18,19
 377 268 377 268 362 244 c 0,20,21
 342 214 342 214 315 191 c 0,22,23
 268 152 268 152 204 142 c 1,24,-1
 204 28 l 2,25,26
 204 22 204 22 195 8 c 1,27,28
 179 -13 179 -13 172 -18 c 0,29,30
 139 -38 139 -38 138 -28 c 1,31,-1
 138 138 l 1,32,33
 -1 144 -1 144 -30 282 c 0,34,35
 -33 297 -33 297 -33 314 c 0,0,1
223 309 m 1,36,37
 222 308 222 308 222 307 c 0,38,39
 222 305 222 305 222 304 c 0,40,41
 208 270 208 270 205 204 c 1,42,43
 250 204 250 204 287 215 c 0,44,45
 297 218 297 218 300 219 c 1,46,-1
 301 220 l 1,47,-1
 302 220 l 1,48,-1
 303 220 l 1,49,-1
 304 221 l 2,50,51
 304 222 304 222 306 222 c 128,-1,52
 308 222 308 222 308 223 c 2,53,-1
 308 224 l 1,54,55
 310 239 310 239 303 259 c 1,56,57
 280 313 280 313 224 309 c 1,58,-1
 223 309 l 1,36,37
EndSplineSet
EndChar

StartChar: six
Encoding: 54 54 21
Width: 472
GlyphClass: 2
Flags: W
HStem: 309 66<106.162 228.562>
LayerCount: 2
Fore
SplineSet
199 375 m 0,0,1
 212 375 212 375 218 374 c 0,2,3
 309 361 309 361 349 299 c 0,4,5
 373 262 373 262 376 213 c 128,-1,6
 379 164 379 164 362 122 c 0,7,8
 344 75 344 75 305.5 38.5 c 128,-1,9
 267 2 267 2 219 -17 c 0,10,11
 151 -44 151 -44 88 -24 c 0,12,13
 44 -10 44 -10 16 16 c 0,14,15
 -24 53 -24 53 -32.5 116 c 128,-1,16
 -41 179 -41 179 -12 237 c 0,17,18
 21 303 21 303 90 344 c 0,19,20
 142 375 142 375 199 375 c 0,0,1
270 49 m 2,21,22
 271 50 271 50 279 54.5 c 128,-1,23
 287 59 287 59 290 62 c 1,24,-1
 290 63 l 1,25,26
 291 65 291 65 292 66 c 0,27,28
 300 82 300 82 306 106 c 1,29,30
 315 159 315 159 298 209 c 1,31,32
 274 270 274 270 211 295 c 0,33,34
 174 309 174 309 143 309 c 0,35,36
 119 309 119 309 74 294 c 1,37,-1
 73 294 l 1,38,-1
 72 293 l 2,39,40
 71 292 71 292 66 289.5 c 128,-1,41
 61 287 61 287 59 285 c 0,42,43
 58 284 58 284 56 283 c 128,-1,44
 54 282 54 282 53 281 c 2,45,-1
 52 279 l 2,46,47
 53 280 53 280 53 281 c 2,48,-1
 52 279 l 2,49,50
 51 277 51 277 50 276 c 0,51,52
 42 260 42 260 36 236 c 1,53,54
 27 183 27 183 44 133 c 1,55,56
 75 54 75 54 163 38 c 0,57,58
 193 33 193 33 199 33 c 0,59,60
 223 33 223 33 268 48 c 1,61,-1
 269 48 l 1,62,-1
 270 49 l 2,21,22
EndSplineSet
EndChar

StartChar: seven
Encoding: 55 55 22
Width: 471
GlyphClass: 2
Flags: W
HStem: 308 67<87.5176 249.399>
VStem: -33 88<24.748 117.998> -33 66<-8.58984 96.9056 127 266.325> 309 66<-8.58984 57.5632 171 256.344>
LayerCount: 2
Fore
SplineSet
59 115 m 1,0,-1
 59 116 l 1,1,-1
 59 115 l 1,0,-1
63 118 m 1,2,3
 59 118 59 118 55 110 c 1,4,-1
 55 109 l 1,5,6
 54 108 54 108 52.5 104 c 128,-1,7
 51 100 51 100 50 99 c 0,8,9
 50 98 50 98 49.5 98 c 128,-1,10
 49 98 49 98 49 97 c 0,11,12
 48 94 48 94 45.5 88.5 c 128,-1,13
 43 83 43 83 42 80 c 0,14,15
 33 56 33 56 33 28 c 0,16,17
 33 22 33 22 24 8 c 1,18,19
 8 -13 8 -13 1 -18 c 1,20,21
 -16 -34 -16 -34 -29 -33 c 0,22,23
 -33 -33 -33 -33 -33 -28 c 2,24,-1
 -33 196 l 2,25,26
 -33 246 -33 246 10 293 c 0,27,28
 65 353 65 353 128 368 c 0,29,30
 157 375 157 375 204 375 c 0,31,32
 308 375 308 375 351 318 c 0,33,34
 375 285 375 285 375 247 c 2,35,-1
 375 28 l 2,36,37
 375 22 375 22 366 8 c 1,38,39
 350 -13 350 -13 343 -18 c 0,40,41
 310 -38 310 -38 309 -28 c 1,42,43
 309 -2 309 -2 296 37 c 1,44,45
 272 100 272 100 213 126 c 1,46,47
 141 153 141 153 76 126 c 1,48,-1
 75 125 l 2,49,50
 74 124 74 124 73 124 c 0,51,52
 71 123 71 123 68 121 c 128,-1,53
 65 119 65 119 63 118 c 1,2,3
52 293 m 2,54,55
 51 292 51 292 47 290.5 c 128,-1,56
 43 289 43 289 41 287 c 0,57,58
 33 271 33 271 33 247 c 2,59,-1
 33 127 l 1,60,61
 90 187 90 187 151 199 c 0,62,63
 223 214 223 214 279 189 c 0,64,65
 296 182 296 182 309 171 c 1,66,67
 309 211 309 211 304 226 c 0,68,69
 277 298 277 298 170 308 c 0,70,71
 112 313 112 313 86 304 c 1,72,73
 74 301 74 301 58 296 c 1,74,-1
 57 295 l 2,75,76
 56 294 56 294 55 294 c 0,77,-1
 54 294 l 1,78,-1
 52 293 l 2,54,55
EndSplineSet
EndChar

StartChar: eight
Encoding: 56 56 23
Width: 472
GlyphClass: 2
Flags: W
HStem: 79 68<34 188.525>
VStem: -32 66<-7.78516 79 147 284> 310 66<103 350.532>
LayerCount: 2
Fore
SplineSet
34 29 m 2,0,1
 34 22 34 22 25 8 c 1,2,3
 13 -8 13 -8 1 -17 c 0,4,5
 -23 -33 -23 -33 -26 -33 c 0,6,7
 -32 -34 -32 -34 -32 -28 c 2,8,-1
 -32 284 l 1,9,-1
 -60 311 l 2,10,11
 -65 316 -65 316 -57 327 c 1,12,13
 -41 356 -41 356 -12 372 c 0,14,15
 -1 379 -1 379 4 374 c 0,16,17
 7 371 7 371 12.5 366 c 128,-1,18
 18 361 18 361 21 358 c 2,19,-1
 31 348 l 2,20,21
 34 345 34 345 34 342 c 2,22,-1
 34 147 l 1,23,24
 52 147 52 147 88 145 c 0,25,26
 228 136 228 136 310 103 c 1,27,-1
 310 314 l 2,28,29
 310 322 310 322 318 334 c 0,30,31
 330 350 330 350 342 359 c 0,32,33
 369 377 369 377 373 375 c 0,34,35
 376 374 376 374 376 370 c 2,36,-1
 376 28 l 2,37,38
 376 22 376 22 367 8 c 1,39,40
 353 -11 353 -11 343 -18 c 0,41,42
 316 -36 316 -36 312 -33 c 0,43,44
 310 -31 310 -31 310 -28 c 2,45,-1
 307 -13 l 1,46,47
 295 19 295 19 239 42 c 1,48,49
 163 70 163 70 34 79 c 1,50,-1
 34 29 l 2,0,1
EndSplineSet
EndChar

StartChar: nine
Encoding: 57 57 24
Width: 557
GlyphClass: 2
Flags: W
HStem: -33 66<33 256.57>
VStem: -33 66<33 283> 97 65<226.271 290.395> 264 67<41.5527 106.184> 394 67<-8.40332 274.953>
LayerCount: 2
Fore
SplineSet
226 33 m 2,0,1
 244 33 244 33 264 37 c 0,2,3
 264 38 264 38 264.5 38 c 128,-1,4
 265 38 265 38 265 39 c 0,5,6
 273 81 273 81 252 107 c 128,-1,7
 231 133 231 133 192 137 c 0,8,9
 108 144 108 144 97 211 c 0,10,11
 92 244 92 244 107 271 c 0,12,13
 140 330 140 330 212.5 359 c 128,-1,14
 285 388 285 388 371 367 c 0,15,16
 430 352 430 352 449 324 c 0,17,18
 461 305 461 305 461 277 c 2,19,-1
 461 28 l 2,20,21
 461 22 461 22 452 8 c 1,22,23
 438 -11 438 -11 428 -18 c 0,24,25
 395 -38 395 -38 394 -28 c 1,26,-1
 394 201 l 2,27,28
 394 240 394 240 392 247 c 0,29,30
 374 292 374 292 303 303 c 1,31,32
 225 318 225 318 163 293 c 1,33,-1
 162 293 l 1,34,35
 158 264 158 264 171.5 242 c 128,-1,36
 185 220 185 220 208 211 c 0,37,38
 227 204 227 204 243 204 c 0,39,40
 266 204 266 204 292 190 c 0,41,42
 324 173 324 173 331 132.5 c 128,-1,43
 338 92 338 92 320 60 c 1,44,45
 289 -2 289 -2 225 -26 c 0,46,47
 207 -33 207 -33 183 -33 c 2,48,-1
 -28 -33 l 2,49,50
 -33 -33 -33 -33 -33 -28 c 2,51,-1
 -33 283 l 1,52,-1
 -60 310 l 2,53,54
 -65 315 -65 315 -58 326 c 0,55,56
 -42 355 -42 355 -13 371 c 1,57,58
 -2 379 -2 379 3 374 c 2,59,-1
 30 347 l 2,60,61
 33 344 33 344 33 342 c 2,62,-1
 33 33 l 1,63,-1
 226 33 l 2,0,1
EndSplineSet
EndChar

StartChar: question
Encoding: 63 63 27
Width: 460
GlyphClass: 2
Flags: W
HStem: -375 66<302.032 350.59> -298 1<301.031 304> 207 21G<111.5 125> 297 1<38 40.9688> 309 66<-8.58984 39.968>
VStem: 138 66<-209.873 209.873>
LayerCount: 2
Fore
SplineSet
370 -309 m 0,0,1
 384 -309 384 -309 360 -343 c 0,2,3
 355 -350 355 -350 334 -366 c 1,4,5
 320 -375 320 -375 314 -375 c 0,6,7
 288 -375 288 -375 268 -371 c 0,8,9
 216 -360 216 -360 182 -320 c 0,10,11
 155 -287 155 -287 145 -249 c 0,12,13
 140 -229 140 -229 138 -202 c 1,14,15
 138 -202 138 -202 138 -167 c 2,16,17
 138 -167 138 -167 138 -27 c 2,18,19
 138 -27 138 -27 138 130 c 0,20,21
 138 175 138 175 124 211 c 1,22,23
 124 210 124 210 124.5 209 c 128,-1,24
 125 208 125 208 125 207 c 1,25,26
 98 275 98 275 38 298 c 1,27,-1
 39 298 l 1,28,29
 40 297 40 297 41 297 c 1,30,31
 8 309 8 309 -28 309 c 0,32,33
 -42 309 -42 309 -18 343 c 0,34,35
 -13 350 -13 350 8 366 c 1,36,37
 22 375 22 375 28 375 c 0,38,39
 54 375 54 375 74 371 c 0,40,41
 126 360 126 360 160 320 c 0,42,43
 187 287 187 287 197 249 c 0,44,45
 202 229 202 229 204 202 c 1,46,-1
 204 167 l 2,47,48
 204 144 204 144 203 97 c 128,-1,49
 202 50 202 50 202 27 c 0,50,51
 202 1 202 1 203 -51.5 c 128,-1,52
 204 -104 204 -104 204 -130 c 0,53,54
 204 -175 204 -175 218 -211 c 1,55,56
 218 -210 218 -210 217.5 -209 c 128,-1,57
 217 -208 217 -208 217 -207 c 1,58,59
 244 -275 244 -275 304 -298 c 1,60,-1
 303 -298 l 1,61,62
 302 -297 302 -297 301 -297 c 1,63,64
 334 -309 334 -309 370 -309 c 0,0,1
EndSplineSet
EndChar

StartChar: C
Encoding: 67 67 29
Width: 813
GlyphClass: 2
Flags: W
HStem: 272 20G<44 44> 289 21G<44 46> 818 69<402.406 461.027>
VStem: -33 66<-8.58984 283> 309 66<72.5161 118.937 157 256.211 353 790.14> 651 65<58.9302 77.626>
LayerCount: 2
Fore
SplineSet
33 28 m 2,0,1
 33 22 33 22 24 8 c 1,2,3
 8 -13 8 -13 1 -18 c 0,4,5
 -32 -38 -32 -38 -33 -28 c 1,6,7
 -33 -28 -33 -28 -33 -9 c 2,8,9
 -33 164 l 2,10,-1
 -33 199 l 1,11,-1
 -33 200 l 1,12,-1
 -33 283 l 1,13,-1
 -60 310 l 2,14,15
 -65 315 -65 315 -58 326 c 0,16,17
 -50 340 -50 340 -38 352 c 128,-1,18
 -26 364 -26 364 -13 371 c 1,19,20
 -2 379 -2 379 3 374 c 2,21,-1
 20 357 l 1,22,-1
 30 347 l 2,23,24
 33 344 33 344 33 342 c 2,25,-1
 33 322 l 1,26,-1
 33 316 l 1,27,-1
 38 320 l 1,28,29
 66 345 66 345 98 358 c 0,30,31
 121 367 121 367 161 373 c 0,32,33
 199 378 199 378 237 373 c 0,34,35
 280 368 280 368 309 353 c 1,36,-1
 309 524 l 1,37,-1
 309 672 l 2,38,39
 309 716 309 716 310 725 c 0,40,41
 314 749 314 749 318 760 c 0,42,43
 328 790 328 790 350 817 c 0,44,45
 379 854 379 854 416 872 c 0,46,47
 448 887 448 887 484 887 c 0,48,49
 498 887 498 887 474 853 c 0,50,51
 469 846 469 846 448 830 c 1,52,53
 434 821 434 821 428 821 c 0,54,55
 419 821 419 821 403 819 c 0,56,57
 397 818 397 818 387 814 c 1,58,-1
 386 813 l 1,59,-1
 385 811 l 1,60,-1
 384 811 l 1,61,62
 384 810 384 810 383 807.5 c 128,-1,63
 382 805 382 805 382 804 c 0,64,65
 377 792 377 792 376 781 c 0,66,67
 376 779 376 779 375.5 775.5 c 128,-1,68
 375 772 375 772 375 770 c 2,69,-1
 375 709 l 1,70,-1
 375 548 l 1,71,-1
 375 351 l 1,72,-1
 375 254 l 1,73,-1
 375 184 l 1,74,-1
 375 157 l 1,75,-1
 382 162 l 2,76,77
 427 195 427 195 500 202 c 0,78,79
 541 206 541 206 570 203 c 0,80,81
 622 198 622 198 657 184 c 0,82,83
 708 165 708 165 716 126 c 1,84,85
 719 106 719 106 712 90 c 0,86,87
 688 35 688 35 627 -2 c 0,88,89
 581 -29 581 -29 504 -33 c 0,90,91
 419 -37 419 -37 367 -13 c 0,92,93
 330 4 330 4 317 30 c 0,94,95
 309 46 309 46 309 57 c 2,96,-1
 309 58 l 1,97,-1
 309 59 l 1,98,-1
 309 60 l 1,99,-1
 309 140 l 1,100,-1
 309 151 l 1,101,-1
 309 180 l 1,102,-1
 309 200 l 2,103,104
 309 214 309 214 302 230 c 0,105,106
 283 276 283 276 230 296 c 0,107,108
 207 304 207 304 170 308 c 1,109,110
 131 311 131 311 93 305 c 0,111,112
 91 304 91 304 87.5 303 c 128,-1,113
 84 302 84 302 82 302 c 0,114,115
 64 298 64 298 55 294 c 1,116,-1
 54 293 l 2,117,118
 53 292 53 292 51.5 292 c 128,-1,119
 50 292 50 292 49 291 c 128,-1,120
 48 290 48 290 46.5 289 c 128,-1,121
 45 288 45 288 44 288 c 2,122,-1
 43 288 l 1,123,-1
 42 286 l 1,124,-1
 39 280 l 2,125,126
 34 270 34 270 33 259 c 1,127,-1
 33 258 l 1,128,-1
 33 257 l 1,129,-1
 33 256 l 1,130,-1
 33 150 l 1,131,-1
 33 28 l 2,0,1
388 814 m 0,132,-1
388 818 m 1,133,-1
 389 818 l 1,134,-1
 388 818 l 1,133,-1
650 52 m 1,135,136
 651 54 651 54 651 58 c 0,137,138
 651 66 651 66 647 78 c 1,139,140
 635 105 635 105 593 120 c 2,141,-1
 584 123 l 1,142,143
 505 147 505 147 422 133 c 0,144,145
 418 132 418 132 409.5 130 c 128,-1,146
 401 128 401 128 397 127 c 0,147,148
 387 124 387 124 384 123 c 2,149,-1
 380 121 l 1,150,-1
 376 119 l 1,151,152
 375 117 375 117 375 114 c 0,153,154
 375 108 375 108 379 98 c 0,155,156
 394 64 394 64 439 48 c 0,157,158
 470 37 470 37 509 34 c 0,159,160
 560 31 560 31 604 38 c 0,161,162
 608 39 608 39 616.5 41 c 128,-1,163
 625 43 625 43 629 44 c 0,164,165
 639 46 639 46 642 48 c 2,166,-1
 646 50 l 1,167,-1
 650 52 l 1,135,136
41 286 m 2,168,169
 40 286 40 286 39 285 c 128,-1,170
 38 284 38 284 37 283 c 2,171,-1
 41 286 l 2,168,169
44 289 m 1,172,-1
 44 290 l 1,173,-1
 46 292 l 1,174,-1
 44 289 l 1,172,-1
EndSplineSet
EndChar

StartChar: F
Encoding: 70 70 31
Width: 0
GlyphClass: 2
Flags: W
HStem: -60 121
VStem: -61 121
LayerCount: 2
Fore
SplineSet
-61 -3 m 0,0,1
 -64 0 -64 0 -32 32 c 128,-1,2
 0 64 0 64 3 61 c 0,3,4
 13 52 13 52 31.5 32 c 128,-1,5
 50 12 50 12 60 3 c 0,6,7
 63 0 63 0 31.5 -31.5 c 128,-1,8
 0 -63 0 -63 -3 -60 c 0,9,10
 -12 -50 -12 -50 -32 -31.5 c 128,-1,11
 -52 -13 -52 -13 -61 -3 c 0,0,1
EndSplineSet
EndChar

StartChar: G
Encoding: 71 71 32
Width: 813
GlyphClass: 2
Flags: W
HStem: -33 66<627.052 692.59> 138 66<375 480 555 648> 308 67<88.7483 251.021>
VStem: -33 66<-8.58984 281.969 282 283> 309 66<-8.58984 138 204 255.963> 480 75<96.8447 138> 480 66<205 296.41>
LayerCount: 2
Fore
SplineSet
712 33 m 0,0,1
 726 33 726 33 702 -1 c 0,2,3
 697 -8 697 -8 676 -24 c 1,4,5
 662 -33 662 -33 656 -33 c 0,6,7
 616 -33 616 -33 570 -12 c 0,8,9
 527 8 527 8 505 44 c 0,10,11
 492 65 492 65 485 96 c 0,12,13
 480 119 480 119 480 138 c 1,14,15
 480 138 480 138 437 138 c 2,16,17
 375 138 l 1,18,-1
 375 28 l 2,19,20
 375 22 375 22 366 8 c 1,21,22
 350 -13 350 -13 343 -18 c 0,23,24
 310 -38 310 -38 309 -28 c 1,25,26
 309 -17 l 2,27,-1
 309 142 l 1,28,29
 309 145 l 2,30,-1
 309 156 l 2,31,32
 309 210 309 210 304 226 c 0,33,34
 287 272 287 272 234 294 c 0,35,36
 206 305 206 305 170 308 c 0,37,38
 136 311 136 311 98 306 c 0,39,40
 96 306 96 306 90 304 c 128,-1,41
 84 302 84 302 82 302 c 0,42,43
 63 297 63 297 57 295 c 0,44,45
 56 295 56 295 56 294 c 2,46,-1
 54 293 l 2,47,48
 53 292 53 292 51.5 292 c 128,-1,49
 50 292 50 292 49 291 c 128,-1,50
 48 290 48 290 46.5 289 c 128,-1,51
 45 288 45 288 44 288 c 2,52,-1
 43 287 l 1,53,-1
 42 286 l 1,54,-1
 40 283 l 2,55,56
 40 282 l 1,57,-1
 39 280 l 2,58,59
 35 270 35 270 34 265 c 0,60,61
 34 264 34 264 33.5 261 c 128,-1,62
 33 258 33 258 33 256 c 2,63,-1
 33 150 l 1,64,-1
 33 28 l 2,65,66
 33 22 33 22 24 8 c 1,67,68
 8 -13 8 -13 1 -18 c 0,69,70
 -32 -38 -32 -38 -33 -28 c 1,71,-1
 -33 -9 l 1,72,-1
 -33 164 l 1,73,-1
 -33 199 l 1,74,-1
 -33 200 l 1,75,-1
 -33 283 l 1,76,-1
 -60 310 l 2,77,78
 -65 315 -65 315 -58 326 c 0,79,80
 -50 340 -50 340 -38 352 c 128,-1,81
 -26 364 -26 364 -13 371 c 1,82,83
 -2 379 -2 379 3 374 c 2,84,-1
 20 357 l 1,85,86
 20 357 20 357 30 347 c 0,87,88
 33 344 33 344 33 342 c 2,89,90
 33 322 l 2,91,-1
 33 316 l 1,92,93
 76 354 76 354 128 367 c 0,94,95
 161 375 161 375 204 375 c 0,96,97
 240 375 240 375 273 366 c 0,98,99
 325 352 325 352 351 318 c 0,100,101
 370 292 370 292 374 267 c 0,102,103
 375 260 375 260 375 247 c 2,104,-1
 375 204 l 1,105,-1
 480 204 l 1,106,-1
 480 228 l 2,107,108
 480 252 480 252 489 271 c 0,109,110
 508 314 508 314 542 342 c 0,111,112
 579 372 579 372 616 375 c 0,113,114
 680 380 680 380 705 331 c 0,115,116
 717 307 717 307 717 284 c 0,117,118
 715 234 715 234 691 200 c 0,119,120
 671 172 671 172 646 155 c 0,121,122
 624 140 624 140 606 138 c 1,123,124
 606 138 606 138 579 138 c 2,125,126
 579 138 579 138 555 138 c 1,127,128
 555 137 555 137 557 133 c 0,129,130
 581 72 581 72 644 47 c 0,131,132
 681 33 681 33 712 33 c 0,0,1
550 307 m 0,133,134
 550 306 550 306 549 303 c 128,-1,135
 548 300 548 300 548 298 c 0,136,137
 546 290 546 290 546 286 c 2,138,-1
 546 258 l 1,139,140
 546 258 546 258 546 205 c 1,141,142
 556 205 556 205 576 204.5 c 128,-1,143
 596 204 596 204 606 204 c 2,144,-1
 637 204 l 1,145,146
 637 204 637 204 648 204 c 1,147,148
 648 205 l 2,149,-1
 649 206 l 1,150,151
 654 233 654 233 645 259 c 1,152,153
 632 290 632 290 605 303 c 1,154,155
 584 311 584 311 558 308 c 0,156,157
 553 308 553 308 550 307 c 0,133,134
44 289 m 1,158,-1
 47 293 l 1,159,-1
 44 290 l 1,160,-1
 44 289 l 1,158,-1
41 286 m 2,161,162
 40 286 40 286 39 285 c 128,-1,163
 38 284 38 284 37 283 c 2,164,-1
 40 285 l 1,165,-1
 41 286 l 2,161,162
EndSplineSet
EndChar

StartChar: H
Encoding: 72 72 33
Width: 0
GlyphClass: 2
Flags: W
HStem: -118 66<-239.016 -114.234>
VStem: -33 66<-438.965 -160.019 -85 8.58984>
LayerCount: 2
Fore
SplineSet
-52 -480 m 1,0,1
 -52 -480 -52 -480 -45 -459 c 0,2,3
 -33 -419 -33 -419 -33 -327 c 2,4,-1
 -33 -162 l 1,5,6
 -72 -160 -72 -160 -97 -149 c 0,7,8
 -104 -146 -104 -146 -118 -138.5 c 128,-1,9
 -132 -131 -132 -131 -139 -128 c 0,10,11
 -173 -115 -173 -115 -215.5 -118 c 128,-1,12
 -258 -121 -258 -121 -281 -139 c 1,13,14
 -303 -165 -303 -165 -306.5 -210.5 c 128,-1,15
 -310 -256 -310 -256 -296 -293 c 0,16,17
 -260 -385 -260 -385 -164 -393 c 0,18,19
 -114 -397 -114 -397 -101 -403 c 0,20,21
 -81 -412 -81 -412 -67 -433 c 128,-1,22
 -53 -454 -53 -454 -52 -480 c 1,0,1
-33 -28 m 2,23,24
 -33 -22 -33 -22 -24 -8 c 1,25,26
 -8 13 -8 13 -1 18 c 0,27,28
 32 38 32 38 33 28 c 1,29,-1
 33 -95 l 1,30,31
 48 -95 48 -95 62 -92 c 1,32,33
 68 -83 68 -83 85 -68 c 0,34,35
 91 -62 91 -62 103 -55.5 c 128,-1,36
 115 -49 115 -49 119 -57 c 1,37,38
 119 -78 119 -78 97 -104 c 0,39,40
 69 -137 69 -137 33 -151 c 1,41,-1
 33 -279 l 2,42,43
 33 -400 33 -400 3 -456 c 0,44,45
 -19 -495 -19 -495 -58 -525 c 0,46,47
 -86 -546 -86 -546 -114 -546 c 0,48,49
 -119 -546 -119 -546 -119 -541 c 0,50,51
 -119 -488 -119 -488 -164 -467 c 1,52,53
 -178 -462 -178 -462 -207.5 -460 c 128,-1,54
 -237 -458 -237 -458 -249 -455 c 0,55,56
 -302 -442 -302 -442 -333 -404 c 0,57,58
 -356 -375 -356 -375 -368 -332 c 0,59,60
 -386 -266 -386 -266 -353 -194 c 0,61,62
 -326 -134 -326 -134 -269 -92.5 c 128,-1,63
 -212 -51 -212 -51 -141 -52 c 0,64,65
 -104 -52 -104 -52 -74 -65 c 0,66,67
 -67 -68 -67 -68 -53.5 -75 c 128,-1,68
 -40 -82 -40 -82 -33 -85 c 1,69,-1
 -33 -28 l 2,23,24
EndSplineSet
EndChar

StartChar: J
Encoding: 74 74 35
Width: 0
GlyphClass: 2
Flags: W
HStem: -118.5 66.5<-266.816 -114.41>
VStem: -33 66<-445 -159.719 -85 8.58984>
LayerCount: 2
Fore
SplineSet
-33 -28 m 2,0,1
 -33 -22 -33 -22 -24 -8 c 1,2,3
 -8 13 -8 13 -1 18 c 0,4,5
 32 38 32 38 33 28 c 1,6,-1
 33 -95 l 1,7,8
 48 -95 48 -95 62 -92 c 1,9,10
 68 -83 68 -83 85 -68 c 0,11,12
 91 -62 91 -62 103 -55.5 c 128,-1,13
 115 -49 115 -49 119 -57 c 1,14,15
 119 -76 119 -76 97 -104 c 0,16,17
 73 -136 73 -136 33 -151 c 1,18,-1
 33 -485 l 2,19,20
 33 -492 33 -492 24 -505 c 0,21,22
 0 -538 0 -538 -23 -545 c 0,23,24
 -29 -547 -29 -547 -32 -545 c 0,25,26
 -72 -524 -72 -524 -106 -503 c 0,27,28
 -208 -441 -208 -441 -277 -375 c 0,29,30
 -324 -330 -324 -330 -346 -292 c 0,31,32
 -391 -218 -391 -218 -365 -165 c 0,33,34
 -337 -109 -337 -109 -277 -79 c 0,35,36
 -224 -52 -224 -52 -143 -52 c 0,37,38
 -107 -52 -107 -52 -75 -65 c 0,39,40
 -68 -68 -68 -68 -54 -75 c 128,-1,41
 -40 -82 -40 -82 -33 -85 c 1,42,-1
 -33 -28 l 2,0,1
-33 -445 m 1,43,-1
 -33 -162 l 1,44,45
 -67 -160 -67 -160 -96 -149 c 0,46,47
 -104 -146 -104 -146 -118 -139 c 128,-1,48
 -132 -132 -132 -132 -139 -129 c 0,49,50
 -176 -116 -176 -116 -227 -118.5 c 128,-1,51
 -278 -121 -278 -121 -308 -137 c 1,52,53
 -309 -141 -309 -141 -309 -151 c 0,54,55
 -307 -174 -307 -174 -300 -193 c 0,56,57
 -282 -242 -282 -242 -235 -290 c 1,58,59
 -164 -366 -164 -366 -33 -445 c 1,43,-1
EndSplineSet
EndChar

StartChar: M
Encoding: 77 77 36
Width: 0
GlyphClass: 2
Flags: W
HStem: -194 226
VStem: -64 96
LayerCount: 2
Fore
SplineSet
32 -130 m 0,0,1
 34 -132 34 -132 3 -164 c 1,2,3
 -30 -196 -30 -196 -32 -194 c 0,4,5
 -54 -171 -54 -171 -63 -140 c 0,6,7
 -71 -110 -71 -110 -64 -84 c 0,8,9
 -56 -52 -56 -52 -3 3 c 0,10,11
 29 35 29 35 32 32 c 0,12,13
 34 30 34 30 14 9 c 2,14,-1
 13 8 l 1,15,-1
 13 7 l 1,16,17
 13 7 13 7 11 5 c 2,18,19
 11 5 11 5 8 -1 c 0,20,21
 2 -12 2 -12 -1 -22 c 0,22,23
 -8 -50 -8 -50 1.5 -79.5 c 128,-1,24
 11 -109 11 -109 32 -130 c 0,0,1
EndSplineSet
EndChar

StartChar: N
Encoding: 78 78 37
Width: 814
GlyphClass: 2
Flags: W
HStem: 81 66<404.91 572.999> 302 73<88.7483 260.52 561.41 619.293>
VStem: -33 66<-8.58984 281.969 282 283> 309 66<-8.58984 70.9684 103 255.963> 646 72<198.202 275.166>
LayerCount: 2
Fore
SplineSet
33 28 m 2,0,1
 33 22 33 22 24 8 c 1,2,3
 8 -13 8 -13 1 -18 c 0,4,5
 -32 -38 -32 -38 -33 -28 c 1,6,7
 -33 -28 -33 -28 -33 -9 c 2,8,9
 -33 -9 -33 -9 -33 164 c 2,10,-1
 -33 199 l 1,11,-1
 -33 200 l 1,12,-1
 -33 283 l 1,13,-1
 -60 310 l 2,14,15
 -65 315 -65 315 -58 326 c 0,16,17
 -50 340 -50 340 -38 352 c 128,-1,18
 -26 364 -26 364 -13 371 c 1,19,20
 -2 379 -2 379 3 374 c 2,21,-1
 20 357 l 1,22,-1
 30 347 l 2,23,24
 33 344 33 344 33 342 c 2,25,-1
 33 322 l 1,26,-1
 33 316 l 1,27,28
 76 354 76 354 128 367 c 0,29,30
 161 375 161 375 204 375 c 0,31,32
 240 375 240 375 273 366 c 0,33,34
 325 352 325 352 351 318 c 0,35,36
 370 292 370 292 374 267 c 0,37,38
 375 260 375 260 375 247 c 2,39,-1
 375 171 l 1,40,-1
 375 103 l 1,41,42
 399 124 399 124 427 136 c 0,43,44
 453 147 453 147 493 147 c 0,45,46
 528 147 528 147 563 153 c 0,47,48
 582 156 582 156 602 162 c 0,49,50
 604 163 604 163 610 164.5 c 128,-1,51
 616 166 616 166 619 167 c 0,52,53
 620 168 620 168 622.5 169 c 128,-1,54
 625 170 625 170 626 170 c 2,55,-1
 627 170 l 1,56,57
 629 171 629 171 641 178 c 2,58,-1
 645 180 l 1,59,-1
 646 181 l 1,60,-1
 646 183 l 1,61,-1
 647 184 l 1,62,-1
 650 193 l 2,63,64
 651 196 651 196 651 203 c 0,65,66
 650 222 650 222 643 242 c 0,67,68
 626 285 626 285 589 301 c 0,69,70
 569 309 569 309 542 309 c 0,71,72
 528 309 528 309 552 343 c 0,73,74
 557 350 557 350 578 366 c 1,75,76
 592 375 592 375 598 375 c 0,77,78
 636 375 636 375 663 359 c 0,79,80
 698 338 698 338 712 290 c 0,81,82
 718 268 718 268 718 256 c 0,83,84
 718 243 718 243 711 227 c 0,85,86
 694 185 694 185 649 147 c 0,87,88
 607 111 607 111 548 95 c 0,89,90
 514 86 514 86 479 83 c 0,91,92
 453 81 453 81 438 81 c 0,93,94
 419 81 419 81 409 80 c 0,95,96
 397 78 397 78 387 74 c 1,97,-1
 386 73 l 1,98,-1
 385 71 l 1,99,-1
 384 71 l 1,100,101
 384 70 384 70 383 67.5 c 128,-1,102
 382 65 382 65 382 64 c 0,103,104
 378 52 378 52 377 46 c 0,105,106
 375 34 375 34 375 28 c 128,-1,107
 375 22 375 22 366 8 c 1,108,109
 350 -13 350 -13 343 -18 c 0,110,111
 310 -38 310 -38 309 -28 c 1,112,-1
 309 -17 l 1,113,-1
 309 156 l 2,114,115
 309 210 309 210 304 226 c 0,116,117
 287 272 287 272 234 294 c 0,118,119
 206 305 206 305 170 308 c 0,120,121
 136 311 136 311 98 306 c 0,122,123
 96 306 96 306 90 304 c 128,-1,124
 84 302 84 302 82 302 c 0,125,126
 63 297 63 297 57 295 c 0,127,128
 56 295 56 295 56 294 c 2,129,-1
 54 293 l 2,130,131
 53 292 53 292 51.5 292 c 128,-1,132
 50 292 50 292 49 291 c 128,-1,133
 48 290 48 290 46.5 289 c 128,-1,134
 45 288 45 288 44 288 c 2,135,-1
 43 287 l 1,136,-1
 42 286 l 1,137,-1
 40 283 l 2,138,139
 40 282 40 282 40 282 c 1,140,-1
 39 280 l 2,141,142
 35 270 35 270 34 265 c 0,143,144
 34 264 34 264 33.5 261 c 128,-1,145
 33 258 33 258 33 256 c 2,146,-1
 33 150 l 1,147,-1
 33 28 l 2,0,1
44 289 m 1,148,-1
 47 293 l 1,149,-1
 44 290 l 1,150,-1
 44 289 l 1,148,-1
41 286 m 2,151,152
 40 286 40 286 39 285 c 128,-1,153
 38 284 38 284 37 283 c 2,154,-1
 40 285 l 1,155,-1
 41 286 l 2,151,152
646 181 m 1,156,-1
 647 181 l 1,157,-1
 646 181 l 1,156,-1
EndSplineSet
EndChar

StartChar: Q
Encoding: 81 81 39
Width: 585
GlyphClass: 2
Flags: W
HStem: -1172 66<528.328 578.59> 74 73<61.1895 163.509 289.99 391.02>
VStem: -33 66<-8.58984 49.0959> 195 66<-8.58984 41.4192> 423 66<-1065.88 13.2693>
CounterMasks: 1 38
LayerCount: 2
Fore
SplineSet
33 28 m 2,0,1
 33 21 33 21 24 8 c 0,2,3
 8 -13 8 -13 1 -18 c 0,4,5
 -32 -38 -32 -38 -33 -28 c 1,6,7
 -33 8 -33 8 -15 42 c 0,8,9
 9 88 9 88 53 119 c 0,10,11
 90 146 90 146 135 147 c 1,12,13
 170 149 170 149 200 134.5 c 128,-1,14
 230 120 230 120 245 91 c 1,15,-1
 246 90 l 2,16,17
 246 89 246 89 246 88 c 1,18,19
 274 117 274 117 301 131 c 0,20,21
 342 151 342 151 384 147 c 0,22,23
 422 144 422 144 448 122 c 0,24,25
 469 104 469 104 478 80 c 0,26,27
 489 53 489 53 489 27 c 2,28,-1
 489 -22 l 1,29,-1
 489 -248 l 1,30,31
 489 -248 489 -248 489 -422 c 2,32,33
 489 -422 489 -422 489 -551 c 2,34,35
 489 -551 489 -551 489 -758 c 2,36,37
 489 -758 489 -758 489 -908 c 2,38,39
 489 -908 489 -908 489 -995 c 0,40,41
 489 -1017 489 -1017 497 -1039 c 0,42,43
 513 -1082 513 -1082 552 -1098 c 0,44,45
 572 -1106 572 -1106 598 -1106 c 0,46,47
 612 -1106 612 -1106 588 -1140 c 0,48,49
 583 -1147 583 -1147 562 -1163 c 1,50,51
 548 -1172 548 -1172 542 -1172 c 0,52,53
 497 -1172 497 -1172 468 -1150 c 0,54,55
 444 -1131 444 -1131 434 -1105 c 0,56,57
 423 -1078 423 -1078 423 -1052 c 2,58,59
 423 -1052 423 -1052 423 -970 c 2,60,61
 423 -970 423 -970 423 -816 c 2,62,63
 423 -816 423 -816 423 -612 c 2,64,65
 423 -612 423 -612 423 -479 c 2,66,67
 423 -479 423 -479 423 -310 c 2,68,69
 423 -310 423 -310 423 -81 c 0,70,71
 423 -9 423 -9 415 14 c 0,72,73
 399 57 399 57 360 73 c 0,74,75
 359 73 359 73 351.5 75.5 c 128,-1,76
 344 78 344 78 340 79 c 0,77,78
 322 82 322 82 299 80 c 0,79,80
 298 80 298 80 295.5 79.5 c 128,-1,81
 293 79 293 79 292 79 c 2,82,-1
 294 80 l 2,83,84
 294 79 294 79 292 79 c 128,-1,85
 290 79 290 79 287 78 c 128,-1,86
 284 77 284 77 283 77 c 128,-1,87
 282 77 282 77 279 76 c 128,-1,88
 276 75 276 75 275 75 c 128,-1,89
 274 75 274 75 272 73 c 1,90,-1
 272 72 l 1,91,-1
 271 71 l 2,92,93
 270 69 270 69 269 66 c 128,-1,94
 268 63 268 63 267 61 c 0,95,96
 265 54 265 54 263 44 c 0,97,98
 263 43 263 43 262.5 43 c 128,-1,99
 262 43 262 43 262 42 c 2,100,-1
 262 39 l 2,101,102
 262 38 262 38 261.5 36 c 128,-1,103
 261 34 261 34 261 33 c 2,104,-1
 261 28 l 2,105,106
 261 21 261 21 252 8 c 0,107,108
 236 -13 236 -13 229 -18 c 0,109,110
 196 -38 196 -38 195 -28 c 1,111,112
 195 -7 195 -7 187 14 c 0,113,114
 171 57 171 57 132 73 c 0,115,116
 131 73 131 73 123.5 75.5 c 128,-1,117
 116 78 116 78 112 79 c 0,118,119
 94 82 94 82 71 80 c 0,120,121
 70 80 70 80 67.5 79.5 c 128,-1,122
 65 79 65 79 64 79 c 2,123,-1
 66 80 l 2,124,125
 66 79 66 79 64 79 c 128,-1,126
 62 79 62 79 59 78 c 128,-1,127
 56 77 56 77 55 77 c 128,-1,128
 54 77 54 77 51 76 c 128,-1,129
 48 75 48 75 47 75 c 128,-1,130
 46 75 46 75 44 73 c 1,131,-1
 44 72 l 1,132,-1
 43 71 l 2,133,134
 42 69 42 69 41 66 c 128,-1,135
 40 63 40 63 39 61 c 0,136,137
 37 54 37 54 35 44 c 0,138,139
 35 43 35 43 34.5 43 c 128,-1,140
 34 43 34 43 34 42 c 2,141,-1
 34 39 l 2,142,143
 34 38 34 38 33.5 36 c 128,-1,144
 33 34 33 34 33 33 c 2,145,-1
 33 28 l 2,0,1
44 74 m 1,146,-1
 46 74 l 1,147,-1
 44 74 l 1,146,-1
66 80 m 0,148,-1
272 74 m 1,149,-1
 274 74 l 1,150,-1
 272 74 l 1,149,-1
294 80 m 0,151,-1
EndSplineSet
EndChar

StartChar: S
Encoding: 83 83 40
Width: 471
GlyphClass: 2
Flags: W
VStem: -33 66<101.249 119 157 282.969> 308 66<58.9302 73.718 218.203 257.125>
LayerCount: 2
Fore
SplineSet
36 125 m 1,0,-1
 37 126 l 1,1,-1
 36 125 l 1,0,-1
34 119 m 1,2,-1
 34 118 l 2,3,4
 34 117 34 117 33.5 116 c 128,-1,5
 33 115 33 115 33 114 c 0,6,7
 33 109 33 109 35 101 c 0,8,9
 48 67 48 67 93 49 c 0,10,11
 124 37 124 37 167 34 c 0,12,13
 212 31 212 31 257 37 c 1,14,15
 277 41 277 41 287 44 c 0,16,17
 297 46 297 46 300 48 c 2,18,-1
 302 49 l 1,19,-1
 303 50 l 1,20,-1
 304 50 l 1,21,-1
 308 52 l 1,22,-1
 308 53 l 1,23,24
 310 65 310 65 307 74 c 0,25,26
 296 102 296 102 254 119 c 0,27,28
 250 121 250 121 242 123 c 0,29,30
 165 146 165 146 85 134 c 0,31,32
 65 130 65 130 55 127 c 128,-1,33
 45 124 45 124 42 123 c 2,34,-1
 40 122 l 1,35,36
 40 122 40 122 39 122 c 2,37,-1
 38 121 l 1,38,-1
 34 119 l 1,2,-1
306 46 m 1,39,-1
 305 45 l 1,40,-1
 306 46 l 1,39,-1
42 288 m 1,41,-1
 41 286 l 1,42,-1
 41 285 l 2,43,44
 41 284 41 284 40 284 c 2,45,-1
 39 282 l 2,46,47
 35 273 35 273 34 266 c 0,48,49
 33 263 33 263 33 256 c 2,50,-1
 33 157 l 1,51,-1
 40 162 l 2,52,53
 85 195 85 195 158 202 c 0,54,55
 199 206 199 206 228 203 c 0,56,57
 280 198 280 198 315 184 c 0,58,59
 366 165 366 165 374 126 c 1,60,61
 377 106 377 106 370 90 c 0,62,63
 346 35 346 35 285 -2 c 0,64,65
 239 -29 239 -29 162 -33 c 0,66,67
 77 -37 77 -37 25 -13 c 0,68,69
 23 -12 23 -12 19 -9.5 c 128,-1,70
 15 -7 15 -7 13 -6 c 1,71,-1
 1 -18 l 1,72,73
 -32 -38 -32 -38 -33 -28 c 1,74,-1
 -33 -9 l 1,75,-1
 -33 57 l 1,76,-1
 -33 164 l 1,77,-1
 -33 200 l 1,78,-1
 -33 283 l 1,79,-1
 -60 310 l 2,80,81
 -65 315 -65 315 -58 326 c 0,82,83
 -50 340 -50 340 -38 352 c 128,-1,84
 -26 364 -26 364 -13 371 c 1,85,86
 -2 379 -2 379 3 374 c 2,87,88
 3 374 3 374 20 357 c 2,89,90
 20 357 20 357 30 347 c 0,91,92
 33 344 33 344 33 342 c 2,93,94
 33 342 33 342 33 322 c 2,95,-1
 33 317 l 1,96,97
 52 335 52 335 79 349 c 0,98,99
 135 378 135 378 217 375 c 1,100,101
 286 371 286 371 328 341 c 0,102,103
 356 320 356 320 369 284 c 0,104,105
 375 266 375 266 375 256 c 0,106,107
 375 250 375 250 366 236 c 1,108,109
 350 215 350 215 343 210 c 0,110,111
 310 190 310 190 309 200 c 1,112,113
 309 213 309 213 304 226 c 0,114,115
 287 272 287 272 234 294 c 0,116,117
 206 305 206 305 170 308 c 0,118,119
 129 311 129 311 97 306 c 1,120,121
 97 306 97 306 85 303 c 256,122,123
 73 300 73 300 57 295 c 1,124,125
 57 295 57 295 51 292 c 0,126,127
 50 292 50 292 48 291 c 128,-1,128
 46 290 46 290 45 290 c 128,-1,129
 44 290 44 290 44 289 c 128,-1,130
 44 288 44 288 43 288 c 2,131,-1
 42 288 l 1,41,-1
41 287 m 1,132,-1
 39 285 l 1,133,-1
 40 286 l 1,134,-1
 41 287 l 1,132,-1
EndSplineSet
EndChar

StartChar: T
Encoding: 84 84 41
Width: 813
GlyphClass: 2
Flags: W
HStem: 184 20G<160.5 195.5> 309 66<86.7891 309 428.125 589.861>
VStem: -33 66<-8.58984 282.719> 309 66<97 119 157 283.969> 651 66<-8.58984 61.2959 219.41 255.963>
CounterMasks: 1 38
LayerCount: 2
Fore
SplineSet
33 28 m 2,0,1
 33 22 33 22 24 8 c 1,2,3
 8 -13 8 -13 1 -18 c 0,4,5
 -32 -38 -32 -38 -33 -28 c 1,6,7
 -33 -28 -33 -28 -33 -9 c 2,8,9
 -33 -9 -33 -9 -33 164 c 2,10,-1
 -33 200 l 1,11,-1
 -33 201 l 1,12,-1
 -33 283 l 1,13,-1
 -60 310 l 2,14,15
 -65 315 -65 315 -58 326 c 0,16,17
 -50 340 -50 340 -38 352 c 128,-1,18
 -26 364 -26 364 -13 371 c 1,19,20
 -2 379 -2 379 3 374 c 2,21,-1
 20 357 l 1,22,-1
 30 347 l 2,23,24
 33 344 33 344 33 342 c 2,25,-1
 33 322 l 1,26,-1
 33 317 l 1,27,28
 78 357 78 357 133 369 c 0,29,30
 162 375 162 375 221 375 c 2,31,-1
 370 375 l 2,32,33
 375 375 375 375 375 370 c 2,34,-1
 375 328 l 1,35,-1
 375 317 l 1,36,37
 394 335 394 335 421 349 c 0,38,39
 477 378 477 378 559 375 c 1,40,41
 628 371 628 371 670 341 c 0,42,43
 698 320 698 320 711 284 c 0,44,45
 717 266 717 266 717 256 c 0,46,47
 717 250 717 250 708 236 c 1,48,49
 692 215 692 215 685 210 c 0,50,51
 652 190 652 190 651 200 c 1,52,53
 651 213 651 213 646 226 c 0,54,55
 629 272 629 272 576 294 c 0,56,57
 548 305 548 305 512 308 c 0,58,59
 471 311 471 311 439 306 c 1,60,-1
 427 303 l 2,61,62
 415 300 415 300 399 295 c 1,63,-1
 393 292 l 2,64,65
 392 292 392 292 390 291 c 128,-1,66
 388 290 388 290 387 290 c 128,-1,67
 386 290 386 290 386 289 c 128,-1,68
 386 288 386 288 385 288 c 2,69,-1
 384 287 l 1,70,-1
 383 286 l 1,71,-1
 383 285 l 2,72,73
 383 284 383 284 382 284 c 2,74,-1
 381 282 l 2,75,76
 377 273 377 273 376 266 c 0,77,78
 375 263 375 263 375 256 c 2,79,-1
 375 157 l 1,80,81
 398 176 398 176 425 186 c 1,82,83
 448 196 448 196 486 201 c 0,84,85
 529 207 529 207 556 203 c 1,86,87
 585 200 585 200 618 187 c 0,88,89
 662 169 662 169 685 137 c 0,90,91
 717 94 717 94 717 28 c 0,92,93
 717 22 717 22 708 8 c 1,94,95
 692 -13 692 -13 685 -18 c 0,96,97
 652 -38 652 -38 651 -28 c 1,98,99
 651 5 651 5 640 38 c 1,100,101
 616 99 616 99 553 124 c 0,102,103
 501 144 501 144 427 134 c 1,104,105
 407 130 407 130 397 127 c 128,-1,106
 387 124 387 124 384 123 c 2,107,-1
 382 122 l 1,108,-1
 381 122 l 1,109,-1
 380 121 l 1,110,-1
 376 119 l 1,111,-1
 376 118 l 2,112,113
 376 117 376 117 375.5 116 c 128,-1,114
 375 115 375 115 375 114 c 2,115,-1
 375 28 l 2,116,117
 375 22 375 22 366 8 c 1,118,119
 350 -13 350 -13 343 -18 c 1,120,121
 332 -28 332 -28 319 -32 c 0,122,123
 313 -34 313 -34 310 -32 c 0,124,125
 298 -20 298 -20 274 4.5 c 128,-1,126
 250 29 250 29 238 41 c 1,127,-1
 234 44 l 1,128,-1
 199 9 l 1,129,-1
 181 -9 l 2,130,131
 172 -18 172 -18 163 -24 c 0,132,133
 150 -33 150 -33 143 -33 c 2,134,-1
 141 -33 l 2,135,136
 140 -33 140 -33 137 -32.5 c 128,-1,137
 134 -32 134 -32 132 -32 c 0,138,139
 85 -25 85 -25 66 6 c 0,140,141
 50 33 50 33 53 66 c 0,142,143
 56 105 56 105 85 141 c 0,144,145
 131 197 131 197 190 204 c 1,146,147
 201 204 201 204 203 202 c 2,148,-1
 216 189 l 1,149,-1
 275 130 l 1,150,-1
 309 97 l 1,151,-1
 309 198 l 1,152,-1
 309 200 l 1,153,-1
 309 309 l 1,154,-1
 264 309 l 1,155,-1
 170 309 l 2,156,157
 120 309 120 309 96 306 c 0,158,159
 94 306 94 306 91 305 c 128,-1,160
 88 304 88 304 86 304 c 0,161,162
 74 301 74 301 58 296 c 1,163,-1
 55 294 l 2,164,165
 54 294 54 294 54 294 c 1,166,-1
 52 293 l 2,167,168
 50 292 50 292 47 290.5 c 128,-1,169
 44 289 44 289 42 288 c 0,170,171
 42 287 42 287 41 285.5 c 128,-1,172
 40 284 40 284 39 283 c 0,173,174
 35 274 35 274 34 267 c 0,175,176
 33 263 33 263 33 256 c 2,177,-1
 33 150 l 1,178,-1
 33 28 l 2,0,1
378 125 m 1,179,-1
 379 126 l 1,180,-1
 378 125 l 1,179,-1
383 287 m 1,181,-1
 381 285 l 1,182,-1
 382 286 l 1,183,-1
 383 287 l 1,181,-1
39 286 m 1,184,-1
 37 284 l 1,185,-1
 39 286 l 1,184,-1
186 34 m 1,186,-1
 215 63 l 1,187,-1
 141 138 l 2,188,189
 140 138 140 138 138 137.5 c 128,-1,190
 136 137 136 137 135 137 c 0,191,192
 132 136 132 136 128 135 c 128,-1,193
 124 134 124 134 121 134 c 1,194,-1
 120 133 l 1,195,-1
 120 132 l 1,196,197
 115 107 115 107 123 83 c 1,198,199
 135 53 135 53 165 40 c 0,200,201
 176 36 176 36 186 34 c 1,186,-1
112 131 m 0,202,203
EndSplineSet
EndChar

StartChar: X
Encoding: 88 88 43
Width: 471
GlyphClass: 2
Flags: W
HStem: -33 66<285.052 350.59> 138 66<33 138 213 306>
VStem: -33 66<-8.58984 138 204 283> 138 75<96.8447 138> 138 66<205 296.41>
LayerCount: 2
Fore
SplineSet
33 28 m 2,0,1
 33 22 33 22 24 8 c 1,2,3
 8 -13 8 -13 1 -18 c 0,4,5
 -32 -38 -32 -38 -33 -28 c 1,6,7
 -33 -9 l 2,8,-1
 -33 142 l 1,9,10
 -33 145 l 2,11,-1
 -33 164 l 1,12,-1
 -33 283 l 1,13,-1
 -60 310 l 2,14,15
 -65 315 -65 315 -58 326 c 0,16,17
 -50 340 -50 340 -38 352 c 128,-1,18
 -26 364 -26 364 -13 371 c 1,19,20
 -2 379 -2 379 3 374 c 2,21,-1
 20 357 l 1,22,-1
 30 347 l 2,23,24
 33 344 33 344 33 342 c 2,25,-1
 33 322 l 1,26,-1
 33 204 l 1,27,-1
 138 204 l 1,28,-1
 138 228 l 2,29,30
 138 252 138 252 147 271 c 0,31,32
 166 314 166 314 200 342 c 0,33,34
 237 372 237 372 274 375 c 0,35,36
 338 380 338 380 363 331 c 0,37,38
 375 307 375 307 375 284 c 0,39,40
 373 234 373 234 349 200 c 0,41,42
 329 172 329 172 304 155 c 0,43,44
 282 140 282 140 264 138 c 1,45,-1
 237 138 l 1,46,-1
 213 138 l 1,47,48
 213 137 213 137 215 133 c 0,49,50
 239 72 239 72 302 47 c 0,51,52
 339 33 339 33 370 33 c 0,53,54
 384 33 384 33 360 -1 c 0,55,56
 355 -8 355 -8 334 -24 c 1,57,58
 320 -33 320 -33 314 -33 c 0,59,60
 274 -33 274 -33 228 -12 c 0,61,62
 185 8 185 8 163 44 c 0,63,64
 150 65 150 65 143 96 c 0,65,66
 138 119 138 119 138 138 c 1,67,-1
 95 138 l 1,68,-1
 33 138 l 1,69,-1
 33 28 l 2,0,1
208 307 m 0,70,71
 208 306 208 306 207 303 c 128,-1,72
 206 300 206 300 206 298 c 0,73,74
 204 290 204 290 204 286 c 2,75,-1
 204 258 l 1,76,-1
 204 205 l 1,77,78
 214 205 214 205 234 204.5 c 128,-1,79
 254 204 254 204 264 204 c 2,80,-1
 295 204 l 1,81,-1
 306 204 l 1,82,-1
 306 205 l 1,83,-1
 307 206 l 1,84,85
 312 233 312 233 303 259 c 1,86,87
 290 290 290 290 263 303 c 1,88,89
 242 311 242 311 216 308 c 0,90,91
 211 308 211 308 208 307 c 0,70,71
EndSplineSet
EndChar

StartChar: Y
Encoding: 89 89 44
Width: 0
GlyphClass: 2
Flags: W
HStem: -290 66<-309 -114.052> -119 66<-267.88 -43.7778>
VStem: -375 66<-224 -143.065> -36 69<-471.948 -361.75 -41.2969 5.02734>
LayerCount: 2
Fore
SplineSet
-33 -28 m 128,-1,1
 -33 -22 -33 -22 -24 -8 c 1,2,3
 -8 13 -8 13 -1 18 c 0,4,5
 32 38 32 38 33 28 c 1,6,7
 33 28 33 28 33 19 c 1,8,9
 26 -42 26 -42 -31 -87 c 1,10,11
 -68 -118 -68 -118 -107 -119 c 1,12,13
 -107 -119 -107 -119 -176 -119 c 0,14,15
 -229 -119 -229 -119 -255 -123 c 0,16,17
 -269 -126 -269 -126 -289 -131 c 0,18,19
 -295 -133 -295 -133 -305 -137 c 1,20,21
 -308 -137 -308 -137 -309 -138 c 1,22,23
 -309 -138 -309 -138 -309 -151 c 2,24,25
 -309 -151 -309 -151 -309 -180 c 2,26,-1
 -309 -224 l 1,27,-1
 -264 -224 l 1,28,29
 -264 -224 -264 -224 -176 -224 c 0,30,31
 -171 -224 -171 -224 -158.5 -223 c 128,-1,32
 -146 -222 -146 -222 -139 -223 c 0,33,34
 -115 -224 -115 -224 -91 -232 c 0,35,36
 -44 -246 -44 -246 -19 -269 c 0,37,38
 19 -303 19 -303 29 -358 c 0,39,40
 35 -394 35 -394 32 -413 c 0,41,42
 29 -434 29 -434 14 -465 c 0,43,44
 -7 -509 -7 -509 -50 -565 c 0,45,46
 -113 -646 -113 -646 -161 -694 c 0,47,48
 -171 -704 -171 -704 -187 -713 c 1,49,50
 -198 -721 -198 -721 -203 -716 c 128,-1,51
 -208 -711 -208 -711 -200 -700 c 1,52,53
 -191 -684 -191 -684 -181 -674 c 0,54,55
 -178 -671 -178 -671 -172 -665.5 c 128,-1,56
 -166 -660 -166 -660 -163 -657 c 2,57,-1
 -161 -654 l 1,58,-1
 -160 -653 l 1,59,-1
 -157 -650 l 2,60,61
 -156 -649 -156 -649 -155 -647.5 c 128,-1,62
 -154 -646 -154 -646 -153 -645 c 128,-1,63
 -152 -644 -152 -644 -131 -620 c 2,64,-1
 -99 -582 l 2,65,66
 -98 -582 -98 -582 -98 -581 c 128,-1,67
 -98 -580 -98 -580 -97 -579 c 128,-1,68
 -96 -578 -96 -578 -95 -576 c 128,-1,69
 -94 -574 -94 -574 -93 -573 c 0,70,71
 -92 -571 -92 -571 -89 -567.5 c 128,-1,72
 -86 -564 -86 -564 -84 -562 c 0,73,74
 -74 -549 -74 -549 -68 -539 c 2,75,-1
 -63 -532 l 1,76,-1
 -63 -531 l 1,77,78
 -62 -530 -62 -530 -62 -530 c 1,79,80
 -62 -528 -62 -528 -61 -528 c 2,81,-1
 -58 -522 l 2,82,83
 -57 -520 -57 -520 -52 -512.5 c 128,-1,84
 -47 -505 -47 -505 -45 -500 c 2,85,-1
 -44 -497 l 2,86,87
 -44 -496 -44 -496 -44 -496 c 1,88,-1
 -43 -494 l 2,89,90
 -42 -492 -42 -492 -41 -489 c 128,-1,91
 -40 -486 -40 -486 -39 -484 c 0,92,93
 -35 -474 -35 -474 -34 -469 c 0,94,95
 -31 -452 -31 -452 -35 -429 c 0,96,97
 -38 -410 -38 -410 -44 -390 c 1,98,99
 -68 -329 -68 -329 -131 -304 c 0,100,101
 -158 -294 -158 -294 -182 -291 c 0,102,103
 -190 -290 -190 -290 -256 -290 c 2,104,-1
 -370 -290 l 2,105,106
 -375 -290 -375 -290 -375 -285 c 2,107,-1
 -375 -222 l 1,108,-1
 -375 -199 l 2,109,110
 -375 -175 -375 -175 -363 -157 c 0,111,112
 -322 -91 -322 -91 -245 -67 c 0,113,114
 -210 -57 -210 -57 -160 -53 c 1,115,-1
 -140 -53 l 1,116,-1
 -111 -53 l 1,117,-1
 -77 -53 l 2,118,119
 -56 -53 -56 -53 -45 -52 c 0,120,121
 -43 -52 -43 -52 -37 -50 c 1,122,123
 -36 -48 -36 -48 -36 -46 c 128,-1,124
 -36 -44 -36 -44 -35 -42 c 0,125,0
 -33 -34 -33 -34 -33 -28 c 128,-1,1
EndSplineSet
EndChar

StartChar: Z
Encoding: 90 90 45
Width: 813
GlyphClass: 2
Flags: W
HStem: 308 67<88.7483 251.021 428.125 591.812>
VStem: -33 66<-8.58984 281.969 282 283> 309 66<101.249 118.984 157 255.963> 650 66<58.9302 73.718 218.203 257.125>
LayerCount: 2
Fore
SplineSet
33 28 m 2,0,1
 33 22 33 22 24 8 c 1,2,3
 8 -13 8 -13 1 -18 c 0,4,5
 -32 -38 -32 -38 -33 -28 c 1,6,7
 -33 -28 -33 -28 -33 -9 c 2,8,9
 -33 -9 -33 -9 -33 164 c 2,10,-1
 -33 199 l 1,11,-1
 -33 200 l 1,12,-1
 -33 283 l 1,13,-1
 -60 310 l 2,14,15
 -65 315 -65 315 -58 326 c 0,16,17
 -50 340 -50 340 -38 352 c 128,-1,18
 -26 364 -26 364 -13 371 c 1,19,20
 -2 379 -2 379 3 374 c 2,21,-1
 20 357 l 1,22,-1
 30 347 l 2,23,24
 33 344 33 344 33 342 c 2,25,-1
 33 322 l 1,26,-1
 33 316 l 1,27,28
 76 354 76 354 128 367 c 0,29,30
 161 375 161 375 204 375 c 0,31,32
 240 375 240 375 273 366 c 0,33,34
 325 352 325 352 351 318 c 0,35,36
 355 313 355 313 361 303 c 1,37,-1
 364 306 l 2,38,39
 392 334 392 334 421 349 c 0,40,41
 477 378 477 378 559 375 c 1,42,43
 628 371 628 371 670 341 c 0,44,45
 698 320 698 320 711 284 c 0,46,47
 717 266 717 266 717 256 c 0,48,49
 717 250 717 250 708 236 c 1,50,51
 692 215 692 215 685 210 c 0,52,53
 652 190 652 190 651 200 c 1,54,55
 651 213 651 213 646 226 c 0,56,57
 629 272 629 272 576 294 c 0,58,59
 548 305 548 305 512 308 c 0,60,61
 471 311 471 311 439 306 c 1,62,-1
 427 303 l 2,63,64
 415 300 415 300 399 295 c 1,65,-1
 393 292 l 2,66,67
 392 292 392 292 390 291 c 128,-1,68
 388 290 388 290 387 290 c 128,-1,69
 386 290 386 290 386 289 c 128,-1,70
 386 288 386 288 385 288 c 2,71,-1
 384 287 l 1,72,-1
 383 286 l 1,73,-1
 383 285 l 2,74,75
 383 284 383 284 382 284 c 2,76,-1
 381 282 l 2,77,78
 377 273 377 273 376 266 c 0,79,80
 375 263 375 263 375 256 c 2,81,-1
 375 255 l 1,82,-1
 375 247 l 1,83,-1
 375 171 l 1,84,-1
 375 157 l 1,85,-1
 382 162 l 2,86,87
 427 195 427 195 500 202 c 0,88,89
 541 206 541 206 570 203 c 0,90,91
 622 198 622 198 657 184 c 0,92,93
 708 165 708 165 716 126 c 1,94,95
 719 106 719 106 712 90 c 0,96,97
 688 35 688 35 627 -2 c 0,98,99
 581 -29 581 -29 504 -33 c 0,100,101
 419 -37 419 -37 367 -13 c 0,102,103
 365 -12 365 -12 361 -9.5 c 128,-1,104
 357 -7 357 -7 355 -6 c 1,105,-1
 343 -18 l 1,106,107
 310 -38 310 -38 309 -28 c 1,108,-1
 309 -17 l 1,109,-1
 309 57 l 1,110,-1
 309 156 l 2,111,112
 309 210 309 210 304 226 c 0,113,114
 287 272 287 272 234 294 c 0,115,116
 206 305 206 305 170 308 c 0,117,118
 136 311 136 311 98 306 c 0,119,120
 96 306 96 306 90 304 c 128,-1,121
 84 302 84 302 82 302 c 0,122,123
 63 297 63 297 57 295 c 0,124,125
 56 295 56 295 56 294 c 2,126,-1
 54 293 l 2,127,128
 53 292 53 292 51.5 292 c 128,-1,129
 50 292 50 292 49 291 c 128,-1,130
 48 290 48 290 46.5 289 c 128,-1,131
 45 288 45 288 44 288 c 2,132,-1
 43 287 l 1,133,-1
 42 286 l 1,134,-1
 40 283 l 2,135,136
 40 282 40 282 40 282 c 1,137,-1
 39 280 l 2,138,139
 35 270 35 270 34 265 c 0,140,141
 34 264 34 264 33.5 261 c 128,-1,142
 33 258 33 258 33 256 c 2,143,-1
 33 150 l 1,144,-1
 33 28 l 2,0,1
378 125 m 1,145,-1
 379 126 l 1,146,-1
 378 125 l 1,145,-1
376 119 m 1,147,-1
 376 118 l 2,148,149
 376 117 376 117 375.5 116 c 128,-1,150
 375 115 375 115 375 114 c 0,151,152
 375 109 375 109 377 101 c 0,153,154
 390 67 390 67 435 49 c 0,155,156
 466 37 466 37 509 34 c 0,157,158
 554 31 554 31 599 37 c 1,159,160
 619 41 619 41 629 44 c 0,161,162
 639 46 639 46 642 48 c 2,163,-1
 644 49 l 1,164,-1
 645 50 l 1,165,-1
 646 50 l 1,166,-1
 650 52 l 1,167,-1
 650 53 l 1,168,169
 652 65 652 65 649 74 c 0,170,171
 638 102 638 102 596 119 c 0,172,173
 592 121 592 121 584 123 c 0,174,175
 507 146 507 146 427 134 c 0,176,177
 407 130 407 130 397 127 c 128,-1,178
 387 124 387 124 384 123 c 2,179,-1
 382 122 l 1,180,-1
 381 122 l 1,181,-1
 380 121 l 1,182,-1
 376 119 l 1,147,-1
648 46 m 1,183,-1
 647 45 l 1,184,-1
 648 46 l 1,183,-1
EndSplineSet
EndChar

StartChar: bracketleft
Encoding: 91 91 46
Width: 286
GlyphClass: 2
Flags: W
VStem: -33 66<-8.58984 283 330.326 492.738> 252 66<447.41 497.156>
LayerCount: 2
Fore
SplineSet
33 28 m 2,0,1
 33 22 33 22 24 8 c 1,2,3
 8 -13 8 -13 1 -18 c 0,4,5
 -32 -38 -32 -38 -33 -28 c 1,6,7
 -33 -28 -33 -28 -33 -9 c 2,8,9
 -33 -9 -33 -9 -33 164 c 2,10,-1
 -33 257 l 1,11,12
 -33 257 -33 257 -33 260 c 2,13,-1
 -33 283 l 1,14,-1
 -60 310 l 2,15,16
 -65 315 -65 315 -58 326 c 0,17,18
 -50 340 -50 340 -38 352 c 0,19,20
 -37 353 -37 353 -35.5 354 c 128,-1,21
 -34 355 -34 355 -33 356 c 1,22,-1
 -33 418 l 2,23,24
 -33 436 -33 436 -31 445 c 0,25,26
 -25 478 -25 478 6 516 c 0,27,28
 52 574 52 574 118 593 c 0,29,30
 145 601 145 601 189 603 c 1,31,-1
 209 603 l 1,32,33
 248 598 248 598 275 578 c 0,34,35
 318 546 318 546 318 484 c 0,36,37
 318 478 318 478 309 464 c 1,38,39
 293 443 293 443 286 438 c 0,40,41
 253 418 253 418 252 428 c 1,42,43
 252 451 252 451 245 471 c 0,44,45
 230 510 230 510 189 527 c 1,46,47
 148 542 148 542 97 534 c 1,48,49
 97 534 97 534 85 531 c 256,50,51
 73 528 73 528 57 523 c 1,52,53
 57 523 57 523 51 520 c 0,54,55
 50 520 50 520 48 519 c 128,-1,56
 46 518 46 518 45 518 c 128,-1,57
 44 518 44 518 44 517 c 128,-1,58
 44 516 44 516 43 516 c 2,59,-1
 42 515 l 1,60,-1
 41 514 l 1,61,-1
 41 513 l 2,62,63
 41 512 41 512 40 512 c 2,64,-1
 39 510 l 2,65,66
 35 501 35 501 34 494 c 0,67,68
 33 489 33 489 33 463 c 2,69,-1
 33 342 l 1,70,-1
 33 322 l 1,71,-1
 33 313 l 1,72,-1
 33 150 l 1,73,-1
 33 28 l 2,0,1
41 515 m 1,74,75
 41 515 41 515 39 513 c 2,76,-1
 40 514 l 1,77,-1
 41 515 l 1,74,75
EndSplineSet
EndChar

StartChar: bracketright
Encoding: 93 93 47
Width: 0
GlyphClass: 2
Flags: W
HStem: -717 66<72.6016 122.59>
VStem: -33 66<-610.277 8.58984>
LayerCount: 2
Fore
SplineSet
-33 -28 m 0,0,1
 -33 -22 -33 -22 -24 -8 c 1,2,3
 -8 13 -8 13 -1 18 c 0,4,5
 32 38 32 38 33 28 c 1,6,7
 33 28 33 28 33 -51 c 2,8,9
 33 -51 33 -51 33 -241 c 2,10,11
 33 -241 33 -241 33 -326 c 2,12,13
 33 -326 33 -326 33 -499 c 2,14,15
 33 -499 33 -499 33 -542 c 0,16,17
 33 -563 33 -563 41 -584 c 0,18,19
 58 -627 58 -627 95 -643 c 0,20,21
 115 -651 115 -651 142 -651 c 0,22,23
 156 -651 156 -651 132 -685 c 0,24,25
 127 -692 127 -692 106 -708 c 1,26,27
 92 -717 92 -717 86 -717 c 0,28,29
 23 -717 23 -717 -8 -675 c 0,30,31
 -27 -650 -27 -650 -32 -609 c 0,32,33
 -33 -600 -33 -600 -33 -582 c 2,34,35
 -33 -582 -33 -582 -33 -407 c 2,36,37
 -33 -407 -33 -407 -33 -328 c 2,38,39
 -33 -328 -33 -328 -33 -144 c 2,40,41
 -33 -144 -33 -144 -33 -28 c 0,0,1
EndSplineSet
EndChar

StartChar: a
Encoding: 97 97 49
Width: 0
GlyphClass: 2
Flags: W
VStem: -147 66<74.6279 123.59> 81 66<66.2351 123.59>
LayerCount: 2
Fore
SplineSet
-147 87 m 0,0,1
 -147 93 -147 93 -138 107 c 1,2,3
 -122 128 -122 128 -115 133 c 0,4,5
 -82 153 -82 153 -81 143 c 1,6,7
 -81 122 -81 122 -73 101 c 0,8,9
 -56 58 -56 58 -19 42 c 1,10,11
 12 30 12 30 47 35 c 0,12,13
 59 37 59 37 69 41 c 1,14,-1
 70 42 l 1,15,-1
 71 44 l 1,16,-1
 72 44 l 1,17,18
 72 45 72 45 73 47.5 c 128,-1,19
 74 50 74 50 74 51 c 0,20,21
 78 63 78 63 79 69 c 0,22,23
 81 81 81 81 81 87 c 128,-1,24
 81 93 81 93 90 107 c 1,25,26
 106 128 106 128 113 133 c 0,27,28
 146 153 146 153 147 143 c 1,29,30
 147 121 147 121 139 99 c 0,31,32
 115 25 115 25 45 -14 c 0,33,34
 -19 -49 -19 -49 -82 -21 c 0,35,36
 -123 -3 -123 -3 -139 45 c 0,37,38
 -147 66 -147 66 -147 87 c 0,0,1
EndSplineSet
EndChar

StartChar: b
Encoding: 98 98 50
Width: 475
GlyphClass: 2
Flags: W
HStem: 302 65<79.2305 263.366>
VStem: -29 73<225.753 263.934> -28 73<25 113> 313 66<-10.5781 57.9688 170 254.963>
LayerCount: 2
Fore
SplineSet
37 255 m 0,0,1
 37 247 37 247 29 235 c 0,2,3
 15 216 15 216 5 209 c 0,4,5
 -28 189 -28 189 -29 199 c 1,6,7
 -29 211 -29 211 -24 226 c 0,8,9
 -14 260 -14 260 15 293 c 0,10,11
 69 352 69 352 134 367 c 0,12,13
 170 376 170 376 210 374 c 1,14,15
 246 374 246 374 279 365 c 1,16,17
 331 349 331 349 356 317 c 0,18,19
 375 292 375 292 379 265 c 1,20,21
 379 265 379 265 379 245 c 2,22,23
 379 245 379 245 379 169 c 2,24,25
 379 169 379 169 379 27 c 0,26,27
 379 19 379 19 371 7 c 0,28,29
 357 -12 357 -12 347 -19 c 0,30,31
 314 -39 314 -39 313 -29 c 1,32,33
 313 1 313 1 301 35 c 0,34,35
 277 100 277 100 217 125 c 1,36,37
 167 144 167 144 101 134 c 0,38,39
 99 134 99 134 95.5 133 c 128,-1,40
 92 132 92 132 90 131 c 0,41,42
 78 128 78 128 62 123 c 1,43,-1
 56 120 l 2,44,45
 55 120 55 120 53 119 c 128,-1,46
 51 118 51 118 50 118 c 2,47,-1
 49 117 l 2,48,49
 48 116 48 116 47 116 c 2,50,-1
 45 113 l 2,51,52
 45 112 45 112 44 110 c 0,53,54
 40 101 40 101 39 94 c 0,55,56
 36 81 36 81 41 65 c 1,57,58
 49 45 49 45 67 36 c 0,59,60
 76 32 76 32 90 32 c 0,61,62
 94 32 94 32 95 29 c 128,-1,63
 96 26 96 26 93.5 21 c 128,-1,64
 91 16 91 16 88.5 11.5 c 128,-1,65
 86 7 86 7 82 2 c 2,66,-1
 79 -2 l 2,67,68
 72 -11 72 -11 54 -25 c 1,69,70
 40 -34 40 -34 33 -34 c 2,71,-1
 24 -34 l 1,72,73
 -4 -31 -4 -31 -18 -8 c 0,74,75
 -26 6 -26 6 -28 25 c 0,76,77
 -29 38 -29 38 -24 54 c 0,78,79
 -11 99 -11 99 28 136 c 0,80,81
 58 165 58 165 87 179 c 128,-1,82
 116 193 116 193 152 199 c 0,83,84
 230 211 230 211 283 188 c 0,85,86
 302 179 302 179 314 170 c 1,87,88
 314 207 314 207 308 225 c 0,89,90
 291 271 291 271 238 293 c 0,91,92
 210 304 210 304 174 307 c 0,93,94
 133 310 133 310 101 305 c 0,95,96
 99 304 99 304 95.5 303 c 128,-1,97
 92 302 92 302 90 302 c 0,98,99
 78 299 78 299 62 294 c 1,100,-1
 56 291 l 2,101,102
 55 290 55 290 53 290 c 128,-1,103
 51 290 51 290 50 289 c 2,104,-1
 49 288 l 2,105,106
 48 287 48 287 47 287 c 2,107,-1
 45 284 l 1,108,-1
 44 283 l 2,109,110
 44 282 44 282 44 281 c 0,111,112
 40 272 40 272 39 265 c 1,113,114
 37 259 37 259 37 255 c 0,0,1
45 285 m 1,115,-1
 44 285 l 1,116,-1
 43 284 l 1,117,-1
 45 285 l 1,115,-1
45 114 m 1,118,-1
 44 114 l 1,119,-1
 43 113 l 1,120,-1
 45 114 l 1,118,-1
EndSplineSet
EndChar

StartChar: d
Encoding: 100 100 51
Width: 471
GlyphClass: 2
Flags: W
HStem: 78 69<33 87> 820 66<402.438 464.403>
VStem: -33 66<-8.58984 78 147 283> 309 66<103 789.375>
LayerCount: 2
Fore
SplineSet
33 28 m 2,0,1
 33 22 33 22 24 8 c 1,2,3
 8 -13 8 -13 1 -18 c 0,4,5
 -32 -38 -32 -38 -33 -28 c 1,6,7
 -33 -28 -33 -28 -33 -9 c 2,8,-1
 -33 83 l 1,9,10
 -33 83 -33 83 -33 87 c 2,11,-1
 -33 164 l 1,12,-1
 -33 283 l 1,13,-1
 -60 310 l 2,14,15
 -65 315 -65 315 -58 326 c 0,16,17
 -50 340 -50 340 -38 352 c 128,-1,18
 -26 364 -26 364 -13 371 c 1,19,20
 -2 379 -2 379 3 374 c 2,21,-1
 20 357 l 1,22,-1
 30 347 l 2,23,24
 33 344 33 344 33 342 c 2,25,-1
 33 322 l 1,26,-1
 33 150 l 1,27,-1
 33 147 l 1,28,-1
 87 144 l 1,29,30
 204 136 204 136 266 118 c 0,31,32
 290 111 290 111 309 103 c 1,33,-1
 309 156 l 1,34,-1
 309 348 l 1,35,-1
 309 539 l 1,36,-1
 309 675 l 2,37,38
 309 717 309 717 310 725 c 0,39,40
 314 749 314 749 318 760 c 0,41,42
 328 789 328 789 350 816 c 0,43,44
 379 853 379 853 416 871 c 0,45,46
 448 886 448 886 484 886 c 0,47,48
 497 886 497 886 474 853 c 0,49,50
 467 843 467 843 448 829 c 1,51,52
 434 820 434 820 428 820 c 0,53,54
 415 820 415 820 409 819 c 0,55,56
 395 817 395 817 388 814 c 2,57,-1
 386 813 l 1,58,-1
 385 811 l 1,59,-1
 384 810 l 2,60,61
 384 809 384 809 383 807 c 128,-1,62
 382 805 382 805 382 804 c 0,63,64
 378 792 378 792 377 786 c 0,65,66
 375 773 375 773 375 747 c 2,67,-1
 375 627 l 1,68,-1
 375 442 l 1,69,-1
 375 247 l 1,70,-1
 375 91 l 1,71,-1
 375 28 l 2,72,73
 375 20 375 20 366 7 c 0,74,75
 352 -11 352 -11 343 -18 c 0,76,77
 316 -36 316 -36 312 -34 c 0,78,79
 309 -33 309 -33 309 -29 c 0,80,81
 309 -23 309 -23 307 -13 c 1,82,83
 295 19 295 19 238 42 c 1,84,85
 177 65 177 65 78 74 c 0,86,87
 70 74 70 74 55 76 c 128,-1,88
 40 78 40 78 33 78 c 1,89,-1
 33 28 l 2,0,1
388 814 m 0,90,-1
388 814 m 0,91,-1
EndSplineSet
EndChar

StartChar: e
Encoding: 101 101 52
Width: 0
GlyphClass: 2
Flags: W
VStem: -33 66<-8.58984 42.0449>
LayerCount: 2
Fore
SplineSet
56 88 m 0,0,1
 33 51 33 51 33 28 c 0,2,3
 33 21 33 21 24 8 c 0,4,5
 8 -13 8 -13 1 -18 c 0,6,7
 -32 -38 -32 -38 -33 -28 c 1,8,9
 -33 -5 -33 -5 -18 27 c 0,10,11
 -1 64 -1 64 31 106 c 0,12,13
 107 207 107 207 268 352 c 1,14,-1
 341 417 l 1,15,16
 369 436 369 436 374 431 c 0,17,18
 375 430 375 430 375 427 c 0,19,20
 375 418 375 418 366 407 c 0,21,22
 356 393 356 393 339 378 c 2,23,-1
 249 299 l 1,24,-1
 174 226 l 1,25,-1
 136 186 l 1,26,-1
 91 135 l 1,27,-1
 81 123 l 2,28,29
 72 112 72 112 56 88 c 0,0,1
EndSplineSet
EndChar

StartChar: f
Encoding: 102 102 53
Width: 818
GlyphClass: 2
Flags: W
HStem: 302 78<91.0664 247.27 431.156 589.27>
VStem: -39 78<-5.58496 278> 303 78<-5.58496 250.963> 645 78<-5.58496 250.963>
CounterMasks: 1 70
LayerCount: 2
Fore
SplineSet
39 33 m 2,0,1
 39 24 39 24 28 9 c 0,2,3
 16 -8 16 -8 1 -21 c 0,4,5
 -5 -27 -5 -27 -20 -34.5 c 128,-1,6
 -35 -42 -35 -42 -39 -33 c 1,7,-1
 -39 -14 l 1,8,9
 -39 -14 -39 -14 -39 159 c 2,10,-1
 -39 195 l 1,11,-1
 -39 278 l 1,12,-1
 -66 305 l 2,13,14
 -70 309 -70 309 -63 324 c 0,15,16
 -56 337 -56 337 -40 353 c 0,17,18
 -25 368 -25 368 -10 376 c 0,19,20
 5 383 5 383 9 379 c 0,21,22
 12 376 12 376 17 370.5 c 128,-1,23
 22 365 22 365 25 362 c 0,24,25
 26 360 26 360 30 357 c 128,-1,26
 34 354 34 354 35 353 c 0,27,28
 39 349 39 349 39 346 c 2,29,-1
 39 327 l 1,30,-1
 39 323 l 1,31,32
 85 362 85 362 132 373 c 0,33,34
 161 380 161 380 209 380 c 0,35,36
 249 380 249 380 278 372 c 0,37,38
 331 358 331 358 357 324 c 0,39,40
 360 320 360 320 366 310 c 1,41,42
 415 359 415 359 474 373 c 0,43,44
 503 380 503 380 551 380 c 0,45,46
 591 380 591 380 620 372 c 0,47,48
 673 358 673 358 699 324 c 0,49,50
 717 301 717 301 722 271 c 0,51,52
 723 264 723 264 723 251 c 2,53,-1
 723 176 l 1,54,55
 723 176 723 176 723 33 c 0,56,57
 723 24 723 24 712 9 c 0,58,59
 700 -8 700 -8 685 -21 c 0,60,61
 679 -27 679 -27 664 -34.5 c 128,-1,62
 649 -42 649 -42 645 -33 c 1,63,-1
 645 -22 l 1,64,65
 645 -22 645 -22 645 151 c 0,66,67
 645 205 645 205 640 221 c 0,68,69
 623 267 623 267 571 289 c 1,70,71
 546 298 546 298 507 302 c 0,72,73
 474 305 474 305 436 300 c 0,74,75
 434 300 434 300 428 299 c 128,-1,76
 422 298 422 298 420 297 c 0,77,78
 406 294 406 294 393 288 c 0,79,80
 392 288 392 288 390.5 287 c 128,-1,81
 389 286 389 286 388 286 c 2,82,-1
 387 285 l 1,83,-1
 386 283 l 2,84,85
 384 277 384 277 382 269 c 0,86,87
 382 268 382 268 381.5 265 c 128,-1,88
 381 262 381 262 381 261 c 2,89,-1
 381 260 l 1,90,-1
 381 251 l 1,91,-1
 381 176 l 1,92,-1
 381 33 l 2,93,94
 381 24 381 24 370 9 c 0,95,96
 358 -8 358 -8 343 -21 c 0,97,98
 337 -27 337 -27 322 -34.5 c 128,-1,99
 307 -42 307 -42 303 -33 c 1,100,-1
 303 -22 l 1,101,102
 303 -22 303 -22 303 151 c 0,103,104
 303 205 303 205 298 221 c 0,105,106
 281 267 281 267 229 289 c 1,107,108
 204 298 204 298 165 302 c 0,109,110
 132 305 132 305 94 300 c 0,111,112
 92 300 92 300 86 299 c 128,-1,113
 80 298 80 298 78 297 c 0,114,115
 64 294 64 294 51 288 c 0,116,117
 50 288 50 288 48.5 287 c 128,-1,118
 47 286 47 286 46 286 c 2,119,-1
 45 285 l 1,120,-1
 44 283 l 2,121,122
 42 277 42 277 40 269 c 0,123,124
 40 268 40 268 39.5 265 c 128,-1,125
 39 262 39 262 39 261 c 2,126,-1
 39 154 l 1,127,-1
 39 33 l 2,0,1
EndSplineSet
EndChar

StartChar: g
Encoding: 103 103 54
Width: 471
GlyphClass: 2
Flags: W
HStem: -33 66<-8.58984 63.375> 139 66<68.2566 138 204 309>
VStem: -27 68<210.848 306.095> 138 66<205 285.5> 309 66<-8.58984 139 205 350.59>
LayerCount: 2
Fore
SplineSet
309 314 m 2,0,1
 309 320 309 320 318 334 c 1,2,3
 334 355 334 355 341 360 c 0,4,5
 374 380 374 380 375 370 c 1,6,7
 375 370 375 370 375 328 c 2,8,-1
 375 202 l 1,9,10
 375 202 375 202 375 199 c 2,11,-1
 375 144 l 1,12,13
 375 144 375 144 375 28 c 0,14,15
 375 22 375 22 366 8 c 1,16,17
 350 -13 350 -13 343 -18 c 0,18,19
 310 -38 310 -38 309 -28 c 1,20,21
 309 -28 309 -28 309 14 c 2,22,-1
 309 139 l 1,23,-1
 200 139 l 1,24,-1
 196 139 l 1,25,26
 193 127 193 127 183 105 c 0,27,28
 151 41 151 41 81 -1 c 0,29,30
 46 -22 46 -22 9 -29 c 0,31,32
 -15 -33 -15 -33 -28 -33 c 0,33,34
 -42 -33 -42 -33 -18 1 c 0,35,36
 -13 8 -13 8 8 24 c 1,37,38
 22 33 22 33 28 33 c 0,39,40
 36 33 36 33 50 35 c 0,41,42
 57 36 57 36 71 40 c 0,43,44
 73 41 73 41 78.5 42.5 c 128,-1,45
 84 44 84 44 87 45 c 0,46,47
 88 46 88 46 92 47 c 128,-1,48
 96 48 96 48 97 48 c 2,49,-1
 99 49 l 2,50,51
 100 50 100 50 103 51.5 c 128,-1,52
 106 53 106 53 108 54 c 2,53,-1
 110 55 l 2,54,55
 112 56 112 56 112 57 c 0,56,57
 113 58 113 58 115 59 c 128,-1,58
 117 60 117 60 118 61 c 2,59,-1
 119 63 l 1,60,-1
 118 61 l 1,61,-1
 119 63 l 1,62,-1
 120 65 l 1,63,-1
 121 66 l 1,64,-1
 124 72 l 2,65,66
 128 80 128 80 129 84 c 0,67,68
 133 98 133 98 135 106 c 0,69,70
 138 122 138 122 138 139 c 1,71,-1
 112 139 l 1,72,-1
 47 139 l 2,73,74
 10 139 10 139 -4 150 c 0,75,76
 -20 163 -20 163 -27 190 c 0,77,78
 -31 206 -31 206 -33 224 c 1,79,80
 -34 245 -34 245 -26 267 c 0,81,82
 -13 302 -13 302 17 330 c 0,83,84
 59 368 59 368 95 374 c 0,85,86
 123 379 123 379 149.5 369 c 128,-1,87
 176 359 176 359 190 335 c 0,88,89
 204 309 204 309 204 285 c 2,90,-1
 204 242 l 1,91,-1
 204 205 l 1,92,-1
 247 205 l 1,93,-1
 309 205 l 1,94,-1
 309 314 l 2,0,1
37 307 m 0,95,96
 36 306 36 306 36 303 c 128,-1,97
 36 300 36 300 35 298 c 0,98,99
 31 272 31 272 41 242 c 0,100,101
 50 217 50 217 68 208 c 0,102,103
 76 205 76 205 111 205 c 2,104,-1
 138 205 l 1,105,-1
 138 228 l 2,106,107
 138 239 138 239 132 259 c 1,108,109
 119 290 119 290 92 303 c 1,110,111
 71 311 71 311 45 308 c 0,112,113
 40 308 40 308 37 307 c 0,95,96
EndSplineSet
EndChar

StartChar: h
Encoding: 104 104 55
Width: 813
GlyphClass: 2
Flags: W
HStem: -33 67<432.979 598.273> 309 66<-8.58984 176>
VStem: 309 66<86.0371 350.59> 651 66<-8.58984 25 58.0312 350.59>
LayerCount: 2
Fore
SplineSet
-28 309 m 2,0,1
 -42 309 -42 309 -18 343 c 0,2,3
 -13 350 -13 350 8 366 c 1,4,5
 22 375 22 375 28 375 c 2,6,7
 28 375 28 375 113 375 c 2,8,9
 113 375 113 375 256 375 c 0,10,11
 268 375 268 375 257 358 c 1,12,13
 248 342 248 342 238 332 c 0,14,15
 235 329 235 329 228.5 323 c 128,-1,16
 222 317 222 317 219 314 c 2,17,-1
 94 189 l 1,18,-1
 43 138 l 1,19,-1
 81 113 l 2,20,21
 102 100 102 100 142 72.5 c 128,-1,22
 182 45 182 45 203 32 c 1,23,24
 242 20 242 20 280 25 c 0,25,26
 284 26 284 26 291.5 28.5 c 128,-1,27
 299 31 299 31 300 31 c 1,28,29
 300 32 300 32 301 34.5 c 128,-1,30
 302 37 302 37 302 38 c 0,31,32
 302 40 302 40 303.5 44 c 128,-1,33
 305 48 305 48 306 51 c 0,34,35
 309 68 309 68 309 86 c 2,36,-1
 309 87 l 1,37,-1
 309 95 l 1,38,-1
 309 171 l 1,39,-1
 309 314 l 2,40,41
 309 320 309 320 318 334 c 1,42,43
 334 355 334 355 341 360 c 0,44,45
 374 380 374 380 375 370 c 1,46,-1
 375 359 l 1,47,48
 375 359 375 359 375 186 c 0,49,50
 375 132 375 132 380 116 c 0,51,52
 397 70 397 70 450 48 c 0,53,54
 478 37 478 37 514 34 c 0,55,56
 555 31 555 31 587 36 c 1,57,58
 587 36 587 36 599 39 c 256,59,60
 611 42 611 42 627 47 c 1,61,62
 627 47 627 47 633 50 c 0,63,64
 634 50 634 50 636 51 c 128,-1,65
 638 52 638 52 639 52 c 128,-1,66
 640 52 640 52 640 53 c 128,-1,67
 640 54 640 54 641 54 c 2,68,-1
 642 54 l 1,69,-1
 643 57 l 2,70,71
 643 58 643 58 644 58 c 2,72,-1
 645 60 l 2,73,74
 649 69 649 69 650 76 c 0,75,76
 651 79 651 79 651 86 c 2,77,-1
 651 171 l 1,78,-1
 651 198 l 1,79,-1
 651 314 l 2,80,81
 651 320 651 320 660 334 c 1,82,83
 676 355 676 355 683 360 c 0,84,85
 686 363 686 363 696.5 369 c 128,-1,86
 707 375 707 375 713 375 c 0,87,88
 717 375 717 375 717 370 c 2,89,-1
 717 328 l 1,90,-1
 717 285 l 1,91,-1
 717 144 l 1,92,-1
 717 142 l 1,93,-1
 717 28 l 2,94,95
 717 22 717 22 708 8 c 1,96,97
 692 -13 692 -13 685 -18 c 0,98,99
 652 -38 652 -38 651 -28 c 1,100,-1
 651 14 l 1,101,-1
 651 25 l 1,102,103
 608 -14 608 -14 556 -25 c 0,104,105
 523 -33 523 -33 480 -33 c 0,106,107
 444 -33 444 -33 411 -24 c 0,108,109
 358 -10 358 -10 333 23 c 1,110,111
 292 -27 292 -27 239 -38 c 0,112,113
 205 -45 205 -45 169 -39 c 0,114,115
 157 -37 157 -37 149 -35 c 2,116,-1
 145 -34 l 2,117,118
 141 -33 141 -33 139 -32 c 0,119,120
 131 -26 131 -26 114.5 -15.5 c 128,-1,121
 98 -5 98 -5 90 1 c 0,122,123
 69 14 69 14 29 41.5 c 128,-1,124
 -11 69 -11 69 -32 82 c 0,125,126
 -36 85 -36 85 -29 98 c 0,127,128
 -20 114 -20 114 -10 124 c 0,129,130
 -7 127 -7 127 -0.5 133 c 128,-1,131
 6 139 6 139 9 142 c 2,132,-1
 134 267 l 1,133,-1
 176 309 l 1,134,-1
 115 309 l 1,135,-1
 -28 309 l 2,0,1
EndSplineSet
EndChar

StartChar: i
Encoding: 105 105 56
Width: 0
GlyphClass: 2
Flags: W
HStem: 81 66<-122.59 -71.9258 61.8457 299.513>
VStem: -33 66<-8.58984 40.3721>
LayerCount: 2
Fore
SplineSet
18 88 m 1,0,-1
 24 94 l 2,1,2
 58 128 58 128 94 140 c 0,3,4
 114 147 114 147 166 147 c 2,5,6
 166 147 166 147 222 147 c 0,7,8
 270 147 270 147 294 150 c 0,9,10
 306 152 306 152 312 154 c 1,11,12
 312 154 312 154 318 163 c 0,13,14
 334 184 334 184 341 189 c 0,15,16
 374 209 374 209 375 199 c 0,17,18
 375 191 375 191 372 183 c 0,19,20
 361 155 361 155 326 123 c 0,21,22
 297 97 297 97 267 89 c 0,23,24
 238 81 238 81 190 81 c 2,25,26
 190 81 190 81 131 81 c 0,27,28
 74 81 74 81 67 80 c 0,29,30
 55 78 55 78 45 74 c 1,31,-1
 44 73 l 1,32,-1
 43 71 l 1,33,-1
 42 71 l 1,34,35
 42 70 42 70 41 67.5 c 128,-1,36
 40 65 40 65 40 64 c 0,37,38
 36 52 36 52 35 46 c 0,39,40
 33 34 33 34 33 28 c 0,41,42
 33 21 33 21 24 8 c 0,43,44
 8 -13 8 -13 1 -18 c 0,45,46
 -32 -38 -32 -38 -33 -28 c 1,47,48
 -33 -7 -33 -7 -41 14 c 0,49,50
 -58 57 -58 57 -95 73 c 0,51,52
 -115 81 -115 81 -142 81 c 0,53,54
 -156 81 -156 81 -132 115 c 0,55,56
 -127 122 -127 122 -106 138 c 1,57,58
 -92 147 -92 147 -86 147 c 0,59,60
 -55 147 -55 147 -32 136 c 0,61,62
 0 122 0 122 18 88 c 1,0,-1
EndSplineSet
EndChar

StartChar: j
Encoding: 106 106 57
Width: 357
GlyphClass: 2
Flags: W
HStem: -717 66<301.227 350.59> 81 60<86 178>
VStem: -33 66<219.41 276.536> 195 66<-583.271 41.7573>
LayerCount: 2
Fore
SplineSet
33 256 m 0,0,1
 33 250 33 250 24 236 c 1,2,3
 8 215 8 215 1 210 c 0,4,5
 -32 190 -32 190 -33 200 c 1,6,7
 -33 236 -33 236 -13 273 c 0,8,9
 8 311 8 311 41 337 c 0,10,11
 77 366 77 366 110 372 c 0,12,13
 186 385 186 385 226 345 c 0,14,15
 252 319 252 319 259 274 c 0,16,17
 261 262 261 262 261 257 c 0,18,19
 261 247 261 247 246 227 c 1,20,21
 246 227 246 227 237 218 c 2,22,23
 237 218 237 218 230 211 c 2,24,-1
 164 145 l 1,25,26
 167 144 167 144 172 142.5 c 128,-1,27
 177 141 177 141 178 141 c 0,28,29
 220 129 220 129 240 101 c 0,30,31
 261 71 261 71 261 23 c 2,32,-1
 261 -34 l 1,33,34
 261 -34 261 -34 261 -228 c 2,35,36
 261 -228 261 -228 261 -321 c 2,37,38
 261 -321 261 -321 261 -494 c 0,39,40
 261 -561 261 -561 269 -584 c 1,41,42
 286 -627 286 -627 323 -643 c 0,43,44
 343 -651 343 -651 370 -651 c 0,45,46
 384 -651 384 -651 360 -685 c 0,47,48
 355 -692 355 -692 334 -708 c 1,49,50
 320 -717 320 -717 314 -717 c 0,51,52
 244 -717 244 -717 214 -665 c 0,53,54
 196 -635 196 -635 195 -603 c 1,55,56
 195 -603 195 -603 195 -571 c 2,57,58
 195 -571 195 -571 195 -391 c 2,59,60
 195 -391 195 -391 195 -306 c 2,61,62
 195 -306 195 -306 195 -113 c 2,63,64
 195 -113 195 -113 195 -43 c 0,65,66
 195 -7 195 -7 188 15 c 1,67,68
 173 55 173 55 132 72 c 1,69,70
 107 81 107 81 86 81 c 0,71,72
 74 81 74 81 85 98 c 1,73,74
 94 114 94 114 104 124 c 0,75,76
 105 125 105 125 108 127.5 c 128,-1,77
 111 130 111 130 112 131 c 2,78,-1
 194 213 l 1,79,80
 193 224 193 224 187 242 c 1,81,82
 170 285 170 285 133 301 c 1,83,84
 102 313 102 313 67 308 c 0,85,86
 56 306 56 306 46 302 c 1,87,-1
 45 302 l 1,88,-1
 44 301 l 1,89,-1
 43 300 l 1,90,-1
 43 299 l 1,91,-1
 40 293 l 1,92,93
 36 281 36 281 35 275 c 0,94,95
 33 263 33 263 33 256 c 0,0,1
EndSplineSet
EndChar

StartChar: k
Encoding: 107 107 58
Width: 642
GlyphClass: 2
Flags: W
HStem: 138 66<375 433.524> 821 66<402.408 464.59>
VStem: -33 66<219.41 276.765> 309 66<56.9602 138 204 790.14> 479 68<49.7812 115.183>
LayerCount: 2
Fore
SplineSet
33 256 m 128,-1,1
 33 250 33 250 24 236 c 1,2,3
 8 215 8 215 1 210 c 0,4,5
 -32 190 -32 190 -33 200 c 1,6,7
 -33 222 -33 222 -25 244 c 0,8,9
 -1 318 -1 318 69 357 c 0,10,11
 131 391 131 391 196 364 c 0,12,13
 236 347 236 347 253 299 c 0,14,15
 261 278 261 278 261 257 c 0,16,17
 261 246 261 246 246 228 c 0,18,19
 229 207 229 207 212 199 c 0,20,21
 195 190 195 190 159 172.5 c 128,-1,22
 123 155 123 155 106 146 c 2,23,-1
 57 121 l 1,24,-1
 131 46 l 1,25,-1
 151 69 l 1,26,27
 213 136 213 136 272 172 c 0,28,29
 296 186 296 186 309 191 c 1,30,-1
 309 226 l 1,31,-1
 309 321 l 1,32,33
 309 321 309 321 309 464 c 2,34,35
 309 464 309 464 309 651 c 2,36,37
 309 651 309 651 309 705 c 0,38,39
 309 718 309 718 310 725 c 0,40,41
 314 749 314 749 318 760 c 0,42,43
 328 790 328 790 350 817 c 0,44,45
 379 854 379 854 416 872 c 0,46,47
 448 887 448 887 484 887 c 0,48,49
 498 887 498 887 474 853 c 0,50,51
 469 846 469 846 448 830 c 1,52,53
 434 821 434 821 428 821 c 0,54,55
 415 821 415 821 409 820 c 0,56,57
 397 818 397 818 387 814 c 1,58,-1
 386 813 l 1,59,-1
 385 811 l 1,60,-1
 384 811 l 1,61,62
 384 810 384 810 383 807.5 c 128,-1,63
 382 805 382 805 382 804 c 0,64,65
 378 792 378 792 377 786 c 0,66,67
 375 776 375 776 375 757 c 2,68,-1
 375 606 l 1,69,70
 375 606 375 606 375 423 c 2,71,72
 375 423 375 423 375 351 c 2,73,-1
 375 204 l 1,74,-1
 454 204 l 2,75,76
 512 204 512 204 533 161 c 1,77,78
 542 145 542 145 545 126 c 0,79,80
 547 118 547 118 547 113 c 0,81,82
 544 76 544 76 519 41 c 0,83,84
 492 3 492 3 454 -18.5 c 128,-1,85
 416 -40 416 -40 376 -31 c 0,86,87
 347 -24 347 -24 332 -6 c 0,88,89
 320 8 320 8 313 32 c 0,90,91
 309 45 309 45 309 63 c 2,92,-1
 309 138 l 1,93,94
 308 138 308 138 304 137.5 c 128,-1,95
 300 137 300 137 299 137 c 0,96,97
 287 136 287 136 275 131 c 0,98,99
 274 130 274 130 271 129 c 128,-1,100
 268 128 268 128 266 127 c 2,101,-1
 265 126 l 1,102,-1
 264 126 l 2,103,104
 263 126 263 126 261.5 125 c 128,-1,105
 260 124 260 124 259 124 c 2,106,-1
 247 118 l 1,107,-1
 244 116 l 1,108,-1
 226 104 l 1,109,-1
 223 101 l 2,110,111
 222 100 222 100 220.5 99 c 128,-1,112
 219 98 219 98 218 97 c 0,113,114
 216 96 216 96 212 92 c 128,-1,115
 208 88 208 88 206 87 c 2,116,-1
 203 84 l 1,117,-1
 193 74 l 2,118,119
 192 72 192 72 188 68.5 c 128,-1,120
 184 65 184 65 182 63 c 2,121,-1
 181 61 l 1,122,123
 169 49 169 49 164 42 c 0,124,125
 161 39 161 39 157 33 c 1,126,-1
 155 31 l 1,127,-1
 147 20 l 1,128,-1
 138 8 l 2,129,130
 127 -8 127 -8 106 -24 c 0,131,132
 88 -38 88 -38 82 -32 c 2,133,-1
 73 -23 l 1,134,-1
 -32 82 l 2,135,136
 -37 87 -37 87 -29 98 c 1,137,138
 -25 107 -25 107 -18 115 c 0,139,140
 -2 135 -2 135 16 143 c 0,141,142
 34 152 34 152 69 170 c 128,-1,143
 104 188 104 188 122 197 c 2,144,-1
 190 231 l 1,145,146
 188 239 188 239 187 242 c 0,147,148
 170 285 170 285 133 301 c 1,149,150
 102 313 102 313 67 308 c 0,151,152
 55 306 55 306 45 302 c 1,153,-1
 44 301 l 1,154,-1
 43 299 l 1,155,-1
 42 299 l 1,156,157
 42 298 42 298 41 295.5 c 128,-1,158
 40 293 40 293 40 292 c 0,159,160
 36 280 36 280 35 274 c 0,161,0
 33 262 33 262 33 256 c 128,-1,1
46 302 m 0,162,-1
46 302 m 0,163,-1
475 35 m 1,164,-1
 475 36 l 1,165,166
 476 38 476 38 477 42 c 128,-1,167
 478 46 478 46 479 48 c 0,168,169
 481 64 481 64 474 88 c 1,170,171
 461 119 461 119 434 132 c 1,172,173
 419 138 419 138 375 138 c 1,174,-1
 375 116 l 2,175,176
 375 100 375 100 381 83 c 1,177,178
 394 52 394 52 421 39 c 1,179,180
 445 31 445 31 467 34 c 0,181,182
 472 34 472 34 475 35 c 1,164,-1
388 814 m 0,183,-1
EndSplineSet
EndChar

StartChar: l
Encoding: 108 108 59
Width: 813
GlyphClass: 2
Flags: W
HStem: -33 66<375 467 597.001 692.59> 302 73<88.7483 260.52 593.112 683.871>
VStem: -33 66<-8.58984 281.969 282 283> 309 66<33 255.963>
LayerCount: 2
Fore
SplineSet
33 28 m 2,0,1
 33 22 33 22 24 8 c 1,2,3
 8 -13 8 -13 1 -18 c 0,4,5
 -32 -38 -32 -38 -33 -28 c 1,6,7
 -33 -28 -33 -28 -33 -9 c 2,8,9
 -33 -9 -33 -9 -33 164 c 2,10,-1
 -33 199 l 1,11,-1
 -33 200 l 1,12,-1
 -33 283 l 1,13,-1
 -60 310 l 2,14,15
 -65 315 -65 315 -58 326 c 0,16,17
 -50 340 -50 340 -38 352 c 128,-1,18
 -26 364 -26 364 -13 371 c 1,19,20
 -2 379 -2 379 3 374 c 2,21,-1
 20 357 l 1,22,-1
 30 347 l 2,23,24
 33 344 33 344 33 342 c 2,25,-1
 33 322 l 1,26,-1
 33 316 l 1,27,28
 76 354 76 354 128 367 c 0,29,30
 161 375 161 375 204 375 c 0,31,32
 240 375 240 375 273 366 c 0,33,34
 325 352 325 352 351 318 c 0,35,36
 370 292 370 292 374 267 c 0,37,38
 375 260 375 260 375 247 c 2,39,-1
 375 171 l 1,40,-1
 375 33 l 1,41,-1
 413 33 l 1,42,-1
 467 33 l 1,43,44
 447 53 447 53 437 76 c 0,45,46
 413 130 413 130 429 189 c 0,47,48
 445 250 445 250 507 303 c 0,49,50
 550 339 550 339 605 357 c 0,51,52
 640 368 640 368 681 373 c 0,53,54
 701 375 701 375 712 375 c 0,55,56
 726 375 726 375 702 341 c 0,57,58
 697 334 697 334 676 318 c 1,59,60
 662 309 662 309 656 309 c 0,61,62
 639 309 639 309 609 305 c 1,63,64
 576 298 576 298 563 294 c 0,65,66
 552 291 552 291 543 287 c 0,67,68
 542 286 542 286 540.5 286 c 128,-1,69
 539 286 539 286 538 285 c 0,70,71
 536 284 536 284 534 283 c 128,-1,72
 532 282 532 282 530 281 c 128,-1,73
 528 280 528 280 525 278 c 128,-1,74
 522 276 522 276 520 275 c 2,75,-1
 518 274 l 2,76,77
 516 273 516 273 513 271 c 128,-1,78
 510 269 510 269 508 268 c 1,79,-1
 508 267 l 1,80,-1
 507 267 l 1,81,-1
 506 266 l 1,82,-1
 505 263 l 2,83,84
 505 262 505 262 503 260 c 128,-1,85
 501 258 501 258 500 256 c 1,86,-1
 500 255 l 1,87,88
 499 254 499 254 499 253 c 0,89,90
 498 252 498 252 498 250.5 c 128,-1,91
 498 249 498 249 497 248 c 0,92,93
 493 237 493 237 492 228 c 0,94,95
 484 186 484 186 498 146 c 1,96,97
 522 85 522 85 597 55 c 0,98,99
 601 53 601 53 609 51 c 0,100,101
 663 33 663 33 712 33 c 0,102,103
 726 33 726 33 702 -1 c 0,104,105
 697 -8 697 -8 676 -24 c 1,106,107
 662 -33 662 -33 656 -33 c 2,108,-1
 613 -33 l 1,109,110
 613 -33 613 -33 429 -33 c 2,111,112
 429 -33 429 -33 314 -33 c 0,113,114
 309 -33 309 -33 309 -28 c 2,115,116
 309 -28 309 -28 309 -17 c 2,117,118
 309 -17 309 -17 309 156 c 0,119,120
 309 210 309 210 304 226 c 0,121,122
 287 272 287 272 234 294 c 0,123,124
 206 305 206 305 170 308 c 0,125,126
 136 311 136 311 98 306 c 0,127,128
 96 306 96 306 90 304 c 128,-1,129
 84 302 84 302 82 302 c 0,130,131
 63 297 63 297 57 295 c 0,132,133
 56 295 56 295 56 294 c 2,134,-1
 54 293 l 2,135,136
 53 292 53 292 51.5 292 c 128,-1,137
 50 292 50 292 49 291 c 128,-1,138
 48 290 48 290 46.5 289 c 128,-1,139
 45 288 45 288 44 288 c 2,140,-1
 43 287 l 1,141,-1
 42 286 l 1,142,-1
 40 283 l 2,143,144
 40 282 40 282 40 282 c 1,145,-1
 39 280 l 2,146,147
 35 270 35 270 34 265 c 0,148,149
 34 264 34 264 33.5 261 c 128,-1,150
 33 258 33 258 33 256 c 2,151,-1
 33 150 l 1,152,-1
 33 28 l 2,0,1
44 289 m 1,153,-1
 47 293 l 1,154,-1
 44 290 l 1,155,-1
 44 289 l 1,153,-1
41 286 m 2,156,157
 40 286 40 286 39 285 c 128,-1,158
 38 284 38 284 37 283 c 2,159,-1
 40 285 l 1,160,-1
 41 286 l 2,156,157
EndSplineSet
EndChar

StartChar: m
Encoding: 109 109 60
Width: 471
GlyphClass: 2
Flags: W
HStem: -33 66<71.9421 276.703> 355 20G<368 373> 355 20G<368 373>
VStem: -32 72<64.9673 164.934 228.129 277.367> 309 66<-8.58984 12 45 350.59>
LayerCount: 2
Fore
SplineSet
33 256 m 128,-1,1
 33 250 33 250 24 236 c 1,2,3
 8 215 8 215 1 210 c 0,4,5
 -32 190 -32 190 -33 200 c 1,6,7
 -33 218 -33 218 -26 241 c 0,8,9
 -7 302 -7 302 51 345 c 0,10,11
 86 372 86 372 128 375 c 128,-1,12
 170 378 170 378 208 357 c 0,13,14
 253 331 253 331 260 275 c 0,15,16
 261 268 261 268 261 235 c 2,17,-1
 261 199 l 2,18,19
 261 192 261 192 252 179 c 0,20,21
 236 158 236 158 229 153 c 0,22,23
 196 133 196 133 195 143 c 0,24,25
 195 148 195 148 194 150 c 0,26,27
 187 171 187 171 157 184 c 1,28,29
 132 193 132 193 114 194 c 0,30,31
 83 196 83 196 67 194 c 0,32,33
 55 192 55 192 45 188 c 1,34,-1
 44 187 l 1,35,-1
 43 185 l 1,36,-1
 42 185 l 1,37,38
 42 184 42 184 41 181.5 c 128,-1,39
 40 179 40 179 40 178 c 0,40,41
 36 166 36 166 35 160 c 0,42,43
 30 130 30 130 41 100 c 0,44,45
 58 57 58 57 95 41 c 1,46,47
 117 33 117 33 138 33 c 2,48,-1
 195 33 l 1,49,50
 195 33 195 33 255 33 c 0,51,52
 264 33 264 33 269 34 c 0,53,54
 281 36 281 36 293 40 c 1,55,-1
 297 42 l 2,56,57
 298 42 l 1,58,-1
 300 43 l 1,59,-1
 301 44 l 1,60,-1
 302 45 l 1,61,-1
 302 46 l 1,62,63
 306 56 306 56 307 61 c 0,64,65
 309 79 309 79 309 88 c 2,66,-1
 309 94 l 1,67,68
 309 94 309 94 309 106 c 2,69,70
 309 171 l 2,71,-1
 309 198 l 1,72,-1
 309 314 l 2,73,74
 309 320 309 320 318 334 c 1,75,76
 334 355 334 355 341 360 c 0,77,78
 344 363 344 363 354.5 369 c 128,-1,79
 365 375 365 375 371 375 c 0,80,81
 375 375 375 375 375 370 c 2,82,-1
 375 354 l 1,83,-1
 375 328 l 1,84,-1
 375 179 l 1,85,86
 375 136 l 2,87,-1
 375 28 l 2,88,89
 375 22 375 22 366 8 c 1,90,91
 350 -13 350 -13 343 -18 c 0,92,93
 310 -38 310 -38 309 -28 c 1,94,-1
 309 12 l 1,95,96
 302 6 302 6 288 -4 c 0,97,98
 243 -33 243 -33 195 -33 c 2,99,100
 195 -33 195 -33 105 -33 c 0,101,102
 72 -33 72 -33 66 -32 c 0,103,104
 52 -31 52 -31 35 -24 c 0,105,106
 12 -15 12 -15 -3 3 c 0,107,108
 -27 32 -27 32 -32 71 c 0,109,110
 -33 84 -33 84 -32 97 c 0,111,112
 -25 146 -25 146 -1 179 c 0,113,114
 29 220 29 220 69 243 c 1,115,116
 99 259 99 259 134 261 c 0,117,118
 155 262 155 262 180 259 c 1,119,120
 164 284 164 284 132 299 c 1,121,122
 97 312 97 312 67 308 c 0,123,124
 55 306 55 306 45 302 c 1,125,-1
 44 301 l 1,126,-1
 43 299 l 1,127,-1
 42 299 l 1,128,129
 42 298 42 298 41 295.5 c 128,-1,130
 40 293 40 293 40 292 c 0,131,132
 36 280 36 280 35 274 c 0,133,0
 33 262 33 262 33 256 c 128,-1,1
46 302 m 0,134,-1
46 188 m 0,135,-1
EndSplineSet
EndChar

StartChar: n
Encoding: 110 110 61
Width: 471
GlyphClass: 2
Flags: W
HStem: 308 66<83.8125 250.057>
VStem: -33 66<219.41 265.265>
LayerCount: 2
Fore
SplineSet
33 256 m 0,0,1
 33 250 33 250 24 236 c 1,2,3
 8 215 8 215 1 210 c 0,4,5
 -32 190 -32 190 -33 200 c 1,6,7
 -33 212 -33 212 -27 232 c 0,8,9
 -11 279 -11 279 39 322 c 0,10,11
 67 346 67 346 100 359 c 0,12,13
 130 371 130 371 164 374 c 0,14,15
 243 383 243 383 300 357 c 0,16,17
 330 344 330 344 351 318 c 128,-1,18
 372 292 372 292 375 260 c 0,19,20
 377 237 377 237 354 205 c 0,21,22
 323 163 323 163 266 121 c 0,23,24
 198 72 198 72 84 16 c 1,25,-1
 79 14 l 1,26,27
 82 12 82 12 88 7.5 c 128,-1,28
 94 3 94 3 97 1 c 0,29,30
 122 -17 122 -17 170 -57 c 0,31,32
 198 -81 198 -81 253 -130.5 c 128,-1,33
 308 -180 308 -180 336 -204 c 0,34,35
 374 -237 374 -237 414 -267 c 0,36,37
 452 -295 452 -295 474 -304 c 0,38,39
 488 -310 488 -310 511 -308 c 0,40,41
 516 -308 516 -308 519 -307 c 0,42,43
 520 -306 520 -306 520 -303 c 128,-1,44
 520 -300 520 -300 521 -298 c 0,45,46
 522 -294 522 -294 522 -285 c 0,47,48
 522 -278 522 -278 531 -264 c 1,49,50
 543 -248 543 -248 555 -239 c 0,51,52
 579 -223 579 -223 582 -223 c 0,53,54
 588 -222 588 -222 588 -228 c 2,55,-1
 588 -230 l 1,56,-1
 589 -232 l 1,57,58
 586 -279 586 -279 550 -318 c 0,59,60
 508 -364 508 -364 471 -372 c 0,61,62
 444 -378 444 -378 428 -373 c 0,63,64
 402 -366 402 -366 365 -341 c 0,65,66
 324 -313 324 -313 289 -282 c 1,67,68
 256 -255 256 -255 198.5 -202.5 c 128,-1,69
 141 -150 141 -150 122 -134 c 0,70,71
 72 -90 72 -90 47 -72 c 0,72,73
 12 -46 12 -46 -9 -37 c 1,74,75
 -21 -33 -21 -33 -28 -33 c 0,76,77
 -42 -33 -42 -33 -18 1 c 1,78,79
 0 22 0 22 23 32 c 0,80,81
 26 33 26 33 30 35 c 128,-1,82
 34 37 34 37 37 38 c 0,83,84
 38 38 38 38 39 39 c 128,-1,85
 40 40 40 40 41 40 c 2,86,-1
 47 43 l 2,87,88
 50 44 50 44 57 48 c 128,-1,89
 64 52 64 52 68 53 c 0,90,91
 180 104 180 104 241 142 c 1,92,-1
 242 143 l 2,93,94
 242 144 242 144 243 144 c 128,-1,95
 244 144 244 144 245 145 c 128,-1,96
 246 146 246 146 250 148 c 128,-1,97
 254 150 254 150 255 151 c 0,98,99
 257 152 257 152 275 165 c 0,100,101
 276 166 276 166 280 168.5 c 128,-1,102
 284 171 284 171 285 172 c 0,103,104
 286 172 286 172 287 173 c 128,-1,105
 288 174 288 174 289 175 c 0,106,107
 297 181 297 181 302 186 c 2,108,-1
 303 187 l 1,109,-1
 304 188 l 1,110,-1
 307 191 l 2,111,112
 307 192 307 192 308 194 c 0,113,114
 311 209 311 209 304 226 c 0,115,116
 287 272 287 272 234 294 c 0,117,118
 206 305 206 305 170 308 c 0,119,120
 129 311 129 311 97 306 c 1,121,-1
 85 303 l 2,122,123
 73 300 73 300 57 295 c 1,124,-1
 51 292 l 2,125,126
 50 292 50 292 48 291 c 128,-1,127
 46 290 46 290 45 290 c 128,-1,128
 44 290 44 290 44 289 c 128,-1,129
 44 288 44 288 43 288 c 2,130,-1
 42 288 l 1,131,-1
 41 286 l 1,132,-1
 41 285 l 2,133,134
 41 284 41 284 40 284 c 2,135,-1
 39 282 l 2,136,137
 35 273 35 273 34 266 c 0,138,139
 33 263 33 263 33 256 c 0,0,1
EndSplineSet
EndChar

StartChar: o
Encoding: 111 111 62
Width: 0
GlyphClass: 2
Flags: W
HStem: 424 66<-81.1338 75.9526>
VStem: -204 67<231.926 383.545> 138 66<231.002 373.307>
LayerCount: 2
Fore
SplineSet
-133 399 m 1,0,-1
 -133 398 l 1,1,2
 -135 394 -135 394 -137 382 c 1,3,4
 -138 364 -138 364 -137 346 c 0,5,6
 -135 315 -135 315 -132 300 c 0,7,8
 -124 256 -124 256 -110 219 c 0,9,10
 -86 158 -86 158 -45 107 c 0,11,12
 -18 73 -18 73 8 51 c 0,13,14
 10 49 10 49 16 44.5 c 128,-1,15
 22 40 22 40 24 38 c 1,16,-1
 27 41 l 1,17,-1
 30 44 l 1,18,-1
 41 55 l 1,19,20
 41 55 41 55 45 59 c 2,21,-1
 46 60 l 1,22,23
 46 60 46 60 61 78 c 1,24,-1
 62 80 l 2,25,26
 63 81 63 81 66 85 c 128,-1,27
 69 89 69 89 70 90 c 0,28,29
 72 92 72 92 74 96 c 128,-1,30
 76 100 76 100 77 102 c 2,31,-1
 80 106 l 2,32,33
 88 118 88 118 94 131 c 0,34,35
 95 133 95 133 97.5 137 c 128,-1,36
 100 141 100 141 101 144 c 0,37,38
 102 145 102 145 103 147.5 c 128,-1,39
 104 150 104 150 104 151 c 0,40,41
 106 153 106 153 106 154 c 0,42,43
 109 160 109 160 116 182 c 0,44,45
 128 220 128 220 133 248 c 0,46,47
 138 280 138 280 138 305 c 0,48,49
 138 332 138 332 132 349 c 1,50,51
 114 388 114 388 62 408 c 0,52,53
 46 414 46 414 14 420 c 1,54,55
 -14 424 -14 424 -28 424 c 0,56,57
 -36 424 -36 424 -71 419 c 1,58,59
 -90 415 -90 415 -102 412 c 0,60,61
 -117 407 -117 407 -121 405 c 0,62,63
 -122 405 -122 405 -122 405 c 1,64,-1
 -124 404 l 1,65,-1
 -125 403 l 2,66,67
 -126 403 -126 403 -129 401 c 128,-1,68
 -132 399 -132 399 -133 399 c 1,0,-1
-12 -26 m 0,69,70
 -22 -32 -22 -32 -28 -32 c 0,71,72
 -31 -32 -31 -32 -32 -31 c 0,73,74
 -40 -25 -40 -25 -52 -15 c 0,75,76
 -123 45 -123 45 -162 128 c 0,77,78
 -192 194 -192 194 -201 258 c 0,79,80
 -201 259 -201 259 -204 296 c 1,81,82
 -204 323 -204 323 -203 329 c 0,83,84
 -199 360 -199 360 -178 389 c 0,85,86
 -132 451 -132 451 -62 475 c 0,87,88
 -24 487 -24 487 14 490 c 0,89,90
 58 493 58 493 107 478 c 0,91,92
 161 461 161 461 184 432 c 0,93,94
 200 411 200 411 203 387 c 0,95,96
 204 382 204 382 204 355 c 0,97,98
 204 337 204 337 201 317 c 0,99,100
 192 244 192 244 161 179 c 0,101,102
 135 125 135 125 93 73 c 0,103,104
 64 37 64 37 24 2 c 1,105,-1
 -6 -22 l 2,106,107
 -7 -23 -7 -23 -9 -24 c 128,-1,108
 -11 -25 -11 -25 -12 -26 c 0,69,70
EndSplineSet
EndChar

StartChar: p
Encoding: 112 112 63
Width: 470
GlyphClass: 2
Flags: W
HStem: 304 69<86.5879 262.669>
VStem: -31 63<-9.03711 281> 311 63<-9.03711 257.963>
LayerCount: 2
Fore
SplineSet
44 289 m 0,0,-1
32 27 m 2,1,2
 32 17 32 17 24 7 c 0,3,4
 18 -2 18 -2 1 -17 c 0,5,6
 -4 -22 -4 -22 -15.5 -28 c 128,-1,7
 -27 -34 -27 -34 -31 -27 c 1,8,-1
 -31 -8 l 1,9,10
 -31 -8 -31 -8 -31 165 c 2,11,-1
 -31 201 l 1,12,-1
 -31 285 l 1,13,-1
 -58 312 l 2,14,15
 -63 317 -63 317 -56 327 c 1,16,17
 -50 338 -50 338 -37 351 c 128,-1,18
 -24 364 -24 364 -13 370 c 1,19,20
 -3 377 -3 377 2 372 c 0,21,22
 5 369 5 369 10.5 364 c 128,-1,23
 16 359 16 359 19 356 c 2,24,25
 19 356 19 356 29 346 c 0,26,27
 32 343 32 343 32 340 c 2,28,29
 32 340 32 340 32 321 c 2,30,-1
 32 313 l 1,31,32
 75 353 75 353 128 366 c 0,33,34
 157 373 157 373 203 373 c 0,35,36
 243 373 243 373 272 365 c 0,37,38
 324 351 324 351 350 317 c 0,39,40
 369 292 369 292 373 265 c 0,41,42
 374 258 374 258 374 245 c 2,43,44
 374 245 374 245 374 169 c 2,45,46
 374 169 374 169 374 27 c 0,47,48
 374 17 374 17 366 7 c 0,49,50
 360 -2 360 -2 343 -17 c 0,51,52
 338 -22 338 -22 326.5 -28 c 128,-1,53
 315 -34 315 -34 311 -27 c 1,54,-1
 311 -15 l 1,55,56
 311 -15 311 -15 311 157 c 0,57,58
 311 214 311 214 306 228 c 0,59,60
 289 274 289 274 236 296 c 0,61,62
 212 305 212 305 171 309 c 0,63,64
 138 312 138 312 100 307 c 0,65,66
 98 306 98 306 92 305 c 128,-1,67
 86 304 86 304 83 304 c 0,68,69
 74 302 74 302 58 296 c 1,70,-1
 57 296 l 1,71,72
 56 295 56 295 55 295 c 0,73,74
 54 294 54 294 52.5 293 c 128,-1,75
 51 292 51 292 50 292 c 128,-1,76
 49 292 49 292 47.5 291 c 128,-1,77
 46 290 46 290 45 289 c 2,78,-1
 42 288 l 1,79,-1
 41 286 l 1,80,-1
 39 282 l 1,81,-1
 38 281 l 2,82,83
 38 280 38 280 38 279 c 0,84,85
 34 270 34 270 33 263 c 0,86,87
 33 262 33 262 32.5 259 c 128,-1,88
 32 256 32 256 32 255 c 2,89,-1
 32 148 l 1,90,-1
 32 27 l 2,1,2
EndSplineSet
EndChar

StartChar: q
Encoding: 113 113 64
Width: 813
GlyphClass: 2
Flags: W
HStem: -33 67<421.75 466.863> 138 66<375 433.524> 252 66<575.315 640.875>
VStem: -33 66<219.41 276.765> 309 66<57.0269 138 204 278.417> 475 71<47.1338 119.097>
LayerCount: 2
Fore
SplineSet
33 256 m 128,-1,1
 33 250 33 250 24 236 c 1,2,3
 8 215 8 215 1 210 c 0,4,5
 -32 190 -32 190 -33 200 c 1,6,7
 -33 222 -33 222 -25 244 c 0,8,9
 -1 318 -1 318 69 357 c 0,10,11
 131 391 131 391 196 364 c 0,12,13
 236 347 236 347 253 299 c 0,14,15
 261 278 261 278 261 257 c 0,16,17
 261 246 261 246 246 228 c 0,18,19
 229 207 229 207 212 199 c 0,20,21
 195 190 195 190 159 172.5 c 128,-1,22
 123 155 123 155 106 146 c 2,23,-1
 57 121 l 1,24,-1
 131 46 l 1,25,-1
 137 53 l 2,26,27
 192 117 192 117 245 155 c 0,28,29
 277 178 277 178 309 191 c 1,30,-1
 309 200 l 2,31,32
 309 210 309 210 313 232 c 0,33,34
 321 271 321 271 352 307 c 0,35,36
 413 379 413 379 489 375 c 0,37,38
 516 374 516 374 539 352 c 0,39,40
 563 328 563 328 575 322 c 0,41,42
 585 318 585 318 606 318 c 0,43,44
 615 318 615 318 635 320 c 0,45,46
 643 321 643 321 654 325 c 1,47,-1
 660 334 l 1,48,49
 676 355 676 355 683 360 c 0,50,51
 716 380 716 380 717 370 c 0,52,53
 717 362 717 362 714 355 c 0,54,55
 704 328 704 328 678 303 c 0,56,57
 645 271 645 271 612 261 c 0,58,59
 577 250 577 250 539 252 c 0,60,61
 511 253 511 253 488 275 c 0,62,63
 464 299 464 299 452 305 c 1,64,65
 434 312 434 312 409 308 c 0,66,67
 397 306 397 306 387 302 c 1,68,-1
 386 301 l 2,69,70
 386 300 386 300 385.5 300 c 128,-1,71
 385 300 385 300 385 299 c 2,72,-1
 384 298 l 2,73,74
 384 297 384 297 383 295 c 128,-1,75
 382 293 382 293 382 292 c 0,76,77
 378 280 378 280 377 274 c 0,78,79
 375 262 375 262 375 256 c 2,80,-1
 375 204 l 1,81,-1
 444 204 l 2,82,83
 469 204 469 204 481 201 c 0,84,85
 509 194 509 194 524 175 c 0,86,87
 544 150 544 150 546 115 c 1,88,-1
 546 105 l 1,89,90
 543 85 543 85 532 62 c 0,91,92
 515 25 515 25 471 -8 c 0,93,94
 438 -33 438 -33 402 -33 c 0,95,96
 365 -33 365 -33 345 -18 c 1,97,98
 329 -8 329 -8 319 15 c 128,-1,99
 309 38 309 38 309 59 c 2,100,-1
 309 138 l 1,101,102
 308 138 308 138 304 137.5 c 128,-1,103
 300 137 300 137 299 137 c 0,104,105
 287 136 287 136 275 131 c 0,106,107
 274 130 274 130 271 129 c 128,-1,108
 268 128 268 128 266 127 c 2,109,-1
 265 126 l 1,110,-1
 264 126 l 2,111,112
 263 126 263 126 261.5 125 c 128,-1,113
 260 124 260 124 259 124 c 2,114,-1
 247 118 l 1,115,-1
 244 116 l 1,116,-1
 226 104 l 1,117,118
 226 104 226 104 223 101 c 0,119,120
 222 100 222 100 220.5 99 c 128,-1,121
 219 98 219 98 218 97 c 0,122,123
 216 96 216 96 212 92 c 128,-1,124
 208 88 208 88 206 87 c 2,125,-1
 203 84 l 1,126,-1
 193 74 l 2,127,128
 192 72 192 72 188 68.5 c 128,-1,129
 184 65 184 65 182 63 c 2,130,-1
 181 61 l 1,131,132
 169 49 169 49 164 42 c 0,133,134
 161 39 161 39 157 33 c 2,135,-1
 147 20 l 1,136,-1
 138 8 l 2,137,138
 127 -8 127 -8 106 -24 c 0,139,140
 88 -38 88 -38 82 -32 c 2,141,-1
 73 -23 l 1,142,143
 73 -23 73 -23 -32 82 c 0,144,145
 -37 87 -37 87 -29 98 c 1,146,147
 -25 107 -25 107 -18 115 c 0,148,149
 -2 135 -2 135 16 143 c 0,150,151
 34 152 34 152 69 170 c 128,-1,152
 104 188 104 188 122 197 c 2,153,-1
 190 231 l 1,154,155
 188 239 188 239 187 242 c 0,156,157
 170 285 170 285 133 301 c 1,158,159
 102 313 102 313 67 308 c 0,160,161
 55 306 55 306 45 302 c 1,162,-1
 44 301 l 1,163,-1
 43 299 l 1,164,-1
 42 299 l 1,165,166
 42 298 42 298 41 295.5 c 128,-1,167
 40 293 40 293 40 292 c 0,168,169
 36 280 36 280 35 274 c 0,170,0
 33 262 33 262 33 256 c 128,-1,1
381 299 m 1,171,-1
 380 298 l 1,172,-1
 381 299 l 1,171,-1
388 302 m 0,173,-1
649 308 m 0,174,-1
46 302 m 0,175,-1
46 302 m 0,176,-1
475 35 m 1,177,-1
 475 36 l 1,178,179
 476 38 476 38 477 42 c 128,-1,180
 478 46 478 46 479 48 c 0,181,182
 481 64 481 64 474 88 c 1,183,184
 461 119 461 119 434 132 c 1,185,186
 419 138 419 138 375 138 c 1,187,-1
 375 117 l 2,188,189
 375 100 375 100 381 83 c 1,190,191
 394 52 394 52 421 39 c 1,192,193
 445 31 445 31 467 34 c 0,194,195
 472 34 472 34 475 35 c 1,177,-1
EndSplineSet
EndChar

StartChar: r
Encoding: 114 114 65
Width: 471
GlyphClass: 2
Flags: W
HStem: 302 70<80.9102 242.396>
VStem: -33 66<-8.58984 281.969 282 283> 138 66<56.5 94.0205> 309 66<46.5132 227.997>
CounterMasks: 1 70
LayerCount: 2
Fore
SplineSet
33 28 m 2,0,1
 33 22 33 22 24 8 c 1,2,3
 8 -13 8 -13 1 -18 c 0,4,5
 -32 -38 -32 -38 -33 -28 c 1,6,7
 -33 -28 -33 -28 -33 -9 c 2,8,9
 -33 -9 -33 -9 -33 164 c 2,10,-1
 -33 199 l 1,11,-1
 -33 200 l 1,12,-1
 -33 283 l 1,13,-1
 -60 310 l 2,14,15
 -65 315 -65 315 -58 326 c 0,16,17
 -50 340 -50 340 -38 352 c 128,-1,18
 -26 364 -26 364 -13 371 c 1,19,20
 -2 379 -2 379 3 374 c 2,21,-1
 20 357 l 1,22,-1
 30 347 l 2,23,24
 33 344 33 344 33 342 c 2,25,-1
 33 322 l 1,26,-1
 33 316 l 1,27,-1
 35 318 l 1,28,29
 82 362 82 362 154 372 c 0,30,31
 231 383 231 383 283 358 c 0,32,33
 356 324 356 324 372 228 c 0,34,35
 375 213 375 213 375 199 c 2,36,-1
 375 121 l 2,37,38
 375 97 375 97 368 77 c 0,39,40
 355 42 355 42 326 13 c 0,41,42
 288 -25 288 -25 253 -31 c 0,43,44
 215 -38 215 -38 186 -24 c 1,45,46
 165 -15 165 -15 153 5 c 0,47,48
 138 30 138 30 138 57 c 0,49,50
 138 64 138 64 147 78 c 1,51,52
 161 96 161 96 170 103 c 0,53,54
 197 121 197 121 201 119 c 0,55,56
 204 118 204 118 204 114 c 0,57,58
 204 103 204 103 210 83 c 1,59,60
 223 52 223 52 250 39 c 1,61,62
 271 31 271 31 297 34 c 0,63,64
 302 34 302 34 305 35 c 0,65,66
 306 36 306 36 306 39 c 128,-1,67
 306 42 306 42 307 44 c 0,68,69
 309 56 309 56 309 63 c 2,70,-1
 309 121 l 2,71,72
 309 143 309 143 308 154 c 0,73,74
 305 182 305 182 296 207 c 0,75,76
 272 272 272 272 212 297 c 1,77,78
 163 316 163 316 98 306 c 0,79,80
 96 306 96 306 90 304 c 128,-1,81
 84 302 84 302 82 302 c 0,82,83
 63 297 63 297 57 295 c 0,84,85
 56 295 56 295 56 294 c 2,86,-1
 54 293 l 2,87,88
 53 292 53 292 51.5 292 c 128,-1,89
 50 292 50 292 49 291 c 128,-1,90
 48 290 48 290 46.5 289 c 128,-1,91
 45 288 45 288 44 288 c 2,92,-1
 43 287 l 1,93,-1
 42 286 l 1,94,-1
 40 283 l 2,95,96
 40 282 40 282 40 282 c 1,97,-1
 39 280 l 2,98,99
 35 270 35 270 34 265 c 0,100,101
 34 264 34 264 33.5 261 c 128,-1,102
 33 258 33 258 33 256 c 2,103,-1
 33 150 l 1,104,-1
 33 28 l 2,0,1
44 289 m 1,105,-1
 47 293 l 1,106,-1
 44 290 l 1,107,-1
 44 289 l 1,105,-1
41 286 m 2,108,109
 40 286 40 286 39 285 c 128,-1,110
 38 284 38 284 37 283 c 2,111,-1
 40 285 l 1,112,-1
 41 286 l 2,108,109
EndSplineSet
EndChar

StartChar: s
Encoding: 115 115 66
Width: 471
GlyphClass: 2
Flags: W
VStem: -33 66<-8.58984 119 157 282.969> 309 66<-8.58984 61.2959 219.41 255.963>
LayerCount: 2
Fore
SplineSet
33 28 m 2,0,1
 33 22 33 22 24 8 c 1,2,3
 8 -13 8 -13 1 -18 c 0,4,5
 -32 -38 -32 -38 -33 -28 c 1,6,7
 -33 -28 -33 -28 -33 -9 c 2,8,-1
 -33 57 l 1,9,-1
 -33 164 l 1,10,-1
 -33 200 l 1,11,-1
 -33 283 l 1,12,-1
 -60 310 l 2,13,14
 -65 315 -65 315 -58 326 c 0,15,16
 -50 340 -50 340 -38 352 c 128,-1,17
 -26 364 -26 364 -13 371 c 1,18,19
 -2 379 -2 379 3 374 c 2,20,-1
 20 357 l 1,21,-1
 30 347 l 2,22,23
 33 344 33 344 33 342 c 2,24,-1
 33 322 l 1,25,-1
 33 317 l 1,26,27
 52 335 52 335 79 349 c 0,28,29
 135 378 135 378 217 375 c 1,30,31
 286 371 286 371 328 341 c 0,32,33
 356 320 356 320 369 284 c 0,34,35
 375 266 375 266 375 256 c 0,36,37
 375 250 375 250 366 236 c 1,38,39
 350 215 350 215 343 210 c 0,40,41
 310 190 310 190 309 200 c 1,42,43
 309 213 309 213 304 226 c 0,44,45
 287 272 287 272 234 294 c 0,46,47
 206 305 206 305 170 308 c 0,48,49
 129 311 129 311 97 306 c 1,50,-1
 85 303 l 2,51,52
 73 300 73 300 57 295 c 1,53,-1
 51 292 l 2,54,55
 50 292 50 292 48 291 c 128,-1,56
 46 290 46 290 45 290 c 128,-1,57
 44 290 44 290 44 289 c 128,-1,58
 44 288 44 288 43 288 c 2,59,-1
 42 288 l 1,60,-1
 41 286 l 1,61,-1
 41 285 l 2,62,63
 41 284 41 284 40 284 c 2,64,-1
 39 282 l 2,65,66
 35 273 35 273 34 266 c 0,67,68
 33 263 33 263 33 256 c 2,69,-1
 33 157 l 1,70,71
 56 176 56 176 83 186 c 1,72,73
 106 196 106 196 144 201 c 0,74,75
 187 207 187 207 214 203 c 1,76,77
 243 200 243 200 276 187 c 0,78,79
 320 169 320 169 343 137 c 0,80,81
 375 94 375 94 375 28 c 0,82,83
 375 22 375 22 366 8 c 1,84,85
 350 -13 350 -13 343 -18 c 0,86,87
 310 -38 310 -38 309 -28 c 1,88,89
 309 5 309 5 298 38 c 1,90,91
 274 99 274 99 211 124 c 0,92,93
 159 144 159 144 85 134 c 1,94,95
 65 130 65 130 55 127 c 128,-1,96
 45 124 45 124 42 123 c 2,97,-1
 40 122 l 1,98,-1
 39 122 l 1,99,-1
 38 121 l 1,100,-1
 34 119 l 1,101,-1
 34 118 l 2,102,103
 34 117 34 117 33.5 116 c 128,-1,104
 33 115 33 115 33 114 c 2,105,-1
 33 28 l 2,0,1
41 287 m 1,106,-1
 39 285 l 1,107,-1
 40 286 l 1,108,-1
 41 287 l 1,106,-1
EndSplineSet
EndChar

StartChar: t
Encoding: 116 116 67
Width: 471
GlyphClass: 2
Flags: W
HStem: 184 20G<160.5 195.5> 309 66<86.7891 309>
VStem: -33 66<-8.58984 282.719> 309 66<97 309>
LayerCount: 2
Fore
SplineSet
33 28 m 2,0,1
 33 22 33 22 24 8 c 1,2,3
 8 -13 8 -13 1 -18 c 0,4,5
 -32 -38 -32 -38 -33 -28 c 1,6,7
 -33 -28 -33 -28 -33 -9 c 2,8,9
 -33 -9 -33 -9 -33 164 c 2,10,-1
 -33 200 l 1,11,-1
 -33 201 l 1,12,-1
 -33 283 l 1,13,-1
 -60 310 l 2,14,15
 -65 315 -65 315 -58 326 c 0,16,17
 -50 340 -50 340 -38 352 c 128,-1,18
 -26 364 -26 364 -13 371 c 1,19,20
 -2 379 -2 379 3 374 c 2,21,-1
 20 357 l 1,22,-1
 30 347 l 2,23,24
 33 344 33 344 33 342 c 2,25,-1
 33 322 l 1,26,-1
 33 317 l 1,27,28
 78 357 78 357 133 369 c 0,29,30
 162 375 162 375 221 375 c 2,31,-1
 370 375 l 2,32,33
 375 375 375 375 375 370 c 2,34,-1
 375 328 l 1,35,-1
 375 144 l 1,36,-1
 375 28 l 2,37,38
 375 22 375 22 366 8 c 1,39,40
 350 -13 350 -13 343 -18 c 1,41,42
 332 -28 332 -28 319 -32 c 0,43,44
 313 -34 313 -34 310 -32 c 0,45,46
 298 -20 298 -20 274 4.5 c 128,-1,47
 250 29 250 29 238 41 c 1,48,-1
 234 44 l 1,49,-1
 199 9 l 1,50,-1
 181 -9 l 2,51,52
 172 -18 172 -18 163 -24 c 0,53,54
 150 -33 150 -33 143 -33 c 2,55,-1
 141 -33 l 2,56,57
 140 -33 140 -33 137 -32.5 c 128,-1,58
 134 -32 134 -32 132 -32 c 0,59,60
 85 -25 85 -25 66 6 c 0,61,62
 50 33 50 33 53 66 c 0,63,64
 56 105 56 105 85 141 c 0,65,66
 131 197 131 197 190 204 c 1,67,68
 201 204 201 204 203 202 c 2,69,-1
 216 189 l 1,70,-1
 275 130 l 1,71,-1
 309 97 l 1,72,-1
 309 198 l 1,73,-1
 309 309 l 1,74,-1
 264 309 l 1,75,-1
 170 309 l 2,76,77
 120 309 120 309 96 306 c 0,78,79
 94 306 94 306 91 305 c 128,-1,80
 88 304 88 304 86 304 c 0,81,82
 74 301 74 301 58 296 c 1,83,-1
 55 294 l 2,84,85
 54 294 54 294 54 294 c 1,86,-1
 52 293 l 2,87,88
 50 292 50 292 47 290.5 c 128,-1,89
 44 289 44 289 42 288 c 0,90,91
 42 287 42 287 41 285.5 c 128,-1,92
 40 284 40 284 39 283 c 0,93,94
 35 274 35 274 34 267 c 0,95,96
 33 264 33 264 33 257 c 2,97,-1
 33 256 l 1,98,-1
 33 150 l 1,99,-1
 33 28 l 2,0,1
39 286 m 1,100,-1
 37 284 l 1,101,-1
 39 286 l 1,100,-1
186 34 m 1,102,-1
 215 63 l 1,103,-1
 141 138 l 2,104,105
 140 138 140 138 138 137.5 c 128,-1,106
 136 137 136 137 135 137 c 0,107,108
 132 136 132 136 128 135 c 128,-1,109
 124 134 124 134 121 134 c 1,110,-1
 120 133 l 1,111,-1
 120 132 l 1,112,113
 115 107 115 107 123 83 c 1,114,115
 135 53 135 53 165 40 c 0,116,117
 176 36 176 36 186 34 c 1,102,-1
111 131 m 0,118,119
EndSplineSet
EndChar

StartChar: u
Encoding: 117 117 68
Width: 0
GlyphClass: 2
Flags: W
HStem: -33 69<-84.5891 47.8198> 81 66<59.6765 124>
VStem: -204 66<85.7891 122.59> 138 66<257 313>
LayerCount: 2
Fore
SplineSet
45 35 m 0,0,1
 58 37 58 37 69 42 c 1,2,-1
 70 43 l 1,3,4
 70 43 70 43 76 46 c 0,5,6
 83 49 83 49 90 54 c 0,7,8
 91 55 91 55 93.5 56 c 128,-1,9
 96 57 96 57 97 58 c 2,10,-1
 101 62 l 1,11,-1
 113 71 l 1,12,13
 113 71 113 71 118 76 c 0,14,15
 118 77 118 77 119 77 c 128,-1,16
 120 77 120 77 121 78 c 2,17,-1
 124 81 l 1,18,19
 53 84 53 84 1 103 c 0,20,21
 -53 123 -53 123 -73 150 c 128,-1,22
 -93 177 -93 177 -90 207 c 0,23,24
 -86 244 -86 244 -64 278 c 0,25,26
 -43 310 -43 310 -7 338 c 0,27,28
 18 357 18 357 52 367 c 0,29,30
 88 378 88 378 125 375 c 0,31,32
 159 373 159 373 181 357 c 0,33,34
 195 346 195 346 201 327 c 1,35,36
 204 321 204 321 204 313 c 0,37,38
 204 307 204 307 195 293 c 1,39,40
 179 272 179 272 172 267 c 0,41,42
 139 247 139 247 138 257 c 0,43,44
 138 265 138 265 135 272 c 0,45,46
 125 292 125 292 99 303 c 1,47,48
 67 313 67 313 19 306 c 1,49,50
 19 306 19 306 -2 300 c 1,51,52
 -2 300 -2 300 -8 297 c 1,53,54
 -8 297 -8 297 -9 297 c 0,55,56
 -10 296 -10 296 -11 296 c 256,57,58
 -12 296 -12 296 -14 295 c 0,59,60
 -14 294 -14 294 -15 292.5 c 128,-1,61
 -16 291 -16 291 -17 290 c 1,62,-1
 -17 289 l 1,63,64
 -22 277 -22 277 -23 266 c 0,65,66
 -25 246 -25 246 -19 229 c 1,67,68
 -3 193 -3 193 54 171 c 0,69,70
 70 165 70 165 78 163 c 0,71,72
 135 147 135 147 199 147 c 0,73,74
 203 147 203 147 204 144 c 128,-1,75
 205 141 205 141 202.5 135.5 c 128,-1,76
 200 130 200 130 198.5 127.5 c 128,-1,77
 197 125 197 125 195 122 c 0,78,79
 150 61 150 61 89 16 c 0,80,81
 57 -8 57 -8 22 -23 c 0,82,83
 -7 -35 -7 -35 -46 -33 c 0,84,85
 -115 -29 -115 -29 -157 1 c 0,86,87
 -185 21 -185 21 -198 58 c 0,88,89
 -204 76 -204 76 -204 86 c 0,90,91
 -204 93 -204 93 -195 106 c 0,92,93
 -179 127 -179 127 -172 132 c 0,94,95
 -139 152 -139 152 -138 142 c 1,96,97
 -138 128 -138 128 -131 112 c 0,98,99
 -112 66 -112 66 -59 46 c 0,100,101
 -39 39 -39 39 -13 36 c 0,102,103
 22 32 22 32 39 34 c 0,104,105
 40 34 40 34 42 34.5 c 128,-1,106
 44 35 44 35 45 35 c 0,0,1
EndSplineSet
EndChar

StartChar: v
Encoding: 118 118 69
Width: 471
GlyphClass: 2
Flags: W
HStem: 252 66<233.315 300.402>
VStem: -33 66<-8.58984 283>
LayerCount: 2
Fore
SplineSet
33 28 m 2,0,1
 33 22 33 22 24 8 c 1,2,3
 8 -13 8 -13 1 -18 c 0,4,5
 -32 -38 -32 -38 -33 -28 c 1,6,7
 -33 -28 -33 -28 -33 -9 c 2,8,9
 -33 -9 -33 -9 -33 164 c 2,10,-1
 -33 200 l 1,11,-1
 -33 283 l 1,12,-1
 -60 310 l 2,13,14
 -65 315 -65 315 -58 326 c 0,15,16
 -50 340 -50 340 -38 352 c 128,-1,17
 -26 364 -26 364 -13 371 c 1,18,19
 -2 379 -2 379 3 374 c 2,20,-1
 20 357 l 1,21,-1
 30 347 l 2,22,23
 33 344 33 344 33 342 c 2,24,-1
 33 330 l 1,25,26
 87 379 87 379 147 375 c 0,27,28
 174 374 174 374 197 352 c 0,29,30
 221 328 221 328 233 322 c 0,31,32
 243 318 243 318 264 318 c 0,33,34
 273 318 273 318 293 320 c 0,35,36
 301 321 301 321 312 325 c 1,37,-1
 318 334 l 1,38,39
 334 355 334 355 341 360 c 0,40,41
 374 380 374 380 375 370 c 0,42,43
 375 362 375 362 372 355 c 0,44,45
 362 326 362 326 336 302 c 0,46,47
 304 271 304 271 270 261 c 0,48,49
 235 250 235 250 197 252 c 0,50,51
 169 253 169 253 146 275 c 0,52,53
 122 299 122 299 110 305 c 1,54,55
 92 312 92 312 67 308 c 0,56,57
 55 306 55 306 45 302 c 1,58,-1
 44 301 l 2,59,60
 44 300 44 300 43.5 300 c 128,-1,61
 43 300 43 300 43 299 c 2,62,-1
 42 298 l 2,63,64
 42 297 42 297 41 295 c 128,-1,65
 40 293 40 293 40 292 c 0,66,67
 36 280 36 280 35 274 c 0,68,69
 33 262 33 262 33 256 c 2,70,-1
 33 150 l 1,71,-1
 33 28 l 2,0,1
EndSplineSet
EndChar

StartChar: w
Encoding: 119 119 70
Width: 818
GlyphClass: 2
Flags: W
HStem: 246 77<556.357 634.544> 302 78<91.0664 247.27>
VStem: -39 78<-5.58496 278> 303 78<-5.58496 250.963>
LayerCount: 2
Fore
SplineSet
39 33 m 2,0,1
 39 24 39 24 28 9 c 0,2,3
 16 -8 16 -8 1 -21 c 0,4,5
 -5 -27 -5 -27 -20 -34.5 c 128,-1,6
 -35 -42 -35 -42 -39 -33 c 1,7,-1
 -39 -14 l 1,8,9
 -39 159 l 2,10,-1
 -39 195 l 1,11,-1
 -39 278 l 1,12,-1
 -66 305 l 2,13,14
 -70 309 -70 309 -63 324 c 0,15,16
 -56 337 -56 337 -40 353 c 0,17,18
 -25 368 -25 368 -10 376 c 0,19,20
 5 383 5 383 9 379 c 0,21,22
 12 376 12 376 17 370.5 c 128,-1,23
 22 365 22 365 25 362 c 0,24,25
 26 360 26 360 30 357 c 128,-1,26
 34 354 34 354 35 353 c 0,27,28
 39 349 39 349 39 346 c 2,29,-1
 39 327 l 1,30,-1
 39 323 l 1,31,32
 85 362 85 362 132 373 c 0,33,34
 161 380 161 380 209 380 c 0,35,36
 249 380 249 380 278 372 c 0,37,38
 331 358 331 358 357 324 c 0,39,40
 358 323 358 323 359 321.5 c 128,-1,41
 360 320 360 320 360 319 c 1,42,43
 422 385 422 385 493 381 c 0,44,45
 521 380 521 380 544 357 c 0,46,47
 566 335 566 335 580 328 c 0,48,49
 592 323 592 323 611 323 c 0,50,51
 615 323 615 323 620 323.5 c 128,-1,52
 625 324 625 324 631 325 c 128,-1,53
 637 326 637 326 640 326 c 0,54,55
 642 326 642 326 646.5 327 c 128,-1,56
 651 328 651 328 653 329 c 1,57,58
 654 331 654 331 656 333 c 0,59,60
 668 350 668 350 683 363 c 1,61,62
 723 390 723 390 723 375 c 0,63,64
 723 366 723 366 720 358 c 0,65,66
 710 330 710 330 679 301 c 0,67,68
 641 267 641 267 608 256 c 0,69,70
 570 244 570 244 534 246 c 0,71,72
 506 247 506 247 483 270 c 128,-1,73
 460 293 460 293 448 299 c 0,74,75
 431 306 431 306 405 302 c 0,76,77
 395 300 395 300 388 298 c 1,78,-1
 387 296 l 1,79,80
 385 289 385 289 383 279 c 0,81,82
 381 267 381 267 381 261 c 2,83,-1
 381 259 l 1,84,-1
 381 251 l 1,85,-1
 381 176 l 1,86,-1
 381 33 l 2,87,88
 381 24 381 24 370 9 c 0,89,90
 358 -8 358 -8 343 -21 c 0,91,92
 337 -27 337 -27 322 -34.5 c 128,-1,93
 307 -42 307 -42 303 -33 c 1,94,-1
 303 -22 l 1,95,96
 303 -22 303 -22 303 151 c 0,97,98
 303 205 303 205 298 221 c 0,99,100
 281 267 281 267 229 289 c 1,101,102
 204 298 204 298 165 302 c 0,103,104
 132 305 132 305 94 300 c 0,105,106
 92 300 92 300 86 299 c 128,-1,107
 80 298 80 298 78 297 c 0,108,109
 64 294 64 294 51 288 c 0,110,111
 50 288 50 288 48.5 287 c 128,-1,112
 47 286 47 286 46 286 c 2,113,-1
 45 285 l 1,114,-1
 44 283 l 2,115,116
 42 277 42 277 40 269 c 0,117,118
 39 264 39 264 39 261 c 2,119,-1
 39 154 l 1,120,-1
 39 33 l 2,0,1
EndSplineSet
EndChar

StartChar: x
Encoding: 120 120 71
Width: 813
GlyphClass: 2
Flags: W
HStem: 138 66<375 433.524> 308 67<430.977 593.021>
VStem: -33 66<219.41 276.765> 309 66<56.5 138 204 266.492> 475 71<46.7812 119.097> 651 66<-8.58984 255.963>
LayerCount: 2
Fore
SplineSet
33 256 m 128,-1,1
 33 250 33 250 24 236 c 1,2,3
 8 215 8 215 1 210 c 0,4,5
 -32 190 -32 190 -33 200 c 1,6,7
 -33 222 -33 222 -25 244 c 0,8,9
 -1 318 -1 318 69 357 c 0,10,11
 131 391 131 391 196 364 c 0,12,13
 236 347 236 347 253 299 c 0,14,15
 261 278 261 278 261 257 c 0,16,17
 261 246 261 246 246 228 c 0,18,19
 229 207 229 207 212 199 c 0,20,21
 195 190 195 190 159 172.5 c 128,-1,22
 123 155 123 155 106 146 c 2,23,-1
 57 121 l 1,24,-1
 131 46 l 1,25,26
 168 91 168 91 210 127 c 0,27,28
 248 159 248 159 274 174 c 0,29,30
 285 181 285 181 309 191 c 1,31,-1
 309 193 l 2,32,33
 309 247 309 247 352 293 c 0,34,35
 406 352 406 352 470 367 c 0,36,37
 503 375 503 375 546 375 c 0,38,39
 582 375 582 375 615 366 c 0,40,41
 667 352 667 352 693 318 c 0,42,43
 712 292 712 292 716 267 c 0,44,45
 717 260 717 260 717 247 c 2,46,-1
 717 171 l 1,47,48
 717 171 717 171 717 28 c 0,49,50
 717 22 717 22 708 8 c 1,51,52
 692 -13 692 -13 685 -18 c 0,53,54
 652 -38 652 -38 651 -28 c 1,55,56
 651 -28 651 -28 651 -17 c 2,57,58
 651 -17 651 -17 651 156 c 0,59,60
 651 210 651 210 646 226 c 0,61,62
 629 272 629 272 576 294 c 0,63,64
 548 305 548 305 512 308 c 0,65,66
 471 311 471 311 439 306 c 1,67,68
 439 306 439 306 427 303 c 256,69,70
 415 300 415 300 399 295 c 1,71,72
 399 295 399 295 393 292 c 0,73,74
 392 292 392 292 390 291 c 128,-1,75
 388 290 388 290 387 290 c 128,-1,76
 386 290 386 290 386 289 c 128,-1,77
 386 288 386 288 385 288 c 2,78,-1
 384 288 l 1,79,-1
 383 286 l 1,80,-1
 383 285 l 2,81,82
 383 284 383 284 382 284 c 2,83,-1
 381 282 l 2,84,85
 377 273 377 273 376 266 c 0,86,87
 375 262 375 262 375 253 c 2,88,-1
 375 204 l 1,89,-1
 419 204 l 2,90,91
 423 204 423 204 433.5 204 c 128,-1,92
 444 204 444 204 449 204 c 128,-1,93
 454 204 454 204 463 203.5 c 128,-1,94
 472 203 472 203 478 202 c 128,-1,95
 484 201 484 201 491.5 198.5 c 128,-1,96
 499 196 499 196 505 192 c 0,97,98
 539 171 539 171 546 125 c 0,99,100
 548 113 548 113 542 87 c 1,101,102
 534 59 534 59 518 39 c 1,103,104
 485 -7 485 -7 439 -26 c 0,105,106
 414 -37 414 -37 381.5 -31.5 c 128,-1,107
 349 -26 349 -26 331 -4 c 0,108,109
 311 21 311 21 309 56 c 1,110,-1
 309 108 l 1,111,-1
 309 138 l 1,112,113
 308 138 308 138 304 137.5 c 128,-1,114
 300 137 300 137 299 137 c 0,115,116
 287 136 287 136 275 131 c 0,117,118
 274 130 274 130 271 129 c 128,-1,119
 268 128 268 128 266 127 c 2,120,-1
 265 126 l 1,121,-1
 264 126 l 2,122,123
 263 126 263 126 261.5 125 c 128,-1,124
 260 124 260 124 259 124 c 2,125,-1
 247 118 l 1,126,-1
 244 116 l 1,127,-1
 226 104 l 1,128,-1
 223 101 l 2,129,130
 222 100 222 100 220.5 99 c 128,-1,131
 219 98 219 98 218 97 c 0,132,133
 216 96 216 96 212 92 c 128,-1,134
 208 88 208 88 206 87 c 2,135,-1
 203 84 l 1,136,-1
 193 74 l 2,137,138
 192 72 192 72 188 68.5 c 128,-1,139
 184 65 184 65 182 63 c 2,140,-1
 181 61 l 1,141,142
 169 49 169 49 164 42 c 0,143,144
 161 39 161 39 157 33 c 2,145,-1
 147 20 l 1,146,-1
 138 8 l 2,147,148
 127 -8 127 -8 106 -24 c 0,149,150
 88 -38 88 -38 82 -32 c 2,151,-1
 73 -23 l 1,152,-1
 -32 82 l 2,153,154
 -37 87 -37 87 -29 98 c 1,155,156
 -25 107 -25 107 -18 115 c 0,157,158
 -2 135 -2 135 16 143 c 0,159,160
 34 152 34 152 69 170 c 128,-1,161
 104 188 104 188 122 197 c 2,162,-1
 190 231 l 1,163,164
 188 239 188 239 187 242 c 0,165,166
 170 285 170 285 133 301 c 1,167,168
 102 313 102 313 67 308 c 0,169,170
 55 306 55 306 45 302 c 1,171,-1
 44 301 l 1,172,-1
 43 299 l 1,173,-1
 42 299 l 1,174,175
 42 298 42 298 41 295.5 c 128,-1,176
 40 293 40 293 40 292 c 0,177,178
 36 280 36 280 35 274 c 0,179,0
 33 262 33 262 33 256 c 128,-1,1
46 302 m 0,180,-1
46 302 m 0,181,-1
475 35 m 1,182,-1
 475 36 l 1,183,184
 476 38 476 38 477 42 c 128,-1,185
 478 46 478 46 479 48 c 0,186,187
 481 64 481 64 474 88 c 1,188,189
 461 119 461 119 434 132 c 1,190,191
 419 138 419 138 375 138 c 1,192,-1
 375 117 l 2,193,194
 375 100 375 100 381 83 c 1,195,196
 394 52 394 52 421 39 c 1,197,198
 445 31 445 31 467 34 c 0,199,200
 472 34 472 34 475 35 c 1,182,-1
EndSplineSet
EndChar

StartChar: y
Encoding: 121 121 72
Width: 471
GlyphClass: 2
Flags: W
HStem: -33 66<73.9478 253.944> 355 20G<25 44.5 368 373> 355 20G<25 44.5 368 373>
VStem: -18 107<309.008 352.341> 309 66<-8.58984 24 75 350.59>
LayerCount: 2
Fore
SplineSet
-28 309 m 0,0,1
 -42 309 -42 309 -18 343 c 0,2,3
 -13 350 -13 350 8 366 c 1,4,5
 22 375 22 375 28 375 c 0,6,7
 61 375 61 375 78 353 c 0,8,9
 94 332 94 332 89 301 c 0,10,11
 85 276 85 276 67 250 c 0,12,13
 61 240 61 240 57 235 c 2,14,15
 51 226 l 1,16,-1
 50 224 l 2,17,18
 50 223 50 223 48 220.5 c 128,-1,19
 46 218 46 218 46 217 c 0,20,-1
 46 216 l 1,21,-1
 45 214 l 2,22,23
 44 213 44 213 44 211.5 c 128,-1,24
 44 210 44 210 43 209 c 2,25,-1
 37 185 l 1,26,27
 28 135 28 135 40 99 c 1,28,29
 55 60 55 60 96 43 c 1,30,31
 124 33 124 33 142 33 c 0,32,33
 202 31 202 31 239 37 c 0,34,35
 263 41 263 41 275 45 c 0,36,37
 278 46 278 46 283 48 c 128,-1,38
 288 50 288 50 291 51 c 0,39,40
 292 51 292 51 292 51.5 c 128,-1,41
 292 52 292 52 293 52 c 128,-1,42
 294 52 294 52 295 53 c 128,-1,43
 296 54 296 54 297 54 c 128,-1,44
 298 54 298 54 300.5 55 c 128,-1,45
 303 56 303 56 304 57 c 0,46,47
 305 60 305 60 305.5 64.5 c 128,-1,48
 306 69 306 69 307 72 c 2,49,-1
 308 75 l 2,50,51
 308 76 308 76 308.5 77.5 c 128,-1,52
 309 79 309 79 309 80 c 2,53,-1
 309 106 l 1,54,-1
 309 171 l 1,55,-1
 309 198 l 1,56,-1
 309 314 l 2,57,58
 309 320 309 320 318 334 c 1,59,60
 334 355 334 355 341 360 c 0,61,62
 344 363 344 363 354.5 369 c 128,-1,63
 365 375 365 375 371 375 c 0,64,65
 375 375 375 375 375 370 c 2,66,-1
 375 328 l 1,67,-1
 375 258 l 1,68,-1
 375 169 l 1,69,-1
 375 153 l 1,70,-1
 375 144 l 1,71,-1
 375 28 l 2,72,73
 375 22 375 22 366 8 c 1,74,75
 350 -13 350 -13 343 -18 c 0,76,77
 310 -38 310 -38 309 -28 c 1,78,-1
 309 14 l 1,79,-1
 309 24 l 1,80,81
 286 5 286 5 270 -3 c 0,82,83
 232 -23 232 -23 179 -30 c 0,84,85
 160 -33 160 -33 141 -33 c 2,86,-1
 83 -33 l 1,87,88
 52 -31 52 -31 25 -18 c 0,89,90
 -21 5 -21 5 -31 58 c 0,91,92
 -37 87 -37 87 -30 129 c 0,93,94
 -23 169 -23 169 -10 191 c 0,95,96
 -7 197 -7 197 17 231 c 1,97,-1
 19 235 l 2,98,99
 19 236 19 236 19.5 236 c 128,-1,100
 20 236 20 236 20 237 c 0,101,102
 22 239 22 239 22 241 c 0,103,104
 22 242 l 1,105,-1
 23 244 l 1,106,107
 26 259 26 259 21 276 c 1,108,109
 14 294 14 294 -6 304 c 0,110,111
 -18 309 -18 309 -28 309 c 0,0,1
309 61 m 1,112,-1
 308 60 l 1,113,-1
 309 60 l 1,114,-1
 309 61 l 1,112,-1
306 59 m 1,115,-1
 307 59 l 1,116,-1
 306 59 l 1,115,-1
EndSplineSet
EndChar

StartChar: z
Encoding: 122 122 73
Width: 813
GlyphClass: 2
Flags: W
HStem: 136 63<435.413 573.504> 308 67<88.7483 251.021 428.125 591.812>
VStem: -33 66<-8.58984 281.969 282 283> 309 66<-8.58984 110.031 128 255.963> 651 66<-8.58984 61.2959 219.41 255.963>
CounterMasks: 1 38
LayerCount: 2
Fore
SplineSet
33 28 m 2,0,1
 33 22 33 22 24 8 c 1,2,3
 8 -13 8 -13 1 -18 c 0,4,5
 -32 -38 -32 -38 -33 -28 c 1,6,7
 -33 -28 -33 -28 -33 -9 c 2,8,9
 -33 -9 -33 -9 -33 164 c 2,10,-1
 -33 199 l 1,11,-1
 -33 200 l 1,12,-1
 -33 283 l 1,13,-1
 -60 310 l 2,14,15
 -65 315 -65 315 -58 326 c 0,16,17
 -50 340 -50 340 -38 352 c 128,-1,18
 -26 364 -26 364 -13 371 c 1,19,20
 -2 379 -2 379 3 374 c 2,21,-1
 20 357 l 1,22,-1
 30 347 l 2,23,24
 33 344 33 344 33 342 c 2,25,-1
 33 322 l 1,26,-1
 33 316 l 1,27,28
 76 354 76 354 128 367 c 0,29,30
 161 375 161 375 204 375 c 0,31,32
 240 375 240 375 273 366 c 0,33,34
 325 352 325 352 351 318 c 0,35,36
 355 313 355 313 361 303 c 1,37,-1
 364 306 l 2,38,39
 392 334 392 334 421 349 c 0,40,41
 477 378 477 378 559 375 c 1,42,43
 628 371 628 371 670 341 c 0,44,45
 698 320 698 320 711 284 c 0,46,47
 717 266 717 266 717 256 c 0,48,49
 717 250 717 250 708 236 c 1,50,51
 692 215 692 215 685 210 c 0,52,53
 652 190 652 190 651 200 c 1,54,55
 651 213 651 213 646 226 c 0,56,57
 629 272 629 272 576 294 c 0,58,59
 548 305 548 305 512 308 c 0,60,61
 471 311 471 311 439 306 c 1,62,-1
 427 303 l 2,63,64
 415 300 415 300 399 295 c 1,65,-1
 393 292 l 2,66,67
 392 292 392 292 390 291 c 128,-1,68
 388 290 388 290 387 290 c 128,-1,69
 386 290 386 290 386 289 c 128,-1,70
 386 288 386 288 385 288 c 2,71,-1
 384 288 l 1,72,-1
 383 286 l 1,73,-1
 383 285 l 2,74,75
 383 284 383 284 382 284 c 2,76,-1
 381 282 l 2,77,78
 377 273 377 273 376 266 c 0,79,80
 375 263 375 263 375 256 c 2,81,-1
 375 255 l 1,82,-1
 375 247 l 1,83,-1
 375 171 l 1,84,-1
 375 128 l 1,85,86
 430 187 430 187 492 199 c 0,87,88
 527 206 527 206 556 203 c 128,-1,89
 585 200 585 200 618 187 c 0,90,91
 662 169 662 169 685 137 c 0,92,93
 717 94 717 94 717 28 c 0,94,95
 717 22 717 22 708 8 c 1,96,97
 692 -13 692 -13 685 -18 c 0,98,99
 652 -38 652 -38 651 -28 c 1,100,101
 651 5 651 5 640 38 c 1,102,103
 616 99 616 99 553 124 c 1,104,105
 502 143 502 143 454 136 c 0,106,107
 432 132 432 132 418 126 c 1,108,-1
 417 126 l 1,109,110
 416 125 416 125 415 125 c 0,111,112
 414 124 414 124 412.5 123 c 128,-1,113
 411 122 411 122 410 122 c 128,-1,114
 409 122 409 122 407.5 121 c 128,-1,115
 406 120 406 120 405 119 c 2,116,-1
 401 117 l 1,117,-1
 401 116 l 1,118,-1
 400 115 l 1,119,-1
 398 111 l 1,120,-1
 397 109 l 2,121,122
 396 108 396 108 394.5 105 c 128,-1,123
 393 102 393 102 392 100 c 2,124,-1
 391 98 l 2,125,126
 390 95 390 95 388 89.5 c 128,-1,127
 386 84 386 84 385 81 c 0,128,129
 381 72 381 72 378 56 c 0,130,131
 375 42 375 42 375 28 c 0,132,133
 375 22 375 22 366 8 c 1,134,135
 350 -13 350 -13 343 -18 c 0,136,137
 340 -21 340 -21 329.5 -27 c 128,-1,138
 319 -33 319 -33 313 -33 c 0,139,140
 309 -33 309 -33 309 -28 c 2,141,-1
 309 -17 l 1,142,-1
 309 156 l 2,143,144
 309 210 309 210 304 226 c 0,145,146
 287 272 287 272 234 294 c 0,147,148
 206 305 206 305 170 308 c 0,149,150
 136 311 136 311 98 306 c 0,151,152
 96 306 96 306 90 304 c 128,-1,153
 84 302 84 302 82 302 c 0,154,155
 63 297 63 297 57 295 c 0,156,157
 56 295 56 295 56 294 c 2,158,-1
 54 293 l 2,159,160
 53 292 53 292 51.5 292 c 128,-1,161
 50 292 50 292 49 291 c 128,-1,162
 48 290 48 290 46.5 289 c 128,-1,163
 45 288 45 288 44 288 c 2,164,-1
 43 287 l 1,165,-1
 42 286 l 1,166,-1
 40 283 l 2,167,168
 40 282 40 282 40 282 c 1,169,-1
 39 280 l 2,170,171
 35 270 35 270 34 265 c 0,172,173
 34 264 34 264 33.5 261 c 128,-1,174
 33 258 33 258 33 256 c 2,175,-1
 33 150 l 1,176,-1
 33 28 l 2,0,1
EndSplineSet
EndChar

StartChar: dieresis
Encoding: 168 168 74
Width: 357
GlyphClass: 2
Flags: W
VStem: -33 66<75.7499 122.59 219.41 276.765> 188 73<63.6367 96.4646>
LayerCount: 2
Fore
SplineSet
44 301 m 0,0,1
 33 284 33 284 33 256 c 0,2,3
 33 250 33 250 24 236 c 1,4,5
 8 215 8 215 1 210 c 0,6,7
 -32 190 -32 190 -33 200 c 1,8,9
 -33 222 -33 222 -25 244 c 0,10,11
 -1 318 -1 318 69 357 c 0,12,13
 105 377 105 377 146 374.5 c 128,-1,14
 187 372 187 372 218 350 c 0,15,16
 261 318 261 318 261 256 c 0,17,18
 261 244 261 244 246 227 c 0,19,20
 230 208 230 208 206 196 c 1,21,22
 261 180 261 180 261 142 c 0,23,24
 261 67 261 67 193 11 c 0,25,26
 111 -56 111 -56 32 -22 c 0,27,28
 -9 -4 -9 -4 -25 44 c 0,29,30
 -33 65 -33 65 -33 86 c 0,31,32
 -33 92 -33 92 -24 106 c 1,33,34
 -8 127 -8 127 -1 132 c 0,35,36
 32 152 32 152 33 142 c 1,37,38
 33 124 33 124 43 96 c 1,39,40
 60 59 60 59 99 41.5 c 128,-1,41
 138 24 138 24 183 42 c 0,42,43
 184 42 184 42 184 42 c 1,44,-1
 186 43 l 2,45,46
 188 45 188 45 188 46 c 0,47,48
 198 80 198 80 192 97 c 1,49,50
 182 116 182 116 157 127 c 1,51,52
 127 138 127 138 86 138 c 0,53,54
 82 138 82 138 81 141 c 128,-1,55
 80 144 80 144 82.5 149.5 c 128,-1,56
 85 155 85 155 86.5 157.5 c 128,-1,57
 88 160 88 160 90 163 c 0,58,59
 109 189 109 189 130 200 c 2,60,-1
 192 231 l 1,61,62
 183 269 183 269 148 291.5 c 128,-1,63
 113 314 113 314 67 308 c 2,64,-1
 60 307 l 2,65,66
 54 306 54 306 49.5 304.5 c 128,-1,67
 45 303 45 303 44 301 c 0,0,1
EndSplineSet
EndChar

StartChar: macron
Encoding: 175 175 75
Width: 0
GlyphClass: 2
Flags: W
VStem: -248 67<-377.994 -334.8> -33 66<-264 8.15625>
LayerCount: 2
Fore
SplineSet
-247 -126 m 0,0,1
 -297 -106 -297 -106 -339.5 -126.5 c 128,-1,2
 -382 -147 -382 -147 -391 -192 c 0,3,4
 -403 -253 -403 -253 -381 -319 c 1,5,6
 -369 -359 -369 -359 -331 -382 c 128,-1,7
 -293 -405 -293 -405 -248 -386 c 1,8,9
 -248 -378 -248 -378 -246.5 -371 c 128,-1,10
 -245 -364 -245 -364 -243.5 -359.5 c 128,-1,11
 -242 -355 -242 -355 -237 -348.5 c 128,-1,12
 -232 -342 -232 -342 -230.5 -340 c 128,-1,13
 -229 -338 -229 -338 -222 -331.5 c 128,-1,14
 -215 -325 -215 -325 -214 -324 c 0,15,16
 -187 -306 -187 -306 -183 -309 c 0,17,18
 -181 -311 -181 -311 -181 -314 c 0,19,20
 -181 -347 -181 -347 -202 -378 c 0,21,22
 -258 -460 -258 -460 -343 -460 c 0,23,24
 -392 -460 -392 -460 -420.5 -424 c 128,-1,25
 -449 -388 -449 -388 -457 -337 c 0,26,27
 -470 -256 -470 -256 -446 -204 c 0,28,29
 -415 -136 -415 -136 -359.5 -94 c 128,-1,30
 -304 -52 -304 -52 -229 -52 c 0,31,32
 -159 -52 -159 -52 -102 -134 c 1,33,34
 -69 -179 -69 -179 -33 -264 c 1,35,-1
 -33 -28 l 1,36,37
 -29 -9 -29 -9 -1 18 c 1,38,39
 32 38 32 38 33 28 c 1,40,-1
 33 -484 l 1,41,42
 29 -503 29 -503 1 -530 c 0,43,44
 -1 -532 -1 -532 -5.5 -535.5 c 128,-1,45
 -10 -539 -10 -539 -16 -542 c 128,-1,46
 -22 -545 -22 -545 -27 -545 c 128,-1,47
 -32 -545 -32 -545 -33 -540 c 0,48,49
 -77 -351 -77 -351 -135 -247 c 0,50,51
 -189 -149 -189 -149 -247 -126 c 0,0,1
EndSplineSet
EndChar

StartChar: uni00B2
Encoding: 178 178 76
Width: 357
GlyphClass: 2
Flags: W
VStem: 195 66<219.844 268.327>
LayerCount: 2
Fore
SplineSet
183 40 m 0,0,1
 185 41 185 41 186 43 c 0,2,3
 195 68 195 68 195 84 c 1,4,5
 144 124 144 124 42 134 c 1,6,7
 58 60 58 60 108 39 c 0,8,9
 144 24 144 24 183 40 c 0,0,1
19 -8 m 0,10,11
 -38 47 -38 47 -32 161 c 0,12,13
 -25 288 -25 288 73 353 c 0,14,15
 133 393 133 393 196 364 c 0,16,17
 255 337 255 337 261 256 c 1,18,19
 257 237 257 237 229 210 c 1,20,21
 196 190 196 190 195 200 c 0,22,23
 191 276 191 276 133 301 c 0,24,25
 93 318 93 318 57 303 c 1,26,27
 56 301 56 301 54.5 298.5 c 128,-1,28
 53 296 53 296 52 294 c 1,29,-1
 52 293 l 1,30,31
 38 263 38 263 33 204 c 1,32,33
 185 205 185 205 259 147 c 0,34,35
 261 146 261 146 261 138 c 0,36,37
 256 69 256 69 189 7 c 0,38,39
 168 -12 168 -12 139 -24 c 128,-1,40
 110 -36 110 -36 76.5 -33.5 c 128,-1,41
 43 -31 43 -31 19 -8 c 0,10,11
EndSplineSet
EndChar

StartChar: paragraph
Encoding: 182 182 77
Width: 214
GlyphClass: 2
Flags: W
HStem: 223 209 309 21G<-31 -25> 327 20G<110 117.5>
VStem: -32 150
LayerCount: 2
Fore
SplineSet
-8 318 m 0,0,1
 -22 309 -22 309 -28 309 c 128,-1,2
 -34 309 -34 309 -32 319 c 1,3,4
 -28 332 -28 332 -18 343 c 1,5,6
 -7 357 -7 357 8 366 c 1,7,8
 22 376 22 376 50.5 395 c 128,-1,9
 79 414 79 414 93 423 c 0,10,11
 106 432 106 432 114 432 c 0,12,13
 120 432 120 432 118 422 c 1,14,15
 114 411 114 411 103 398 c 0,16,17
 91 383 91 383 78 375 c 0,18,19
 64 366 64 366 35 347 c 128,-1,20
 6 328 6 328 -8 318 c 0,0,1
-8 232 m 0,21,22
 -22 223 -22 223 -28 223 c 0,23,24
 -35 223 -35 223 -32 234 c 0,25,26
 -28 245 -28 245 -18 257 c 0,27,28
 -6 273 -6 273 8 281 c 0,29,30
 22 290 22 290 50.5 309 c 128,-1,31
 79 328 79 328 93 338 c 0,32,33
 106 347 106 347 114 347 c 0,34,35
 121 347 121 347 118 336 c 0,36,37
 115 327 115 327 103 313 c 1,38,39
 90 296 90 296 78 289 c 0,40,41
 64 280 64 280 35 261 c 128,-1,42
 6 242 6 242 -8 232 c 0,21,22
EndSplineSet
EndChar

StartChar: periodcentered
Encoding: 183 183 78
Width: 186
GlyphClass: 2
Flags: W
HStem: 310 174
VStem: 24 66<379.568 464.59>
LayerCount: 2
Fore
SplineSet
-16 313 m 1,0,1
 -27 305 -27 305 -32 310 c 128,-1,2
 -37 315 -37 315 -29 326 c 1,3,4
 -12 357 -12 357 16 371 c 0,5,6
 17 371 17 371 24 376 c 1,7,-1
 24 387 l 1,8,-1
 24 428 l 2,9,10
 24 434 24 434 33 448 c 1,11,12
 49 469 49 469 56 474 c 0,13,14
 89 494 89 494 90 484 c 1,15,-1
 90 439 l 2,16,17
 90 404 90 404 64 375 c 0,18,19
 29 336 29 336 -16 313 c 1,0,1
EndSplineSet
EndChar

StartChar: uni00B9
Encoding: 185 185 79
Width: 471
GlyphClass: 2
Flags: W
HStem: 120 84<37 192>
LayerCount: 2
Fore
SplineSet
201 33 m 1,0,1
 241 33 241 33 289 46 c 0,2,3
 290 46 290 46 290 46 c 1,4,-1
 292 47 l 1,5,6
 267 103 267 103 212 126 c 1,7,8
 147 151 147 151 53 125 c 0,9,10
 51 124 51 124 45.5 122.5 c 128,-1,11
 40 121 40 121 37 120 c 0,12,13
 34 120 34 120 33 119 c 1,14,15
 33 73 33 73 93 49 c 0,16,17
 139 31 139 31 201 33 c 1,0,1
305 173 m 1,18,19
 295 244 295 244 238 282 c 128,-1,20
 181 320 181 320 97 306 c 1,21,-1
 85 303 l 2,22,23
 47 293 47 293 41 286 c 0,24,25
 36 280 36 280 33 261.5 c 128,-1,26
 30 243 30 243 24 236 c 0,27,28
 22 234 22 234 14 224 c 128,-1,29
 6 214 6 214 1 210 c 0,30,31
 -32 190 -32 190 -33 200 c 1,32,33
 -33 232 -33 232 -14 261 c 0,34,35
 46 358 46 358 157 373 c 0,36,37
 260 387 260 387 317.5 334.5 c 128,-1,38
 375 282 375 282 375 178 c 2,39,-1
 375 28 l 1,40,41
 371 9 371 9 343 -18 c 1,42,43
 310 -38 310 -38 309 -28 c 1,44,45
 309 -12 309 -12 304 10 c 1,46,47
 262 -19 262 -19 197 -29 c 128,-1,48
 132 -39 132 -39 67 -26 c 1,49,50
 24 -16 24 -16 -6.5 6.5 c 128,-1,51
 -37 29 -37 29 -32 68 c 0,52,53
 -27 102 -27 102 8 137 c 0,54,55
 70 199 70 199 192 204 c 0,56,57
 261 206 261 206 305 173 c 1,18,19
EndSplineSet
EndChar

StartChar: uni0259
Encoding: 601 601 81
Width: 0
GlyphClass: 2
Flags: W
HStem: 252 66<33.6699 65.5898>
VStem: 78 69<87.2791 108.656>
LayerCount: 2
Fore
SplineSet
-16 -29 m 1,0,1
 -27 -37 -27 -37 -32 -32 c 128,-1,2
 -37 -27 -37 -27 -29 -16 c 1,3,4
 -20 0 -20 0 -10 10 c 128,-1,5
 0 20 0 20 16 29 c 0,6,7
 18 31 18 31 24 34 c 128,-1,8
 30 37 30 37 32 38 c 128,-1,9
 34 39 34 39 39 42 c 2,10,-1
 41 43 l 2,11,12
 44 45 44 45 50 49.5 c 128,-1,13
 56 54 56 54 59 56 c 2,14,-1
 67 61 l 1,15,-1
 71 65 l 1,16,-1
 72 66 l 1,17,-1
 77 71 l 2,18,19
 78 71 78 71 78 72 c 128,-1,20
 78 73 78 73 79 74 c 128,-1,21
 80 75 80 75 80 79 c 128,-1,22
 80 83 80 83 81 84 c 1,23,24
 81 98 81 98 77 109 c 1,25,26
 68 127 68 127 48 135 c 0,27,28
 39 138 39 138 29 138 c 0,29,30
 20 138 20 138 2 144 c 0,31,32
 -20 152 -20 152 -29 177 c 0,33,34
 -42 211 -42 211 -21 244 c 1,35,36
 12 299 12 299 59 314 c 0,37,38
 70 318 70 318 85 318 c 0,39,40
 99 318 99 318 75 284 c 0,41,42
 70 277 70 277 49 261 c 1,43,44
 34 252 34 252 33 252 c 1,45,46
 33 245 33 245 37 233 c 1,47,48
 46 215 46 215 66 207 c 0,49,50
 75 204 75 204 84 204 c 128,-1,51
 93 204 93 204 97 203 c 0,52,53
 118 198 118 198 130 187 c 0,54,55
 147 171 147 171 147 142 c 0,56,57
 147 116 147 116 115 73 c 0,58,59
 93 45 93 45 52 13 c 0,60,61
 21 -10 21 -10 -16 -29 c 1,0,1
EndSplineSet
EndChar

StartChar: uni0294
Encoding: 660 660 82
Width: 471
GlyphClass: 2
Flags: W
HStem: 184 20G<160.5 195.5> 304 71<87.5176 257.366>
VStem: -33 66<-8.58984 266.325> 309 66<97 255.963>
LayerCount: 2
Fore
SplineSet
186 34 m 1,0,-1
 215 63 l 1,1,-1
 141 138 l 2,2,3
 140 138 140 138 138 137.5 c 128,-1,4
 136 137 136 137 135 137 c 0,5,6
 132 136 132 136 128 135 c 128,-1,7
 124 134 124 134 121 134 c 1,8,-1
 120 133 l 1,9,-1
 120 132 l 1,10,11
 115 107 115 107 123 83 c 1,12,13
 135 53 135 53 165 40 c 0,14,15
 176 36 176 36 186 34 c 1,0,-1
111 131 m 0,16,17
42 288 m 0,18,19
 42 287 42 287 41 285.5 c 128,-1,20
 40 284 40 284 39 283 c 0,21,22
 35 274 35 274 34 267 c 128,-1,23
 33 260 33 260 33 247 c 2,24,-1
 33 171 l 1,25,26
 33 171 33 171 33 28 c 0,27,28
 33 22 33 22 24 8 c 1,29,30
 8 -13 8 -13 1 -18 c 0,31,32
 -32 -38 -32 -38 -33 -28 c 1,33,34
 -33 -28 -33 -28 -33 32 c 2,35,36
 -33 32 -33 32 -33 196 c 0,37,38
 -33 246 -33 246 10 293 c 0,39,40
 65 353 65 353 128 368 c 0,41,42
 157 375 157 375 204 375 c 0,43,44
 240 375 240 375 273 366 c 0,45,46
 325 352 325 352 351 318 c 0,47,48
 370 292 370 292 374 267 c 0,49,50
 375 260 375 260 375 247 c 2,51,52
 375 247 375 247 375 171 c 2,53,54
 375 171 375 171 375 28 c 0,55,56
 375 22 375 22 366 8 c 1,57,58
 350 -13 350 -13 343 -18 c 1,59,60
 332 -28 332 -28 319 -32 c 0,61,62
 313 -34 313 -34 310 -32 c 0,63,64
 298 -20 298 -20 274 4.5 c 128,-1,65
 250 29 250 29 238 41 c 1,66,-1
 234 44 l 1,67,-1
 199 9 l 1,68,-1
 181 -9 l 2,69,70
 172 -18 172 -18 163 -24 c 0,71,72
 150 -33 150 -33 143 -33 c 2,73,74
 143 -33 143 -33 141 -33 c 0,75,76
 140 -33 140 -33 137 -32.5 c 128,-1,77
 134 -32 134 -32 132 -32 c 0,78,79
 85 -25 85 -25 66 6 c 0,80,81
 50 33 50 33 53 66 c 0,82,83
 56 105 56 105 85 141 c 0,84,85
 131 197 131 197 190 204 c 1,86,87
 201 204 201 204 203 202 c 2,88,-1
 216 189 l 1,89,90
 216 189 216 189 275 130 c 1,91,-1
 309 97 l 1,92,-1
 309 156 l 2,93,94
 309 210 309 210 304 226 c 0,95,96
 287 272 287 272 234 294 c 0,97,98
 206 305 206 305 170 308 c 0,99,100
 129 311 129 311 96 306 c 0,101,102
 94 306 94 306 91 305 c 128,-1,103
 88 304 88 304 86 304 c 0,104,105
 74 301 74 301 58 296 c 1,106,-1
 55 294 l 2,107,108
 54 294 54 294 54 294 c 1,109,-1
 52 293 l 2,110,111
 50 292 50 292 47 290.5 c 128,-1,112
 44 289 44 289 42 288 c 0,18,19
EndSplineSet
EndChar

StartChar: uni2010
Encoding: 8208 8208 83
Width: 466
GlyphClass: 2
Flags: W
HStem: 138 66<-8.58984 350.59>
LayerCount: 2
Fore
SplineSet
-28 138 m 0,0,1
 -42 138 -42 138 -18 172 c 0,2,3
 -13 179 -13 179 8 195 c 1,4,5
 22 204 22 204 28 204 c 2,6,7
 28 204 28 204 71 204 c 2,8,9
 71 204 71 204 255 204 c 2,10,11
 255 204 255 204 370 204 c 0,12,13
 384 204 384 204 360 170 c 0,14,15
 355 163 355 163 334 147 c 1,16,17
 320 138 320 138 314 138 c 2,18,19
 314 138 314 138 271 138 c 2,20,21
 271 138 271 138 87 138 c 2,22,23
 87 138 87 138 -28 138 c 0,0,1
EndSplineSet
EndChar

StartChar: endash
Encoding: 8211 8211 86
Width: 637
GlyphClass: 2
Flags: W
HStem: 138 66<-8.58984 521.59>
LayerCount: 2
Fore
SplineSet
-28 138 m 0,0,1
 -42 138 -42 138 -18 172 c 0,2,3
 -13 179 -13 179 8 195 c 1,4,5
 22 204 22 204 28 204 c 2,6,7
 28 204 28 204 92 204 c 2,8,9
 92 204 92 204 270 204 c 2,10,11
 270 204 270 204 455 204 c 2,12,13
 455 204 455 204 541 204 c 0,14,15
 555 204 555 204 531 170 c 0,16,17
 526 163 526 163 505 147 c 0,18,19
 492 138 492 138 485 138 c 2,20,21
 485 138 485 138 421 138 c 2,22,23
 421 138 421 138 243 138 c 2,24,25
 243 138 243 138 58 138 c 2,26,27
 58 138 58 138 -28 138 c 0,0,1
EndSplineSet
EndChar

StartChar: emdash
Encoding: 8212 8212 87
Width: 808
GlyphClass: 2
Flags: W
HStem: 138 66<-8.58984 692.59>
LayerCount: 2
Fore
SplineSet
-28 138 m 0,0,1
 -42 138 -42 138 -18 172 c 0,2,3
 -13 179 -13 179 8 195 c 1,4,5
 22 204 22 204 28 204 c 2,6,-1
 29 204 l 1,7,8
 29 204 29 204 113 204 c 2,9,10
 113 204 113 204 284 204 c 2,11,12
 284 204 284 204 481 204 c 2,13,14
 481 204 481 204 644 204 c 2,15,16
 644 204 644 204 712 204 c 0,17,18
 726 204 726 204 702 170 c 0,19,20
 697 163 697 163 676 147 c 1,21,22
 662 138 662 138 656 138 c 2,23,-1
 655 138 l 1,24,25
 655 138 655 138 571 138 c 2,26,27
 571 138 571 138 400 138 c 2,28,29
 400 138 400 138 203 138 c 2,30,31
 203 138 203 138 40 138 c 2,32,33
 40 138 40 138 -28 138 c 0,0,1
EndSplineSet
EndChar

StartChar: quotedblleft
Encoding: 8220 8220 89
Width: 214
GlyphClass: 2
Flags: W
HStem: 422 209
VStem: -32 150
LayerCount: 2
Fore
SplineSet
-8 431 m 128,-1,1
 -22 422 -22 422 -28 422 c 128,-1,2
 -34 422 -34 422 -32 432 c 1,3,4
 -28 445 -28 445 -18 456 c 1,5,6
 -7 470 -7 470 8 479 c 0,7,8
 22 488 22 488 50.5 507 c 128,-1,9
 79 526 79 526 93 536 c 0,10,11
 106 545 106 545 114 545 c 0,12,13
 120 545 120 545 118 535 c 1,14,15
 114 524 114 524 103 511 c 0,16,17
 91 496 91 496 78 488 c 1,18,19
 64 478 64 478 35 459 c 128,-1,0
 6 440 6 440 -8 431 c 128,-1,1
-8 516 m 0,20,21
 -22 507 -22 507 -28 507 c 0,22,23
 -35 507 -35 507 -32 518 c 0,24,25
 -28 529 -28 529 -18 541 c 0,26,27
 -6 557 -6 557 8 565 c 0,28,29
 22 574 22 574 50.5 593 c 128,-1,30
 79 612 79 612 93 622 c 0,31,32
 106 631 106 631 114 631 c 0,33,34
 121 631 121 631 118 620 c 0,35,36
 115 611 115 611 103 597 c 1,37,38
 90 580 90 580 78 573 c 0,39,40
 64 564 64 564 35 545 c 128,-1,41
 6 526 6 526 -8 516 c 0,20,21
EndSplineSet
EndChar

StartChar: exclamdbl
Encoding: 8252 8252 91
Width: 799
GlyphClass: 2
Flags: W
HStem: 224.5 64.5<280.635 414.165> 565 67<333.597 404.241>
VStem: -33 66<333.41 381.64>
LayerCount: 2
Fore
SplineSet
33 370 m 0,0,1
 33 364 33 364 24 350 c 1,2,3
 8 329 8 329 1 324 c 0,4,5
 -32 304 -32 304 -33 314 c 1,6,7
 -33 342 -33 342 -17 372 c 0,8,9
 8 417 8 417 54 445 c 0,10,11
 83 463 83 463 117 461 c 0,12,13
 148 459 148 459 176 425 c 0,14,15
 184 415 184 415 200.5 392 c 128,-1,16
 217 369 217 369 226 358 c 0,17,18
 259 319 259 319 299 302 c 1,19,20
 333 286 333 286 388 289 c 128,-1,21
 443 292 443 292 458 318 c 0,22,23
 476 351 476 351 479 393 c 0,24,25
 482 424 482 424 467 464 c 0,26,27
 428 565 428 565 314 565 c 0,28,29
 300 565 300 565 324 599 c 0,30,31
 331 609 331 609 350 623 c 1,32,33
 364 632 364 632 370 632 c 0,34,35
 415 632 415 632 454 614 c 0,36,37
 527 580 527 580 543 485 c 0,38,39
 556 411 556 411 508 335 c 0,40,41
 491 308 491 308 459 279 c 0,42,43
 434 255 434 255 404 242 c 1,44,45
 350 216 350 216 286.5 224.5 c 128,-1,46
 223 233 223 233 180 275 c 0,47,48
 159 296 159 296 125 344 c 0,49,50
 111 363 111 363 103.5 371.5 c 128,-1,51
 96 380 96 380 77.5 389 c 128,-1,52
 59 398 59 398 37 392 c 1,53,54
 33 380 33 380 33 370 c 0,0,1
EndSplineSet
EndChar

StartChar: uniA737
Encoding: 42807 42807 93
Width: 0
GlyphClass: 2
Flags: W
HStem: -33 66<-123.714 126>
LayerCount: 2
Fore
SplineSet
204 30 m 2,0,1
 204 30 204 30 204 26 c 0,2,3
 203 18 203 18 195 8 c 0,4,5
 179 -13 179 -13 172 -18 c 1,6,7
 172 -18 172 -18 166 -21 c 1,8,9
 161 -25 161 -25 155 -28.5 c 128,-1,10
 149 -32 149 -32 145 -33 c 1,11,-1
 141 -33 l 1,12,-1
 140 -33 l 1,13,-1
 -19 -33 l 1,14,-1
 -97 -33 l 2,15,16
 -146 -33 -146 -33 -168 -22 c 0,17,18
 -201 -6 -201 -6 -204 27 c 0,19,20
 -205 34 -205 34 -200 55 c 1,21,22
 -187 98 -187 98 -147 137 c 0,23,24
 -117 166 -117 166 -88 180 c 128,-1,25
 -59 194 -59 194 -24 200 c 0,26,27
 53 213 53 213 107 189 c 1,28,29
 150 171 150 171 175 130 c 0,30,31
 192 102 192 102 201 60 c 0,32,33
 204 45 204 45 204 30 c 2,0,1
-129 116 m 1,34,-1
 -130 115 l 1,35,-1
 -130 114 l 2,36,37
 -130 113 -130 113 -131 113 c 2,38,-1
 -132 111 l 2,39,40
 -136 102 -136 102 -137 95 c 0,41,42
 -139 83 -139 83 -136 74 c 0,43,44
 -128 52 -128 52 -102 40 c 0,45,46
 -95 37 -95 37 -80 35 c 0,47,48
 -62 33 -62 33 -25 33 c 2,49,50
 -25 33 -25 33 63 33 c 2,51,-1
 126 33 l 1,52,-1
 125 37 l 1,53,54
 101 100 101 100 41 126 c 1,55,56
 -10 145 -10 145 -74 135 c 1,57,58
 -74 135 -74 135 -86 132 c 256,59,60
 -98 129 -98 129 -114 124 c 1,61,62
 -114 124 -114 124 -120 121 c 2,63,64
 -120 121 -120 121 -126 118 c 1,65,66
 -126 118 -126 118 -127 117 c 1,67,-1
 -128 117 l 1,68,-1
 -129 116 l 1,34,-1
145 -33 m 1,69,70
 153 -32 153 -32 163 -24 c 0,71,72
 184 -8 184 -8 189 -1 c 1,73,-1
 192 5 l 1,74,75
 196 10 196 10 199.5 16 c 128,-1,76
 203 22 203 22 204 26 c 1,77,78
 203 22 203 22 199.5 16 c 128,-1,79
 196 10 196 10 192 5 c 1,80,-1
 189 -1 l 1,81,82
 184 -8 184 -8 163 -24 c 0,83,84
 153 -32 153 -32 145 -33 c 1,69,70
EndSplineSet
EndChar

StartChar: gravecomb
Encoding: 768 768 94
Width: 0
Flags: W
VStem: -147 66<-122.59 -65.2351> 81 66<-122.59 -73.6279>
LayerCount: 2
Fore
SplineSet
147 -86 m 0,0,1
 147 -92 147 -92 138 -106 c 1,2,3
 122 -127 122 -127 115 -132 c 0,4,5
 82 -152 82 -152 81 -142 c 1,6,7
 81 -121 81 -121 73 -100 c 0,8,9
 56 -57 56 -57 19 -41 c 1,10,11
 -12 -29 -12 -29 -47 -34 c 0,12,13
 -59 -36 -59 -36 -69 -40 c 1,14,-1
 -70 -41 l 1,15,-1
 -71 -43 l 1,16,-1
 -72 -43 l 1,17,18
 -72 -44 -72 -44 -73 -46.5 c 128,-1,19
 -74 -49 -74 -49 -74 -50 c 0,20,21
 -78 -62 -78 -62 -79 -68 c 0,22,23
 -81 -80 -81 -80 -81 -86 c 128,-1,24
 -81 -92 -81 -92 -90 -106 c 1,25,26
 -106 -127 -106 -127 -113 -132 c 0,27,28
 -146 -152 -146 -152 -147 -142 c 1,29,30
 -147 -120 -147 -120 -139 -98 c 0,31,32
 -115 -24 -115 -24 -45 15 c 0,33,34
 19 50 19 50 82 22 c 0,35,36
 123 4 123 4 139 -44 c 0,37,38
 147 -65 147 -65 147 -86 c 0,0,1
-68 -40 m 0,39,-1
EndSplineSet
EndChar

StartChar: acutecomb
Encoding: 769 769 95
Width: 0
Flags: W
VStem: -119 66<-94.5322 -44.9727> 52 67<-130.254 -56.0635>
LayerCount: 2
Fore
SplineSet
-53 -57 m 0,0,1
 -53 -66 -53 -66 -61 -78 c 0,2,3
 -73 -94 -73 -94 -85 -103 c 0,4,5
 -112 -121 -112 -121 -116 -119 c 0,6,7
 -119 -118 -119 -118 -119 -114 c 0,8,9
 -119 -90 -119 -90 -107 -63 c 0,10,11
 -94 -34 -94 -34 -62 -6 c 1,12,13
 -23 30 -23 30 25 33 c 0,14,15
 76 37 76 37 101 -1 c 0,16,17
 119 -27 119 -27 119 -57 c 0,18,19
 119 -91 119 -91 91 -141 c 1,20,21
 61 -192 61 -192 17 -241 c 0,22,23
 -26 -289 -26 -289 -68 -328 c 0,24,25
 -121 -378 -121 -378 -170 -417 c 1,26,27
 -198 -436 -198 -436 -203 -431 c 0,28,29
 -204 -430 -204 -430 -204 -427 c 0,30,31
 -204 -418 -204 -418 -195 -407 c 1,32,33
 -184 -390 -184 -390 -172 -381 c 2,34,-1
 -160 -372 l 2,35,36
 -141 -357 -141 -357 -105 -325 c 1,37,-1
 -90 -311 l 2,38,39
 -89 -310 -89 -310 -87.5 -309 c 128,-1,40
 -86 -308 -86 -308 -85 -307 c 2,41,-1
 -76 -298 l 1,42,-1
 -37 -259 l 2,43,44
 -36 -257 -36 -257 -32 -254 c 128,-1,45
 -28 -251 -28 -251 -26 -249 c 2,46,-1
 -25 -247 l 1,47,48
 -22 -244 -22 -244 -15.5 -237 c 128,-1,49
 -9 -230 -9 -230 -6 -226 c 2,50,-1
 3 -214 l 1,51,-1
 10 -206 l 1,52,-1
 21 -190 l 2,53,54
 28 -180 28 -180 29 -179 c 2,55,-1
 30 -178 l 1,56,-1
 30 -177 l 1,57,-1
 30 -176 l 1,58,59
 31 -174 31 -174 35.5 -167 c 128,-1,60
 40 -160 40 -160 42 -156 c 2,61,-1
 44 -151 l 1,62,-1
 47 -142 l 2,63,64
 51 -131 51 -131 52 -123 c 0,65,66
 53 -102 53 -102 45 -79 c 1,67,68
 33 -50 33 -50 3 -38 c 0,69,70
 -15 -31 -15 -31 -42 -35 c 0,71,72
 -44 -36 -44 -36 -46 -36 c 128,-1,73
 -48 -36 -48 -36 -50 -37 c 1,74,75
 -52 -43 -52 -43 -52 -45 c 128,-1,76
 -52 -47 -52 -47 -52.5 -51 c 128,-1,77
 -53 -55 -53 -55 -53 -57 c 0,0,1
EndSplineSet
EndChar

StartChar: uni0302
Encoding: 770 770 96
Width: 0
Flags: W
HStem: -147 66<-122.59 -60.5161 95.6655 290.928>
VStem: -33 66<-40.3721 8.58984>
LayerCount: 2
Fore
SplineSet
375 -143 m 0,0,1
 375 -150 375 -150 366 -163 c 0,2,3
 350 -184 350 -184 343 -189 c 0,4,5
 310 -209 310 -209 309 -199 c 0,6,7
 309 -194 309 -194 308 -192 c 0,8,9
 301 -171 301 -171 271 -158 c 1,10,11
 246 -149 246 -149 212 -147 c 1,12,13
 212 -147 212 -147 147 -147 c 2,14,15
 147 -147 147 -147 88 -147 c 0,16,17
 57 -147 57 -147 32 -136 c 0,18,19
 0 -122 0 -122 -18 -88 c 1,20,21
 -45 -118 -45 -118 -74 -132 c 0,22,23
 -106 -147 -106 -147 -142 -147 c 0,24,25
 -156 -147 -156 -147 -132 -113 c 0,26,27
 -127 -106 -127 -106 -106 -90 c 1,28,29
 -92 -81 -92 -81 -86 -81 c 0,30,31
 -73 -81 -73 -81 -67 -80 c 0,32,33
 -55 -78 -55 -78 -45 -74 c 1,34,-1
 -44 -73 l 1,35,-1
 -43 -71 l 1,36,-1
 -42 -71 l 1,37,38
 -42 -70 -42 -70 -41 -67.5 c 128,-1,39
 -40 -65 -40 -65 -40 -64 c 0,40,41
 -36 -52 -36 -52 -35 -46 c 0,42,43
 -33 -34 -33 -34 -33 -28 c 128,-1,44
 -33 -22 -33 -22 -24 -8 c 1,45,46
 -8 13 -8 13 -1 18 c 0,47,48
 32 38 32 38 33 28 c 1,49,50
 33 7 33 7 41 -14 c 0,51,52
 58 -57 58 -57 95 -73 c 0,53,54
 116 -81 116 -81 175 -81 c 2,55,56
 175 -81 175 -81 245 -81 c 0,57,58
 294 -81 294 -81 318 -88 c 0,59,60
 345 -96 345 -96 358 -109 c 1,61,62
 375 -124 375 -124 375 -143 c 0,0,1
EndSplineSet
EndChar

StartChar: tildecomb
Encoding: 771 771 97
Width: 0
Flags: W
VStem: -147 66<-218.625 -142.013>
LayerCount: 2
Fore
SplineSet
6 23 m 0,0,1
 7 24 7 24 9 25 c 128,-1,2
 11 26 11 26 12 27 c 0,3,4
 22 33 22 33 28 33 c 0,5,6
 31 33 31 33 32 32 c 0,7,8
 44 24 44 24 65 3 c 0,9,10
 100 -34 100 -34 122 -82 c 0,11,12
 137 -116 137 -116 142 -147 c 0,13,14
 150 -195 150 -195 145 -220 c 0,15,16
 141 -237 141 -237 129 -254 c 0,17,18
 114 -277 114 -277 92 -294 c 1,19,20
 66 -316 66 -316 31 -327 c 0,21,22
 -29 -346 -29 -346 -83 -329 c 0,23,24
 -107 -321 -107 -321 -124 -307 c 0,25,26
 -144 -289 -144 -289 -147 -265 c 0,27,28
 -148 -253 -148 -253 -146 -230 c 0,29,30
 -144 -209 -144 -209 -140 -190 c 0,31,32
 -134 -161 -134 -161 -116 -122 c 1,33,34
 -89 -67 -89 -67 -41 -17 c 0,35,36
 -18 6 -18 6 6 23 c 0,0,1
81 -261 m 0,37,38
 82 -257 82 -257 81 -249.5 c 128,-1,39
 80 -242 80 -242 80 -240 c 0,40,41
 80 -239 80 -239 79 -227 c 128,-1,42
 78 -215 78 -215 77 -209 c 0,43,44
 72 -180 72 -180 64 -159 c 1,45,46
 63 -160 63 -160 62 -157.5 c 128,-1,47
 61 -155 61 -155 60 -150.5 c 128,-1,48
 59 -146 59 -146 58 -144 c 0,49,50
 37 -97 37 -97 0 -60 c 0,51,52
 -7 -52 -7 -52 -23 -38 c 1,53,-1
 -29 -45 l 1,54,-1
 -33 -50 l 1,55,-1
 -38 -56 l 1,56,-1
 -43 -63 l 2,57,58
 -44 -64 -44 -64 -44 -64 c 1,59,60
 -44 -66 -44 -66 -45 -66 c 2,61,-1
 -48 -72 l 1,62,-1
 -55 -86 l 1,63,-1
 -58 -92 l 1,64,-1
 -59 -93 l 1,65,66
 -71 -121 -71 -121 -77 -152 c 1,67,68
 -81 -180 -81 -180 -81 -193 c 0,69,70
 -81 -207 -81 -207 -78 -219 c 1,71,72
 -67 -245 -67 -245 -35 -259 c 1,73,74
 9 -275 9 -275 51 -269 c 1,75,-1
 75 -263 l 2,76,77
 76 -262 76 -262 78 -262 c 128,-1,78
 80 -262 80 -262 81 -261 c 0,37,38
EndSplineSet
EndChar

StartChar: uni0304
Encoding: 772 772 98
Width: 0
Flags: W
VStem: -204 66<-122.59 -78.1035>
LayerCount: 2
Fore
SplineSet
-130 -55 m 1,0,-1
 -132 -57 l 1,1,-1
 -131 -56 l 1,2,-1
 -130 -55 l 1,0,-1
90 -93 m 1,3,4
 52 -58 52 -58 14 -42 c 0,5,6
 -23 -27 -23 -27 -74 -36 c 0,7,8
 -108 -41 -108 -41 -129 -55 c 1,9,10
 -138 -69 -138 -69 -138 -86 c 0,11,12
 -138 -92 -138 -92 -147 -106 c 1,13,14
 -163 -127 -163 -127 -170 -132 c 0,15,16
 -203 -152 -203 -152 -204 -142 c 1,17,18
 -204 -114 -204 -114 -187 -85 c 0,19,20
 -122 27 -122 27 14 33 c 0,21,22
 58 34 58 34 90 17.5 c 128,-1,23
 122 1 122 1 156 -31 c 0,24,25
 183 -57 183 -57 203 -82 c 0,26,27
 206 -86 206 -86 200 -98 c 0,28,29
 184 -127 184 -127 155 -143 c 0,30,31
 147 -147 147 -147 143 -147 c 0,32,33
 73 -147 73 -147 -5 -173 c 1,34,-1
 -17 -179 l 2,35,36
 -19 -179 -19 -179 -21 -181 c 1,37,38
 -28 -205 -28 -205 -18 -234 c 0,39,40
 -2 -279 -2 -279 45 -298 c 1,41,42
 89 -314 89 -314 133 -308 c 0,43,44
 134 -308 134 -308 136 -307.5 c 128,-1,45
 138 -307 138 -307 139 -307 c 0,46,47
 142 -300 142 -300 147 -293 c 0,48,49
 163 -272 163 -272 170 -267 c 0,50,51
 203 -247 203 -247 204 -257 c 1,52,53
 204 -280 204 -280 184 -306 c 0,54,55
 125 -384 125 -384 34 -374 c 1,56,57
 -54 -366 -54 -366 -80 -300 c 0,58,59
 -90 -277 -90 -277 -90 -257 c 0,60,61
 -90 -201 -90 -201 -28 -149 c 0,62,63
 18 -110 18 -110 90 -93 c 1,3,4
-21 -181 m 1,64,-1
 -20 -180 l 1,65,-1
 -21 -181 l 1,64,-1
EndSplineSet
EndChar

StartChar: uni0305
Encoding: 773 773 99
Width: 0
Flags: W
HStem: -32 66<-23.3301 8.58984>
VStem: 22 68<-199.36 -144.172>
LayerCount: 2
Fore
SplineSet
-73 -313 m 1,0,1
 -84 -321 -84 -321 -89 -316 c 128,-1,2
 -94 -311 -94 -311 -86 -300 c 1,3,4
 -77 -284 -77 -284 -67 -274 c 128,-1,5
 -57 -264 -57 -264 -41 -255 c 0,6,7
 -39 -254 -39 -254 -33 -251 c 128,-1,8
 -27 -248 -27 -248 -25 -246 c 0,9,10
 -23 -245 -23 -245 -18 -242 c 2,11,-1
 -16 -241 l 2,12,13
 -13 -239 -13 -239 -7 -234.5 c 128,-1,14
 -1 -230 -1 -230 2 -228 c 2,15,-1
 10 -223 l 1,16,-1
 14 -219 l 1,17,-1
 15 -218 l 1,18,-1
 20 -213 l 2,19,20
 20 -212 20 -212 21 -212 c 2,21,-1
 22 -210 l 2,22,23
 22 -208 22 -208 23 -205 c 128,-1,24
 24 -202 24 -202 24 -200 c 0,25,26
 24 -186 24 -186 20 -175 c 1,27,28
 11 -157 11 -157 -9 -149 c 0,29,30
 -18 -146 -18 -146 -28 -146 c 0,31,32
 -37 -146 -37 -146 -55 -140 c 0,33,34
 -77 -132 -77 -132 -86 -107 c 0,35,36
 -99 -73 -99 -73 -78 -40 c 1,37,38
 -45 15 -45 15 2 30 c 0,39,40
 13 34 13 34 28 34 c 0,41,42
 42 34 42 34 18 0 c 0,43,44
 13 -7 13 -7 -8 -23 c 1,45,46
 -23 -32 -23 -32 -24 -32 c 1,47,48
 -24 -39 -24 -39 -20 -51 c 1,49,50
 -11 -69 -11 -69 9 -77 c 0,51,52
 18 -80 18 -80 27 -80 c 128,-1,53
 36 -80 36 -80 40 -81 c 0,54,55
 61 -86 61 -86 73 -97 c 0,56,57
 90 -113 90 -113 90 -142 c 0,58,59
 90 -168 90 -168 58 -211 c 0,60,61
 36 -239 36 -239 -5 -271 c 0,62,63
 -36 -294 -36 -294 -73 -313 c 1,0,1
EndSplineSet
EndChar

StartChar: uni0306
Encoding: 774 774 100
Width: 0
Flags: W
HStem: -66 66<-126 123.714>
LayerCount: 2
Fore
SplineSet
-204 -63 m 2,0,1
 -204 -63 -204 -63 -204 -59 c 0,2,3
 -203 -51 -203 -51 -195 -41 c 0,4,5
 -181 -23 -181 -23 -172 -16 c 2,6,7
 -172 -16 -172 -16 -166 -12 c 0,8,9
 -161 -8 -161 -8 -155 -4.5 c 128,-1,10
 -149 -1 -149 -1 -145 0 c 1,11,-1
 -141 0 l 1,12,-1
 -140 0 l 1,13,-1
 19 0 l 1,14,-1
 97 0 l 2,15,16
 146 0 146 0 168 -11 c 0,17,18
 201 -27 201 -27 204 -60 c 0,19,20
 205 -67 205 -67 200 -88 c 1,21,22
 187 -131 187 -131 147 -170 c 0,23,24
 117 -199 117 -199 88 -213 c 128,-1,25
 59 -227 59 -227 24 -233 c 0,26,27
 -53 -246 -53 -246 -107 -222 c 1,28,29
 -150 -204 -150 -204 -175 -163 c 0,30,31
 -192 -135 -192 -135 -201 -93 c 0,32,33
 -204 -78 -204 -78 -204 -63 c 2,0,1
129 -150 m 1,34,-1
 130 -149 l 1,35,-1
 130 -147 l 2,36,37
 130 -146 130 -146 131 -146 c 2,38,-1
 132 -144 l 2,39,40
 136 -134 136 -134 137 -129 c 0,41,42
 139 -116 139 -116 136 -107 c 0,43,44
 128 -85 128 -85 102 -73 c 0,45,46
 95 -70 95 -70 80 -68 c 0,47,48
 62 -66 62 -66 25 -66 c 2,49,50
 25 -66 25 -66 -63 -66 c 2,51,-1
 -126 -66 l 1,52,-1
 -125 -70 l 1,53,54
 -101 -133 -101 -133 -41 -159 c 1,55,56
 10 -178 10 -178 74 -168 c 0,57,58
 76 -168 76 -168 80 -167 c 128,-1,59
 84 -166 84 -166 86 -166 c 0,60,61
 89 -165 89 -165 114 -157 c 0,62,63
 115 -156 115 -156 117 -156 c 128,-1,64
 119 -156 119 -156 120 -155 c 2,65,-1
 126 -152 l 1,66,-1
 127 -151 l 1,67,-1
 128 -150 l 1,68,-1
 129 -150 l 1,34,-1
-145 0 m 1,69,70
 -153 -1 -153 -1 -163 -9 c 0,71,72
 -184 -25 -184 -25 -189 -32 c 1,73,-1
 -192 -38 l 1,74,75
 -196 -43 -196 -43 -199.5 -49 c 128,-1,76
 -203 -55 -203 -55 -204 -59 c 1,77,78
 -203 -55 -203 -55 -199.5 -49 c 128,-1,79
 -196 -43 -196 -43 -192 -38 c 1,80,-1
 -189 -32 l 1,81,82
 -184 -25 -184 -25 -163 -9 c 0,83,84
 -153 -1 -153 -1 -145 0 c 1,69,70
EndSplineSet
EndChar

StartChar: uni0310
Encoding: 784 784 101
Width: 0
Flags: W
HStem: -32 226
VStem: -32 98
LayerCount: 2
Fore
SplineSet
3 -3 m 0,0,1
 -29 -35 -29 -35 -32 -32 c 0,2,3
 -34 -30 -34 -30 -22 -18 c 2,4,5
 -22 -18 -22 -18 -20 -16 c 0,6,7
 -20 -15 -20 -15 -19 -14 c 128,-1,8
 -18 -13 -18 -13 -17 -12 c 0,9,10
 -4 7 -4 7 1 26 c 0,11,12
 7 51 7 51 1 76 c 0,13,14
 -7 105 -7 105 -32 130 c 0,15,16
 -34 133 -34 133 -3 164 c 0,17,18
 30 197 30 197 32 194 c 0,19,20
 60 166 60 166 66 132 c 0,21,22
 71 105 71 105 61 78 c 0,23,24
 50 46 50 46 3 -3 c 0,0,1
EndSplineSet
EndChar

StartChar: uni0313
Encoding: 787 787 104
Width: 0
Flags: W
HStem: -32 32<-114 102> 0 32<-102 114>
VStem: -146 292
LayerCount: 2
Fore
SplineSet
-114 0 m 1,0,-1
 114 0 l 1,1,-1
 -114 0 l 1,0,-1
-146 -32 m 0,2,3
 -147 -32 -147 -32 -140 -23 c 1,4,-1
 -138 -21 l 1,5,-1
 -117 3 l 1,6,7
 -117 3 -117 3 -93 24 c 0,8,9
 -85 32 -85 32 -82 32 c 2,10,11
 -82 32 -82 32 3 32 c 2,12,13
 3 32 3 32 146 32 c 0,14,15
 147 32 147 32 140 23 c 1,16,-1
 138 21 l 1,17,-1
 117 -3 l 1,18,19
 117 -3 117 -3 93 -24 c 0,20,21
 85 -32 85 -32 82 -32 c 2,22,23
 82 -32 82 -32 -3 -32 c 2,24,25
 -3 -32 -3 -32 -146 -32 c 0,2,3
EndSplineSet
EndChar

StartChar: ntilde
Encoding: 241 241 106
Width: 342
Flags: W
HStem: -33 66<34 350.59>
VStem: -33 67<220.688 265.562>
LayerCount: 2
Fore
SplineSet
33 256 m 0,0,1
 33 250 33 250 24 236 c 1,2,3
 8 215 8 215 1 210 c 0,4,5
 -32 190 -32 190 -33 200 c 1,6,7
 -33 214 -33 214 -28 229 c 0,8,9
 -16 268 -16 268 23 307 c 1,10,11
 76 358 76 358 141 370 c 1,12,13
 224 384 224 384 284 363 c 0,14,15
 333 346 333 346 355 313 c 0,16,17
 372 289 372 289 375 264 c 0,18,19
 379 239 379 239 353 208 c 1,20,21
 322 168 322 168 266 148 c 0,22,23
 238 138 238 138 182 123 c 128,-1,24
 126 108 126 108 99 98 c 0,25,26
 87 94 87 94 81 91 c 0,27,28
 80 91 80 91 80 90 c 2,29,-1
 78 89 l 2,30,31
 77 88 77 88 75.5 88 c 128,-1,32
 74 88 74 88 73 87 c 128,-1,33
 72 86 72 86 69 85 c 128,-1,34
 66 84 66 84 64 83 c 128,-1,35
 62 82 62 82 59 80 c 128,-1,36
 56 78 56 78 54 77 c 2,37,-1
 53 76 l 1,38,-1
 44 70 l 1,39,-1
 43 70 l 1,40,-1
 42 68 l 1,41,-1
 41 66 l 1,42,-1
 40 64 l 1,43,-1
 39 62 l 2,44,45
 37 56 37 56 35 48 c 0,46,47
 34 43 34 43 34 33 c 1,48,-1
 71 33 l 1,49,-1
 255 33 l 1,50,-1
 370 33 l 2,51,52
 384 33 384 33 360 -1 c 0,53,54
 355 -8 355 -8 334 -24 c 1,55,56
 320 -33 320 -33 314 -33 c 2,57,58
 314 -33 314 -33 271 -33 c 2,59,60
 271 -33 271 -33 87 -33 c 2,61,62
 87 -33 87 -33 -28 -33 c 0,63,64
 -33 -33 -33 -33 -33 -28 c 0,65,66
 -33 13 -33 13 -7 52 c 0,67,68
 21 95 21 95 70 126 c 0,69,70
 126 161 126 161 252 195 c 0,71,72
 258 197 258 197 272 200.5 c 128,-1,73
 286 204 286 204 292 206 c 0,74,75
 294 207 294 207 300 209 c 128,-1,76
 306 211 306 211 308 212 c 1,77,78
 306 220 306 220 304 226 c 0,79,80
 287 272 287 272 234 294 c 0,81,82
 206 305 206 305 170 308 c 0,83,84
 129 311 129 311 97 306 c 1,85,-1
 85 303 l 2,86,87
 73 300 73 300 57 295 c 1,88,-1
 51 292 l 2,89,90
 50 292 50 292 48 291 c 128,-1,91
 46 290 46 290 45 290 c 128,-1,92
 44 290 44 290 44 289 c 128,-1,93
 44 288 44 288 43 288 c 2,94,-1
 42 288 l 1,95,-1
 41 286 l 1,96,-1
 41 285 l 2,97,98
 41 284 41 284 40 284 c 2,99,-1
 39 282 l 2,100,101
 35 273 35 273 34 266 c 0,102,103
 33 263 33 263 33 256 c 0,0,1
EndSplineSet
EndChar

StartChar: Ntilde
Encoding: 209 209 107
Width: 471
Flags: W
HStem: 357 20G<172.5 227.5> 357 20G<172.5 227.5>
VStem: -33 66<219.41 266.014> 394 67<-40.4814 8.40332>
LayerCount: 2
Fore
SplineSet
33 256 m 0,0,1
 33 250 33 250 24 236 c 1,2,3
 8 215 8 215 1 210 c 0,4,5
 -32 190 -32 190 -33 200 c 1,6,7
 -33 212 -33 212 -27 232 c 1,8,9
 -12 274 -12 274 22.5 308 c 128,-1,10
 57 342 57 342 100 359 c 0,11,12
 145 377 145 377 200 377 c 128,-1,13
 255 377 255 377 300 357 c 0,14,15
 330 344 330 344 351 318 c 128,-1,16
 372 292 372 292 375 260 c 0,17,18
 377 237 377 237 354 205 c 0,19,20
 323 163 323 163 266 121 c 0,21,22
 203 74 203 74 96 22 c 1,23,24
 117 16 117 16 199 -11.5 c 128,-1,25
 281 -39 281 -39 330 -48 c 1,26,27
 374 -55 374 -55 391 -50 c 1,28,29
 394 -41 394 -41 394 -28 c 0,30,31
 394 -22 394 -22 403 -8 c 1,32,33
 417 11 417 11 427 18 c 0,34,35
 460 38 460 38 461 28 c 1,36,37
 461 -17 461 -17 425 -59 c 0,38,39
 389 -102 389 -102 349 -114 c 0,40,41
 307 -126 307 -126 224 -103 c 0,42,43
 199 -96 199 -96 131.5 -73 c 128,-1,44
 64 -50 64 -50 25 -41 c 0,45,46
 -9 -33 -9 -33 -28 -33 c 0,47,48
 -42 -33 -42 -33 -18 1 c 1,49,50
 0 22 0 22 23 32 c 2,51,-1
 68 53 l 2,52,53
 186 108 186 108 245 145 c 1,54,-1
 275 165 l 1,55,-1
 289 175 l 2,56,57
 297 181 297 181 302 186 c 2,58,-1
 307 191 l 2,59,60
 308 192 308 192 308 194 c 0,61,62
 311 209 311 209 304 226 c 0,63,64
 282 283 282 283 203 303.5 c 128,-1,65
 124 324 124 324 51 292 c 0,66,67
 50 291 50 291 47 290 c 128,-1,68
 44 289 44 289 42 288 c 1,69,70
 33 274 33 274 33 256 c 0,0,1
EndSplineSet
EndChar

StartChar: plus
Encoding: 43 43 108
Width: 300
Flags: W
HStem: 309 66<33 138> 422 66<-8.58984 179.59>
VStem: -33 66<-8.58984 309> 138 66<-350.59 309>
LayerCount: 2
Fore
SplineSet
-28 422 m 0,0,1
 -42 422 -42 422 -18 456 c 0,2,3
 -13 463 -13 463 8 479 c 1,4,5
 22 488 22 488 28 488 c 2,6,7
 28 488 28 488 50 488 c 2,8,9
 50 488 50 488 199 488 c 0,10,11
 213 488 213 488 189 454 c 0,12,13
 184 447 184 447 163 431 c 0,14,15
 150 422 150 422 143 422 c 2,16,17
 143 422 143 422 121 422 c 2,18,19
 121 422 121 422 -28 422 c 0,0,1
33 28 m 0,20,21
 33 22 33 22 24 8 c 1,22,23
 8 -13 8 -13 1 -18 c 0,24,25
 -32 -38 -32 -38 -33 -28 c 1,26,27
 -33 -28 -33 -28 -33 14 c 2,28,29
 -33 14 -33 14 -33 198 c 2,30,31
 -33 198 -33 198 -33 314 c 0,32,33
 -33 320 -33 320 -24 334 c 0,34,35
 -16 346 -16 346 -10 352 c 0,36,37
 4 364 4 364 16 371 c 0,38,39
 24 375 24 375 28 375 c 2,40,41
 28 375 28 375 50 375 c 2,42,43
 50 375 50 375 199 375 c 0,44,45
 204 375 204 375 204 370 c 2,46,-1
 204 369 l 1,47,48
 204 369 204 369 204 285 c 2,49,50
 204 285 204 285 204 114 c 2,51,52
 204 114 204 114 204 -83 c 2,53,54
 204 -83 204 -83 204 -246 c 2,55,56
 204 -246 204 -246 204 -314 c 0,57,58
 204 -320 204 -320 195 -334 c 1,59,60
 179 -355 179 -355 172 -360 c 0,61,62
 139 -380 139 -380 138 -370 c 1,63,-1
 138 -369 l 1,64,65
 138 -369 138 -369 138 -285 c 2,66,67
 138 -285 138 -285 138 -114 c 2,68,69
 138 -114 138 -114 138 83 c 2,70,71
 138 83 138 83 138 246 c 2,72,-1
 138 309 l 1,73,-1
 121 309 l 1,74,-1
 33 309 l 1,75,-1
 33 144 l 1,76,77
 33 144 33 144 33 28 c 0,20,21
EndSplineSet
EndChar

StartChar: uni02B0
Encoding: 688 688 109
Width: 129
Flags: W
VStem: -33 66<-8.58984 350.59>
LayerCount: 2
Fore
SplineSet
-33 314 m 0,0,1
 -33 320 -33 320 -24 334 c 1,2,3
 -8 355 -8 355 -1 360 c 0,4,5
 32 380 32 380 33 370 c 1,6,7
 33 370 33 370 33 328 c 2,8,9
 33 328 33 328 33 144 c 2,10,11
 33 144 33 144 33 28 c 0,12,13
 33 22 33 22 24 8 c 1,14,15
 8 -13 8 -13 1 -18 c 0,16,17
 -32 -38 -32 -38 -33 -28 c 1,18,19
 -33 -28 -33 -28 -33 14 c 2,20,21
 -33 14 -33 14 -33 198 c 2,22,23
 -33 198 -33 198 -33 314 c 0,0,1
EndSplineSet
EndChar

StartChar: uni02B2
Encoding: 690 690 110
Width: 384
Flags: W
HStem: -32 64<50 237.5>
VStem: -32 64<219.316 275.445>
LayerCount: 2
Fore
SplineSet
41 297 m 1,0,1
 32 279 32 279 32 255 c 0,2,3
 32 246 32 246 23 235 c 0,4,5
 15 224 15 224 1 211 c 0,6,7
 -4 206 -4 206 -16 199.5 c 128,-1,8
 -28 193 -28 193 -32 201 c 1,9,10
 -32 217 -32 217 -24 243 c 0,11,12
 -5 303 -5 303 54.5 346.5 c 128,-1,13
 114 390 114 390 181 368 c 1,14,15
 230 353 230 353 248 307 c 1,16,17
 260 280 260 280 260 255 c 0,18,19
 260 242 260 242 234 216 c 2,20,-1
 50 32 l 1,21,-1
 224 32 l 1,22,23
 252 74 252 74 272 85 c 0,24,25
 283 92 283 92 288 87 c 0,26,27
 292 83 292 83 285 72 c 0,28,29
 280 63 280 63 271 43.5 c 128,-1,30
 262 24 262 24 257 15 c 0,31,32
 250 1 250 1 230 -17 c 0,33,34
 212 -32 212 -32 202 -32 c 2,35,-1
 -27 -32 l 2,36,37
 -39 -32 -39 -32 -28 -15 c 0,38,39
 -22 -4 -22 -4 -9 9 c 2,40,-1
 196 214 l 1,41,42
 191 263 191 263 156.5 289.5 c 128,-1,43
 122 316 122 316 68 309 c 0,44,45
 56 307 56 307 46 303 c 1,46,-1
 45 302 l 2,47,48
 44 302 44 302 43 302 c 1,49,50
 43 301 43 301 41 299 c 1,51,-1
 41 297 l 1,0,1
EndSplineSet
EndChar

StartChar: uni02D0
Encoding: 720 720 111
Width: 357
Flags: W
VStem: -33 66<74.2417 122.59 219.41 276.554> 195 66<86.3707 246.099>
LayerCount: 2
Fore
SplineSet
44 301 m 1,0,1
 33 284 33 284 33 256 c 0,2,3
 33 250 33 250 24 236 c 1,4,5
 8 215 8 215 1 210 c 0,6,7
 -32 190 -32 190 -33 200 c 1,8,9
 -33 273 -33 273 39 335 c 0,10,11
 72 363 72 363 105 371 c 0,12,13
 172 386 172 386 209 350 c 0,14,15
 236 324 236 324 251 270 c 0,16,17
 259 240 259 240 261 206 c 1,18,19
 261 56 261 56 155 -11 c 0,20,21
 95 -49 95 -49 32 -22 c 0,22,23
 -9 -4 -9 -4 -25 44 c 0,24,25
 -33 65 -33 65 -33 86 c 0,26,27
 -33 92 -33 92 -24 106 c 1,28,29
 -8 127 -8 127 -1 132 c 0,30,31
 32 152 32 152 33 142 c 1,32,33
 33 124 33 124 43 96 c 1,34,35
 74 26 74 26 153 34 c 0,36,37
 165 36 165 36 171 38 c 1,38,39
 172 40 172 40 173.5 43 c 128,-1,40
 175 46 175 46 176 48 c 1,41,-1
 176 49 l 1,42,43
 191 92 191 92 195 137 c 1,44,45
 195 189 195 189 177 237 c 1,46,47
 155 288 155 288 120 303 c 1,48,49
 77 319 77 319 44 301 c 1,0,1
175 46 m 1,50,-1
 176 47 l 1,51,-1
 176 48 l 1,52,-1
 175 46 l 1,50,-1
171 38 m 0,53,-1
EndSplineSet
EndChar

StartChar: R
Encoding: 82 82 112
Width: 355
Flags: W
VStem: -33 66<219.41 276.329> 176 83<85.1001 135.594> 195 64<85.1001 166>
LayerCount: 2
Fore
SplineSet
44 301 m 1,0,1
 33 284 33 284 33 256 c 0,2,3
 33 250 33 250 24 236 c 1,4,5
 8 215 8 215 1 210 c 0,6,7
 -32 190 -32 190 -33 200 c 1,8,9
 -33 200 -33 200 -33 203 c 0,10,11
 -29 276 -29 276 37 334 c 0,12,13
 68 362 68 362 101 370 c 0,14,15
 167 387 167 387 207 351 c 1,16,17
 251 313 251 313 259 231 c 1,18,19
 259 231 259 231 259 227 c 0,20,21
 266 148 266 148 238 87 c 128,-1,22
 210 26 210 26 158 -9 c 0,23,24
 97 -50 97 -50 34 -24 c 0,25,26
 -6 -8 -6 -8 -24 41 c 0,27,28
 -33 66 -33 66 -33 86 c 0,29,30
 -33 98 -33 98 -14 120 c 0,31,32
 57 206 57 206 180 227 c 1,33,34
 160 286 160 286 120 303 c 1,35,36
 77 319 77 319 44 301 c 1,0,1
44 301 m 1,37,-1
 46 302 l 1,38,-1
 45 302 l 1,39,-1
 44 301 l 1,37,-1
176 48 m 1,40,-1
 176 49 l 1,41,42
 191 92 191 92 195 137 c 1,43,44
 195 156 195 156 194 166 c 1,45,46
 96 164 96 164 34 128 c 1,47,48
 41 82 41 82 72 55.5 c 128,-1,49
 103 29 103 29 153 34 c 0,50,51
 165 36 165 36 171 38 c 1,52,53
 172 40 172 40 173.5 43 c 128,-1,54
 175 46 175 46 176 48 c 1,40,-1
175 46 m 1,55,-1
 176 47 l 1,56,-1
 176 48 l 1,57,-1
 175 46 l 1,55,-1
EndSplineSet
EndChar

StartChar: uni02C0
Encoding: 704 704 113
Width: 0
Flags: W
HStem: -603 66<527.658 578.59>
VStem: -33 66<-42.0317 8.58984> 195 66<-42.0317 8.58984> 423 66<-496.106 -103 -70.4666 8.58984>
CounterMasks: 1 70
LayerCount: 2
Fore
SplineSet
542 -603 m 0,0,1
 489 -603 489 -603 457.5 -571 c 128,-1,2
 426 -539 426 -539 423 -485 c 1,3,-1
 423 -103 l 1,4,5
 405 -119 405 -119 387 -129 c 0,6,7
 323 -164 323 -164 260 -136 c 0,8,9
 228 -122 228 -122 210 -88 c 1,10,11
 186 -113 186 -113 159 -129 c 1,12,13
 95 -164 95 -164 32 -136 c 0,14,15
 -9 -118 -9 -118 -25 -70 c 0,16,17
 -33 -49 -33 -49 -33 -28 c 0,18,19
 -33 -22 -33 -22 -24 -8 c 1,20,21
 -8 13 -8 13 -1 18 c 0,22,23
 32 38 32 38 33 28 c 1,24,25
 33 -26 33 -26 69 -56.5 c 128,-1,26
 105 -87 105 -87 161 -80 c 0,27,28
 173 -78 173 -78 183 -74 c 1,29,-1
 184 -73 l 2,30,31
 184 -72 184 -72 184.5 -72 c 128,-1,32
 185 -72 185 -72 185 -71 c 1,33,-1
 186 -71 l 1,34,35
 195 -54 195 -54 195 -28 c 0,36,37
 195 -22 195 -22 204 -8 c 1,38,39
 220 13 220 13 227 18 c 0,40,41
 260 38 260 38 261 28 c 1,42,43
 261 -26 261 -26 297 -56.5 c 128,-1,44
 333 -87 333 -87 389 -80 c 0,45,46
 401 -78 401 -78 411 -74 c 1,47,-1
 412 -73 l 2,48,49
 412 -72 412 -72 412.5 -72 c 128,-1,50
 413 -72 413 -72 413 -71 c 1,51,-1
 414 -71 l 1,52,53
 423 -54 423 -54 423 -28 c 0,54,55
 423 -22 423 -22 432 -8 c 1,56,57
 448 13 448 13 455 18 c 0,58,59
 488 38 488 38 489 28 c 1,60,-1
 489 -381 l 2,61,62
 489 -447 489 -447 497 -470 c 0,63,64
 523 -537 523 -537 598 -537 c 0,65,66
 612 -537 612 -537 588 -571 c 0,67,68
 583 -578 583 -578 562 -594 c 1,69,70
 548 -603 548 -603 542 -603 c 0,0,1
EndSplineSet
EndChar

StartChar: uni0315
Encoding: 789 789 114
Width: 585
Flags: W
HStem: -1172 66<528.328 578.59> 75 71<107.086 117 117 356.342>
VStem: -33 66<-9.42432 31.6514> 423 66<-1065.88 19.8108>
LayerCount: 2
Fore
SplineSet
-26 -33 m 0,0,1
 -30 -34 -30 -34 -32 -32 c 0,2,3
 -33 -31 -33 -31 -33 -27 c 0,4,5
 -32 4 -32 4 -6 38 c 0,6,7
 44 102 44 102 116 127 c 0,8,9
 192 153 192 153 298 146 c 0,10,11
 386 140 386 140 436 108 c 0,12,13
 471 85 471 85 483 54 c 0,14,15
 489 38 489 38 489 27 c 2,16,17
 489 27 489 27 489 -22 c 2,18,19
 489 -22 489 -22 489 -248 c 0,20,21
 489 -277 489 -277 488.5 -335 c 128,-1,22
 488 -393 488 -393 488 -422 c 0,23,24
 488 -443 488 -443 488.5 -486 c 128,-1,25
 489 -529 489 -529 489 -551 c 2,26,-1
 489 -758 l 1,27,-1
 489 -908 l 1,28,29
 489 -908 489 -908 489 -995 c 0,30,31
 489 -1017 489 -1017 497 -1039 c 0,32,33
 513 -1082 513 -1082 552 -1098 c 0,34,35
 572 -1106 572 -1106 598 -1106 c 0,36,37
 612 -1106 612 -1106 588 -1140 c 0,38,39
 583 -1147 583 -1147 562 -1163 c 1,40,41
 548 -1172 548 -1172 542 -1172 c 0,42,43
 497 -1172 497 -1172 468 -1150 c 0,44,45
 444 -1131 444 -1131 434 -1105 c 0,46,47
 423 -1078 423 -1078 423 -1052 c 2,48,49
 423 -1052 423 -1052 423 -970 c 2,50,51
 423 -970 423 -970 423 -816 c 2,52,53
 423 -816 423 -816 423 -612 c 2,54,55
 423 -612 423 -612 423 -479 c 2,56,57
 423 -479 423 -479 423 -310 c 2,58,59
 423 -310 423 -310 423 -81 c 2,60,61
 423 -81 423 -81 423 -29 c 0,62,63
 423 -23 423 -23 419 -11 c 0,64,65
 401 36 401 36 341 60 c 1,66,67
 279 83 279 83 187 81 c 0,68,69
 164 81 164 81 141 78 c 0,70,71
 138 77 138 77 131.5 76 c 128,-1,72
 125 75 125 75 122 75 c 2,73,-1
 117 75 l 1,74,75
 117 74 117 74 116 74 c 0,76,77
 111 74 111 74 108 73 c 0,78,79
 97 71 97 71 75 65 c 0,80,81
 69 63 69 63 62 60 c 0,82,83
 62 59 62 59 60 59 c 128,-1,84
 58 59 58 59 58 58 c 2,85,-1
 57 57 l 1,86,-1
 56 57 l 1,87,88
 54 56 54 56 49.5 54 c 128,-1,89
 45 52 45 52 43 51 c 1,90,-1
 43 50 l 1,91,92
 42 49 42 49 42 49 c 1,93,-1
 40 49 l 1,94,-1
 39 49 l 1,95,-1
 38 48 l 1,96,-1
 38 45 l 2,97,98
 38 44 38 44 37 42.5 c 128,-1,99
 36 41 36 41 36 40 c 0,100,101
 35 39 35 39 34.5 36.5 c 128,-1,102
 34 34 34 34 34 33 c 2,103,-1
 34 32 l 1,104,105
 33 31 33 31 33 30 c 2,106,-1
 33 26 l 1,107,108
 32 18 32 18 24 8 c 1,109,110
 16 -4 16 -4 10 -10 c 128,-1,111
 4 -16 4 -16 -8 -24 c 1,112,113
 -18 -32 -18 -32 -26 -33 c 0,0,1
EndSplineSet
EndChar

